<svg width="110" height="110" viewBox="0 0 110 110" fill="none" xmlns="http://www.w3.org/2000/svg">
<circle cx="55" cy="55" r="53.5" fill="white" stroke="#3B3B3B" stroke-width="3"/>
<g clip-path="url(#clip0)">
<path fill-rule="evenodd" clip-rule="evenodd" d="M55.0006 22.5894C37.0936 22.5894 22.5898 37.0931 22.5898 55.0001C22.5898 69.3418 31.8674 81.4553 44.7507 85.7497C46.3712 86.0333 46.9789 85.061 46.9789 84.2102C46.9789 83.4405 46.9384 80.8881 46.9384 78.1737C38.7952 79.6727 36.6885 76.1886 36.0403 74.3655C35.6757 73.4337 34.0956 70.5572 32.7182 69.7875C31.5838 69.1798 29.9633 67.6808 32.6777 67.6402C35.23 67.5997 37.0531 69.99 37.6608 70.9623C40.5778 75.8645 45.2368 74.487 47.1004 73.6362C47.384 71.5295 48.2348 70.1116 49.1666 69.3013C41.9552 68.491 34.4198 65.6956 34.4198 53.2985C34.4198 49.7738 35.6757 46.8569 37.7419 44.5881C37.4177 43.7779 36.2834 40.4558 38.066 35.9993C38.066 35.9993 40.7804 35.1485 46.9789 39.3214C49.5718 38.5921 52.3267 38.2275 55.0816 38.2275C57.8365 38.2275 60.5914 38.5921 63.1843 39.3214C69.3828 35.108 72.0972 35.9993 72.0972 35.9993C73.8798 40.4558 72.7454 43.7779 72.4213 44.5881C74.4875 46.8569 75.7434 49.7333 75.7434 53.2985C75.7434 65.7361 68.1674 68.491 60.956 69.3013C62.1309 70.3141 63.1437 72.2588 63.1437 75.2973C63.1437 79.6322 63.1032 83.1164 63.1032 84.2102C63.1032 85.061 63.7109 86.0738 65.3315 85.7497C78.1337 81.4553 87.4113 69.3013 87.4113 55.0001C87.4113 37.0931 72.9075 22.5894 55.0006 22.5894Z" fill="#EE7100"/>
</g>
<defs>
<clipPath id="clip0">
<rect x="22.5898" y="22.5894" width="64.8214" height="64.8214" fill="white"/>
</clipPath>
</defs>
</svg>
