<?xml version="1.0" encoding="utf-8"?>
<!-- Generator: Adobe Illustrator 24.1.1, SVG Export Plug-In . SVG Version: 6.00 Build 0)  -->
<svg version="1.1" xmlns="http://www.w3.org/2000/svg" xmlns:xlink="http://www.w3.org/1999/xlink" x="0px" y="0px"
	 viewBox="0 0 2500 1750" style="enable-background:new 0 0 2500 1750;" xml:space="preserve">
<style type="text/css">
	.st0{opacity:0.15;fill:#FFFFFF;enable-background:new    ;}
	.st1{fill:none;stroke:#FFFFFF;stroke-width:0.5;stroke-linecap:round;stroke-linejoin:round;}
	.st2{opacity:0.1;fill:#FFFFFF;enable-background:new    ;}
	.st3{fill:none;stroke:#FFFFFF;stroke-width:3;stroke-linecap:round;stroke-linejoin:round;}
	.st4{opacity:0.5;fill:none;stroke:#FFFFFF;stroke-miterlimit:10;enable-background:new    ;}
	.st5{fill:none;stroke:#FFFFFF;stroke-width:1.5;stroke-linecap:round;stroke-linejoin:round;}
	.st6{fill:none;stroke:#FFFFFF;stroke-width:2;stroke-linecap:round;stroke-linejoin:round;}
</style>
<g id="Layer_2">
</g>
<g id="Graphics">
	<path class="st0" d="M3015.1,1374.4c-16.1,34.4-43.1,79.9-43.1,79.9s-24.9,44.6-46.7,75.7c0,0-13.1,18-19.1,15.9l-80.6-28.1
		c0,0-5.3-0.5-26-12s-492.3-292-492.3-292s-12.6-9.8-31.9-7.8c-9.8,1-21.2,6-33.7,14.9c-37.4,26.5-123.8,94.1-271.2,94.1
		s-233.3-66.4-270.3-93.5c-15.5-11.4-26-15.8-36.8-16c-16.6-0.3-29.7,8.2-29.7,8.2s-471.6,280.6-492.3,292s-26,12-26,12l-80.6,28.1
		c-6,2.1-19.1-15.9-19.1-15.9c-21.7-31.2-47.6-77.3-47.6-77.3s-26.1-43.9-42.3-78.3c0,0-9.1-20.3-4.2-24.5l64.6-55.8
		c0,0,3.1-4.3,23.4-16.6s503.1-282.9,503.1-282.9s26.9-12.1,22.6-57.8s-18.5-154.1,54-282c67.5-119.2,175.1-171,217.7-188.1
		c41.7-16.8,38.4-52.9,38.4-52.9s-7.2-548.7-6.7-572.4s2.7-28.5,2.7-28.5s14.8-77.6,16-83.9s23.3-8.6,23.3-8.6
		c37.8-3.2,90.7-2.6,90.7-2.6s51.1-0.7,88.9,2.5c0,0,22.1,2.3,23.3,8.6s15.9,83.8,15.9,83.8s2.2,4.8,2.7,28.5s-6.7,572.4-6.7,572.4
		c-0.5,12.6,3.6,25,11.5,34.9c6,7.5,15.8,12.8,28.9,18.8c41.7,19.2,145.2,65.2,215.8,187.4c73.8,127.5,58.3,236.4,54.1,282.1
		c-1.4,15.2,0.4,27.7,4.3,36.6c7.9,18,22.2,23.6,22.2,23.6s478.8,268.2,499.1,280.4s23.4,16.6,23.4,16.6l64.6,55.8
		C3024.1,1354.1,3015.1,1374.4,3015.1,1374.4z M3145,1041.8c-38.9-52.5-148.1-200.4-148.1-200.4s-27.9-39.9-38.6-93.2
		s-29.9-203.5-126.4-370.6S2615,118.8,2574.1,82.8s-61.4-80-61.4-80s-73.5-168.5-99.5-228.4s-88.6-76.2-88.6-76.2
		c-220.5-59.6-354.2-52.1-354.2-52.1s-133.7-7.4-354.2,52.1c0,0-62.6,16.3-88.6,76.2S1428.2,2.8,1428.2,2.8s-20.6,44.1-61.4,80
		S1205.5,210.5,1109,377.6S993.3,694.9,982.6,748.3S944,841.5,944,841.5s-109.2,147.9-148.1,200.4s-21.7,114.8-21.7,114.8
		c58.7,220.8,131.9,332.8,131.9,332.8s60.4,119.5,222.2,280.7c0,0,45.4,46.1,110.3,38.7s247.6-28,247.6-28s48.5-4.2,100,13.2
		s191.2,75.8,384.2,75.8s332.6-58.4,384.2-75.8s100-13.2,100-13.2s182.7,20.6,247.6,28s110.3-38.7,110.3-38.7
		c161.8-161.2,222.2-280.7,222.2-280.7s73.3-112,131.9-332.8C3166.7,1156.7,3183.9,1094.3,3145,1041.8z"/>
	<path class="st1" d="M1262.7,1324.9l41.9-24.2 M1098.4,1419.8l97.5-56.3 M1135.2,1253.7l-207.1,119.6 M1017.8,1528.6l-0.6,0.4
		l-0.6,0.4l-0.5,0.4l-0.5,0.3l-0.1,0.1 M928.1,1373.3l-0.6,0.3l-0.6,0.3l-0.6,0.3l-0.5,0.3l-0.1,0.1 M1347.8,1130.2L1347.8,1130.2
		 M1402.4,1098.7l-0.5-1 M1347.7,1130.1l-6.7,4 M1404.6,1096.1l0.6,1 M1507.8,1113.7l3.2,5.3 M1417.4,1059.2l13.4,23.2
		 M1446.1,1074.2l-13.7-23.7 M1311.9,1298.5l-49.7,28.7 M1477.6,1072.5l-8.7-15 M1513.2,1200.7l1.2,2.1l2,3.4l2.2,3.8l2.4,4.1
		l2.5,4.3 M1115.3,1502.5l-66.8,38.6 M1199.2,1236.3l-7.2-12.2 M1192,1224l-7.6,4.4l-9.1,5.2l-9.7,5.6l-9.5,5.5l-8.4,4.9l-6.6,3.8
		l-4.3,2.5l-1.5,0.9 M1142.8,1274.3l-10,5.8l-8,4.6l-5.7,3.3l-3.2,1.8l-0.6,0.3 M1142.7,1274.3l0.3-0.7l0.5-0.4l0,0 M1161.5,1262.8
		L1161.5,1262.8l-0.5,0.4l-0.3,0.7 M1166.7,1256.3L1166.7,1256.3l0.3-0.5l0.4-0.4l0.5-0.3 M1278.6,1174l-84.2,48.6 M1194.4,1222.6
		l7.2,12.3 M1243.9,1268.2l-3.2-5.3 M1241.1,1262.7l2.7,4.6 M1397,1173.1l0.1-0.1l0.1-0.1 M1354.2,1130.4l-8.5,4.9l-10.1,5.8
		l-11.1,6.4l-11.3,6.5l-10.7,6.2l-9.4,5.4l-7.4,4.3l-4.9,2.8l-2.1,1.2h-0.1 M1468.9,1078.4h-0.5 M1159,1309.7l-17.2-31.9
		 M1577.7,1018.5l-0.6,0.3l-3.2,1.8l-5.8,3.3l-8.1,4.7l-10.1,5.8l-11.5,6.6l-12.3,7.1l-12.5,7.2l-12.1,7l-11.1,6.4 M1596.5,1127.1
		l8.1-4.7l5.7-3.3l2.8-1.6l0.2-0.1 M1631.5,1085.7l-0.6,0.3l-3.2,1.9l-5.9,3.4l-8.4,4.8l-10.5,6.1 M1602.6,1100.7l10.6-6.1l8.5-4.9
		l6-3.5l3.3-1.9l0.6-0.3 M1541.4,1161.1l-157.9,91.1 M1389.4,1266.3l1.6,3.1 M1390.6,1269.6l0.2-0.1l0.2-0.1 M1348,1213.1
		L1348,1213.1 M1272.5,1312.5L1272.5,1312.5L1272.5,1312.5L1272.5,1312.5l0.2-0.1l0.1-0.1l0.2-0.1l0.2-0.1 M1390.7,1269.8
		L1390.7,1269.8l0.1,0.2v0.3v0.3l-0.1,0.3l-0.1,0.2l-0.2,0.2l-0.2,0.2 M1384.2,1252.2L1384.2,1252.2l0.1,0.2v0.3v0.3l-0.1,0.3
		l-0.1,0.2l-0.2,0.2l-0.2,0.2 M1377.1,1279.3h0.1 M1302.9,1301.3l74.4-22 M1306,1297.6l73.3-21.5 M1305,1299L1305,1299 M1308,1293.8
		l-0.1,0.2l-0.2,0.2l-0.2,0.1 M1197.5,1426.8l17.4,30.2 M1469.8,1269.6l17.4,30.2 M1034.7,1546l-1.3,0.1l-1.7-0.5l-1-0.4l-2.1-1.3
		l-5-4.2l-5.7-6.3l-4.2-5.7l-3.6-5.3l-14-21.3l-51.4-88.3l-17.9-35.6l-3.4-8.1l-2.3-7.5l-0.9-6.2l0.1-2.4l0.2-1l0.3-0.8l0.8-1.2
		 M913.6,1354.5l-0.7,0.8l-0.5,1.2l-0.3,2.2l0.6,6.2l2.3,7.7l1.9,4.5l2.2,4.5l1.1,2.2l2.2,4.5l8.9,17.8l2.3,4.4l4.6,8.8l4.7,8.8
		l9.6,17.4l4.9,8.6l10,17.2l5.1,8.5l10.4,16.9l2.7,4.2l5.4,8.4l15.2,22.9l2.8,4.1l4.4,5.7l4.5,4.4l4.7,3.3l2,0.8l1.3,0.2l1-0.2
		 M1636,1212.2l9.7-3.7 M1524,985l-2.5,3.3l-10.3,7.7 M1696.1,1219.2l37.5,26.8l64.7,34.1l35.2,13.2l36.2,10.2l49.7,8.7l51,3
		 M1693.2,1216.9l2.9,2.3 M1693.2,1216.9l-14.1-8.1l-15.8-3.1l-15.4,1.9l-11.5,5 M1970.4,1315.2v50.7 M1589.3,655l-6.6,11.8
		l-27.1,61.4l-17.5,64.8l-7.4,66.7l2.7,67l1.9,13.9 M1589.3,655l-10.3-6l-12.1-7l-21.5-12.4 M1511,995.6l13.2-10.8l8.9-14.9
		l3.3-16.2l-0.6-9.6 M1535.2,940.5l0.6,3.7 M2395.5,629.6l-11.9,6.9l-12.1,7l-19.8,11.5 M885.8,1351.9l-1.4,6.2l1.1,10.1l3.6,12.8
		l6,14.5l43.5,81.7l43.4,68.9l8.5,11.2l8.6,9.2l8,6.4l6.6,2.9l1.4,0.1 M1046.1,1256l465.2-260 M1511.2,996l-0.2-0.4 M1511,995.6
		l-29.1,16.3l-13.2,7.4 M913.6,1354.5l7.9-4.6 M921.5,1349.9l69.1-59.6 M990.6,1290.3l6.1-4.5l10.5-6.8l13.7-8.4l15.4-9l9.8-5.6
		 M1594.6,1237.4l41.7-24.8 M1636.3,1212.6l-0.2-0.4 M1636.1,1212.2l-303.8,181.1l-154,91.8 M1178.2,1485l-15.4,9l-15.2,8.5
		l-13.3,7.1l-9.8,4.8l-3.8,1.6 M1120.8,1515.9l-86.2,30 M1034.7,1545.9l-7.9,4.6 M1361.6,1778.7l-35.4-24.9l-34.4-26.3l-33.3-27.6
		l-32.2-28.9l-31-30.2l-29.8-31.4l-28.5-32.6l-27.2-33.7 M1531.7,1765.8 M961.5,1286.4l-15.5-40.4l-13.9-41l-12.3-41.5l-10.6-42
		l-9-42.4l-7.3-42.7l-5.6-42.9l-3.8-42.1 M1876.1,1865.2l-93.5-13.4l-91.8-22.2l-89.3-30.8 M979.5,809.5 M1601.6,1798.8l-34.6-11.1
		l-35.8-6.2 M1526.1,1765.4l-26.7-1.7l-32.6,2 M911.3,1486.5l-5.1,2.9 M977.3,814.1l-9.9,20c-1.5,3-3.1,5.8-4.9,8.6l-15.2,23.1
		 M1468.7,1019.3l-186.2,104.1l-183.9,102.8l-50.8,28.4 M1468.7,1019.3l-4.7-8l-4.6-8 M1044.9,1235l-23.3,13.3l-22.5,13.4l-19.2,12
		l-13.6,9.2l-4.8,3.7 M961.5,1286.6l-19.8,17l-31.3,27l-13.7,11.8l-2.7,2.3l-2.7,2.3l-2.7,2.3l-2.8,2.6 M885.8,1352l15.6,1.4
		l12.3,1.2 M914.1,1354.2l-0.5,0.4 M983.2,1294.6l-34.5,29.7l-34.7,29.7 M1047.8,1254.5l-16.1,9.2l-17.5,10.4l-15.2,9.4l-11,7.3
		l-4.7,3.6 M1594.7,1237.4l4.7,8l4.6,8 M1180.5,1484.2l50-29.8l181-107.9l183.2-109.2 M1113.6,1520.2l7.1-3l12.3-6.2l16.3-8.8
		l17.9-10.2l13.2-7.7 M1027.4,1550.3l43.2-15.1l42.9-15 M1026.8,1550.5l0.6-0.2 M1015.1,1575.9l6.6-14.2l5.1-11.2 M1015.1,1575.9
		l4.7-1.4l4.4-1.5l4.4-1.5l4.4-1.5l4.4-1.5l17.1-6l30.7-10.7l24.6-8.6 M1109.6,1543l10.4-4.6l16.6-8.4l21.2-11.5l23.3-13.3l14.8-8.7
		 M1588.4,2071.6l8.9-11.2 M1555.9,1991.9l0.7,10.4l2.1,10.2l3.5,9.8l4.8,9.3l6,8.6l7.1,7.8l8.1,6.8l9,5.7 M1555.9,1796v195.9
		 M1537.9,1987.9l18,3.9 M1555.9,1785.8v10.3 M1101.1,1480.4l-13-22.4 M1088.1,1458l-2.3-5l-1.3-5.3l-0.2-5.5l0.9-5.4l1.9-5.1
		l2.9-4.7l3.8-4l4.5-3.2 M1017.7,1528.6l83.3-48.1 M1115.2,1502.6l-0.6-0.5l-1-1.3l-1.4-2.1l-1.8-2.7l-2.1-3.3l-2.3-3.8l-2.4-4.1
		l-2.5-4.3 M1401.9,1097.8l-54.2,32.4 M1401.9,1097.8l0.5-0.3l0.5-0.3l0.5-0.3l0.4-0.2l0.3-0.2l0.3-0.1l0.2-0.1h0.1 M1395.4,1073.7
		l-0.8,2.9 M1476.3,1221.8l36.5,64 M1394.6,1076.7l0.1,0.7l0.5,1.3l0.9,1.9l1.2,2.5l1.5,2.9l6.3,11.3 M1417.4,1059.3l-4.3,2.5
		l-4.1,2.5l-3.8,2.3l-3.3,2.1l-2.7,1.8l-2,1.5l-1.3,1.1l-0.5,0.6 M1432.4,1050.7l-15,8.6 M1455.8,1038.9l-0.8,0.1l-1.6,0.6l-2.3,1
		l-3,1.4l-3.5,1.8l-3.9,2.1l-4.2,2.3l-4.3,2.5 M1159.8,1398.2l-3.8-7.4 M1156,1390.8L1156,1390.8L1156,1390.8l0.2-0.2l0.2-0.1
		l0.2-0.1l0.3-0.2l0.3-0.2l0.3-0.2 M1261.3,1329.8l58.1-33.6 M1157.4,1389.8l43.5-25.1 M1468.9,1057.5l-2.1-3.6l-2-3.4l-1.9-3.2
		l-1.8-2.8l-1.5-2.3l-1.2-1.7l-0.9-1.1l-0.5-0.4 M1457,1039.1l-1.2-0.3 M1097.1,1420.7l16.2,4.3 M1103.7,1460.9l-16.2-4.3
		 M1128.3,1503.5l-24.6-42.6 M1113.3,1425.1l-4.2,3l-3.5,3.8l-2.7,4.4l-1.8,4.8l-0.8,5.1l0.2,5.1l1.2,5l2.1,4.7 M1126.4,1447.8
		l-4.3,2.5l-4.2,2.4l-3.8,2.2l-3.4,2l-2.8,1.6l-2.2,1.3l-1.4,0.8l-0.6,0.4 M1194.7,1466.8l-23-45.1 M1126.4,1447.8l25.3,43.8
		 M1159.7,1398.3l0.3,0.7l0.7,1.5l1.1,2.2l1.5,2.9l1.8,3.5l2,4l2.2,4.3l2.3,4.4 M1113.2,1425.1l46.5-26.8 M1126.4,1447.9l-2.5-4.3
		l-2.4-4.2l-2.2-3.8l-2-3.4l-1.6-2.8l-1.3-2.2l-0.8-1.4l-0.4-0.6 M1171.6,1421.7l-45.3,26.1 M1547.4,1260.3l-24-41.7 M1535.8,1187.7
		l33.6,58.2 M1523.4,1218.7l-36.8,21.3 M1546.1,1205.5l-0.6,0.4l-1.4,0.8l-2.2,1.3l-2.8,1.6l-3.4,2l-3.8,2.2l-4.1,2.4l-4.3,2.5
		 M1127.7,1505.9l0.3-0.2l0.2-0.3l0.2-0.3l0.1-0.3l0.1-0.3v-0.3l-0.1-0.3l-0.1-0.3 M1194.7,1466.8l0.2,0.3l0.2,0.3l0.1,0.3l0.1,0.2
		l0.1,0.2l0.1,0.2v0.1l0,0 M1152.5,1493.1L1152.5,1493.1L1152.5,1493.1l-0.1-0.2l-0.1-0.2l-0.1-0.2l-0.2-0.3l-0.2-0.3l-0.2-0.3
		 M1506.7,1288.8L1506.7,1288.8l-0.2-0.3l-0.2-0.3l-0.3-0.5l-0.4-0.6l-0.4-0.6l-0.4-0.7l-0.4-0.7 M1575.3,1247.4l-0.8,0.3l-0.8,0.2
		h-0.9l-0.8-0.1l-0.8-0.3l-0.7-0.4l-0.6-0.6l-0.5-0.7 M1549.7,1264L1549.7,1264l-0.2-0.3l-0.2-0.4l-0.3-0.5l-0.3-0.6l-0.4-0.6
		l-0.4-0.7l-0.4-0.7 M1195.5,1468.2l311.2-179.7 M1195.5,1468.3l-42.9,24.8 M1152.6,1493.1l-4.6,2.6l-4.5,2.5l-4.2,2.3l-3.7,1.9
		l-3.1,1.6l-2.4,1.1l-1.7,0.7l-0.8,0.2 M1127.7,1505.9l-12.4-3.3 M1188.1,1222.4l0.2-0.1l1.4-0.8l1.6-0.9l1.7-1l1.5-0.9
		 M1194.4,1222.6l-0.6,0.3l-0.6,0.3l-0.6,0.4l-0.5,0.3l-0.1,0.1 M1136.6,1252.1l0.5-0.3l3.2-1.8l5.7-3.3l7.7-4.4l8.9-5.2l9.3-5.4
		l8.7-5l7.3-4.2 M1192,1224l-0.4-0.5l-0.5-0.5l-0.5-0.4l-0.5-0.3l-0.5-0.2h-0.5l-0.5,0.1l-0.4,0.2 M1160,1323.7l-5.9,3.4l-8.8,5.1
		l-6.3,3.6l-3.5,2l-0.7,0.4 M1141.9,1277.8l-10.6,6.1l-8.5,4.9l-6.1,3.5l-3.3,1.9l-0.7,0.4 M1194.5,1218.8l85.5-49.4 M1194.4,1222.7
		l-0.3-0.6l-0.2-0.6l-0.1-0.6v-0.6v-0.5l0.1-0.4l0.2-0.3l0.3-0.2 M1278.6,1241.5L1278.6,1241.5 M1350.2,1128.9l0.3-0.2l1.4-0.8
		l1.6-0.9l1.7-1l1.5-0.9 M1356.6,1129l-0.6,0.3l-0.7,0.3l-0.6,0.4l-0.5,0.3l-0.1,0.1 M1362.8,1139.4l-0.3,0.2l-0.3,0.2l-0.3,0.2
		l-0.3,0.2l-0.3,0.2l-0.3,0.2l-0.3,0.2l-0.3,0.1 M1280,1169.4L1280,1169.4l2.1-1.1l4.6-2.6l6.9-4l8.7-5l9.9-5.7l10.5-6l10.3-6
		l9.4-5.4l7.9-4.5 M1354.2,1130.4l-0.4-0.5l-0.4-0.5l-0.5-0.4l-0.5-0.3l-0.6-0.2h-0.5l-0.5,0.1l-0.5,0.2 M1360.4,1140.9l-2.2-3.8
		l-4-6.7 M1285.2,1186.1l-0.7-1.4 M1284.5,1184.7l2.8-1.6l5.4-3.1l7.6-4.4l9.4-5.4l10.6-6.1l11-6.4l10.8-6.2l9.9-5.7l8.3-4.8
		 M1284.5,1184.7L1284.5,1184.7l0.4,0.4l0.3,0.7l-0.1,0.5v0.1l-0.2,0.3v0.1l-0.2,0.1l-0.2,0.1 M1360.3,1140.9l0.2,0.3l0.3,0.3
		l0.3,0.2l0.3,0.2l0.3,0.1h0.3h0.3l0.3-0.1 M1356.7,1125.2l82.7-47.8 M1356.6,1129l-0.3-0.6l-0.2-0.6l-0.1-0.6v-0.6v-0.5l0.1-0.4
		l0.2-0.3l0.3-0.2 M1472.2,1073.7L1472.2,1073.7h-0.3l-0.3,0.1 M1439.3,1081.3l-82.7,47.8 M1356.6,1129l2.7,4.6l3.4,5.8
		 M1439.3,1077.4l0.6-0.3 M1474.9,1074.6l-3.3-0.8 M1471.6,1073.8l-8.4-1.6h-8.3l-7.8,1.6l-7.2,3.2 M1439.3,1077.3l7.2-3.2l7.7-1.6
		l8,0.1l8.1,1.7 M1439.3,1081.2l-0.3-0.6l-0.2-0.6l-0.1-0.6v-0.6v-0.5l0.1-0.4l0.2-0.3l0.3-0.2 M1468.2,1078.5l-7.6-1.6l-7.5-0.1
		l-7.2,1.4l-6.7,2.9 M1470.3,1074.4l2.8,1.2 M1468.2,1078.5l0.1-0.6l0.2-0.7l0.2-0.6l0.3-0.6l0.3-0.5l0.3-0.4l0.3-0.3l0.3-0.2
		 M1362.7,1139.4l105.5-60.9 M1362.7,1139.4l0.2,0.4l0.1,0.4l0.1,0.4v0.3v0.3l-0.1,0.3l-0.1,0.2l-0.2,0.2 M1168.6,1253.8
		l322.4-186.2 M1168.6,1253.8l-0.1,0.1l-0.1,0.1l-0.1,0.1l-0.1,0.1l-0.1,0.2l-0.1,0.2l-0.1,0.2v0.2 M1167.9,1255l-0.5,1.2l-0.7,1.3
		l-0.8,1.3l-0.9,1.3l-1,1.2l-1.1,1.1l-1.1,0.9l-1.1,0.7 M1160.7,1263.9l-18,10.4 M1142.7,1274.3l-0.9,3.5 M1490.4,1068.8
		L1167.9,1255 M1244.1,1260.9l-9,5.2 M1505.4,1110.1l-227.3,131.2 M1488.1,1077.9l-346.2,199.9 M1572.7,1076.3l-1.2-2.4
		 M1572.7,1076.3l-9.1,5.2l-10.3,5.9l-10.8,6.2l-10.6,6.1l-9.7,5.6l-8.1,4.7l-6,3.5l-3.5,2l-0.8,0.5 M1571.7,1071.8l-0.3,0.3
		l-0.2,0.4v0.5l0.1,0.6l0.1,0.3 M1491.2,1067.7l-0.1,0.1l-0.1,0.1l-0.1,0.1l-0.1,0.1l-0.1,0.2l-0.1,0.2l-0.1,0.2v0.2 M1491.2,1067.7
		l10.8-6.2l11.7-6.8l12.1-7l11.9-6.9l11.1-6.4l9.7-5.6l7.9-4.5l5.6-3.2l3.1-1.8l0.6-0.3 M1488,1077.9l2.3-9 M1591,1018.5l-0.2,0.1
		l-2.4,1.4l-5.2,3l-7.7,4.5l-9.9,5.7l-11.7,6.8l-13,7.5l-13.7,7.9l-13.8,8l-13.3,7.7l-12.2,7 M1505.3,1110.2l-17.3-32.2
		 M1611,1049.1l-0.2,0.1l-2.4,1.4l-5.3,3.1l-7.9,4.6l-10.2,5.9l-12,6.9l-13.3,7.7l-14,8.1l-14.1,8.2l-13.6,7.9l-12.5,7.2
		 M1170.3,1358.3l-2,1.1l-1.3,0.7l-0.6,0.3l0,0 M1170.2,1358.3l7.8-4.5 M1167.6,1357.2l0.1,0.8l0.2,0.3l0.3,0.2l0.3,0.1h0.3h0.3
		l0.5-0.1l0.7-0.3 M1159.7,1344.1l0.9,1.8l0.6,1.7l0.3,1.5v1.3l-0.5,1h-0.9l-1.5-1.3l-1-1.3l-0.9-1.3l-0.8-1.3l-0.7-1.3l-0.7-1.4
		l-0.7-1.7l-0.3-1.7l0.5-0.8l1.2,0.2l1.4,0.8l1.3,1.3l1.3,1.8L1159.7,1344.1 M1167.6,1357.2l2-7.8l1.4-2.7 M1477.2,1055.5l0.3-0.2
		l2.7-1.6l5.3-3.1l7.6-4.3l9.1-5.3l10-5.8l10-5.8l9.2-5.3l7.7-4.5l5.6-3.2l3-1.7l0.4-0.3 M1552.1,1015.6l-0.2,0.1l-2.5,1.4l-5.1,2.9
		l-7.3,4.2l-9,5.2l-10,5.8l-10.3,6l-9.8,5.7l-8.6,5l-6.8,3.9l-4.4,2.6l-1.7,1l0,0 M1468.6,1077.8L1468.6,1077.8l2.2-1.3l4.8-2.8
		l7.2-4.2l9.2-5.3 M1492,1064.3l10.7-6.2l11.7-6.7l12-6.9l11.7-6.7l10.7-6.2l9.2-5.3l7.1-4.1l4.7-2.7l2-1.2h0.1 M1601.1,1067.1
		l-0.3,0.1h-0.3h-0.3l-0.3-0.1l-0.3-0.1l-0.3-0.2l-0.2-0.2l-0.2-0.3 M1597.6,1064.1l1.4,2.3 M1578,1075.3l19.6-11.3 M1585.5,1133.7
		l-1,0.6 M1553.7,1177.3l-0.6,0.3l-0.6,0.4l-0.6,0.4l-0.6,0.3l-0.6,0.3 M1550.7,1177.1l0.3-0.2l0.3-0.2l0.3-0.2l0.3-0.2l0.3-0.2
		 M1558.3,1174.7l-2,1.2 M1558.3,1174.7l0.5-0.4l0.4-0.5l0.3-0.6 M1543,1160.2l-0.2,0.1l-0.2,0.1l-0.2,0.1l-0.2,0.1l-0.2,0.1
		l-0.2,0.1l-0.2,0.1l-0.2,0.1 M1556.3,1175.8l-2.5,1.5 M1553.7,1177.3h-0.1h-0.2l-0.2-0.1l-0.2-0.1l-0.2-0.2l-0.2-0.2l-0.2-0.3
		l-0.2-0.3 M1556.2,1175.8h-0.1h-0.2l-0.2-0.1l-0.2-0.1l-0.2-0.2l-0.2-0.2l-0.2-0.3l-0.2-0.3 M1557.5,1174.4l-0.3,0.6l-0.4,0.5
		l-0.5,0.4 M1612.7,1117.9l-0.2,0.1l-2.7,1.6l-5.6,3.2l-7.9,4.6 M1596.2,1127.4l-10.8,6.2 M1596.5,1126.9l-0.2,0.3l-0.1,0.1h-0.1
		 M1585.7,1133.1L1585.7,1133.1v0.1v0.1v0.1v0.1l0,0l0,0h-0.1 M1559.8,1173h0.2l0.1-0.1l0,0 M1579.5,1140.7h0.2l0.1-0.1l0,0
		 M1576.4,1142.5h-0.2h-0.2h-0.2l-0.2-0.1l-0.3-0.1l-0.3-0.1l-0.3-0.1l-0.2-0.2 M1557.8,1174.3h-0.2h-0.2h-0.2l-0.2-0.1l-0.3-0.1
		l-0.3-0.1l-0.3-0.1l-0.2-0.2 M1543.2,1160.1l9.2,16.1 M1552.4,1176.2l2.5-1.5 M1554.9,1174.8l0.4-0.3l0.3-0.3l0.3-0.4
		 M1555.9,1173.8l18.7-31.8 M1541.7,1159.1l0.1-0.1h0.2l0.2,0.1l0.2,0.1l0.2,0.2l0.2,0.2l0.2,0.3l0.2,0.3 M1574.6,1142l-31.4,18.1
		 M1576.8,1138.8l0.3-0.2h0.2v0.2l-0.2,0.4l-0.4,0.5l-0.6,0.7l-0.7,0.8l-0.8,0.9 M1603.2,1102.1L1603.2,1102.1 M1603.2,1102.1v-0.5
		l-0.1-0.5l-0.1-0.3l-0.1-0.2 M1618.3,1057.1l-1.3,0.7l-3.9,2.3l-6.4,3.7l-8.6,5l-10.5,6.1 M1601.8,1101.3l1.1-0.6 M1550.9,1179.1
		l-159.9,92.2 M1550.6,1179.2l0.1-0.1l0.1-0.2l0.1-0.2v-0.3v-0.3l-0.1-0.3l-0.1-0.3l-0.1-0.3 M1391,1269.3l159.6-92.1
		 M1550.6,1177.2l-9.2-16.1 M1541.3,1159.2l-0.2,0.1l-0.1,0.2l-0.1,0.2v0.3v0.3l0.1,0.3l0.1,0.3l0.2,0.3 M1391,1271.3l-0.5,0.3
		l-0.4,0.2l-0.2,0.1 M1391,1269.3l0.2,0.3l0.1,0.3l0.1,0.3v0.3v0.3l-0.1,0.2l-0.1,0.2l-0.2,0.1 M1379.3,1278l-1.9,1.1
		 M1377.4,1279.1L1377.4,1279.1L1377.4,1279.1L1377.4,1279.1L1377.4,1279.1L1377.4,1279.1L1377.4,1279.1 M1390.1,1271.8l-3.2,1.8
		 M1390.1,1271.8L1390.1,1271.8L1390.1,1271.8L1390.1,1271.8L1390.1,1271.8L1390.1,1271.8v-0.1v-0.1v-0.1 M1386.6,1273.8
		L1386.6,1273.8 M1381.9,1276.5l-2.7,1.6 M1379.1,1278.1L1379.1,1278.1L1379.1,1278.1L1379.1,1278.1L1379.1,1278.1L1379.1,1278.1
		L1379.1,1278.1L1379.1,1278.1 M1379.3,1278l0.2-0.1l0.1-0.2l0.1-0.2v-0.3v-0.3l-0.1-0.3l-0.1-0.3l-0.1-0.3 M1386.8,1273.7
		L1386.8,1273.7L1386.8,1273.7L1386.8,1273.7L1386.8,1273.7l0.1-0.1v-0.1v-0.1v-0.1 M1386.5,1273.8l-0.3,0.1l-0.3,0.1h-0.3h-0.3
		l-0.3-0.1l-0.3-0.2l-0.3-0.2l-0.2-0.3 M1386.5,1273.8L1386.5,1273.8l-0.3,0.2l-0.3,0.2l-0.4,0.2l-0.5,0.3l-0.5,0.3l-0.6,0.3
		l-0.6,0.3l-0.6,0.3l-0.6,0.3l-0.5,0.3 M1386.5,1273.8l-0.3,0.1l-0.3,0.1h-0.3h-0.3l-0.3-0.1l-0.3-0.2l-0.3-0.2l-0.2-0.3
		 M1381.8,1276.6l0.1-0.1l0.1-0.2l0.1-0.2v-0.3v-0.3l-0.1-0.3l-0.1-0.3l-0.1-0.3 M1381.8,1274.6l0.3-0.1l0.3-0.1l0.3-0.2l0.3-0.2
		l0.3-0.2l0.3-0.2l0.2-0.1l0.2-0.1l0.1-0.1l2.2-1.4l-2,1.3 M1335.5,1213.8l2.8-1l5.2,0.3l2.1,0.8 M1275.9,1312.4l-0.4,0.2l-0.3,0.2
		l-0.2,0.1l-0.2,0.1l-0.1,0.1h-0.1l0,0 M1384.2,1273.2L1384.2,1273.2 M1386.9,1273.4l-0.3,0.2l-0.3,0.2l-0.4,0.1h-0.4l-0.4-0.1
		l-0.3-0.1l-0.3-0.2l-0.2-0.3 M1576.3,1139l-191.4,110.5 M1576.6,1138.5L1576.6,1138.5v0.1v0.1v0.1l0,0l0,0l0,0l0,0 M1385.2,1249.3
		L1385.2,1249.3L1385.2,1249.3L1385.2,1249.3L1385.2,1249.3L1385.2,1249.3l0.1-0.1v-0.1v-0.1 M1384,1252v-0.4v-0.4v-0.4l0.1-0.3
		l0.2-0.3l0.2-0.3l0.2-0.2l0.3-0.2 M1377.1,1279.3l1.9-1.1 M1304.9,1299.9l-0.5,0.4l-0.8,0.5l-1.2,0.6 M1379.2,1276.1l2.7-1.6
		 M1378.9,1278.2l-74,21.7 M1378.9,1278.2l0.2-0.1l0.1-0.2l0.1-0.2v-0.3v-0.3v-0.3l-0.1-0.3l-0.1-0.3 M1304.9,1299.9l0.1-0.1
		l0.1-0.1l0.1-0.1l0.1-0.2v-0.2v-0.2v-0.2v-0.2 M1304.8,1299.9l-0.2,0.1h-0.1 M1304.8,1299.1v0.3v0.1v0.1v0.1v0.1l-0.1,0.1l-0.1,0.1
		 M1305.4,1298.4l-0.4,0.6 M1304.9,1299.1l-0.8,1l-1.2,0.9l0,0 M1302.9,1301L1302.9,1301l0.3-0.3 M1307.8,1294l-0.1,0.2l-0.2,0.2
		l-0.2,0.2 M1303.8,1300.6l0.4-0.2l0.5-0.4 M1304.7,1300l-1.8,1 M1302.9,1301l1.8-1.7l1.5-2.2l1.2-2.5 M1307.3,1294.6l0.1-0.2
		 M1307.4,1294.4l-9.8,5.7 M1601.4,1101.4l0.1,0.2l0.1,0.2l0.1,0.2v0.2v0.2v0.3v0.2 M1587.3,1075l-232.9,134.5 M1368.6,1235.9
		l232.9-134.5 M1601.5,1101.4l-14.2-26.4 M1290.6,1246.3l-3.2-0.7l-1.9-0.7l-2-1 M1274.9,1248.9l8.5-4.9 M1284,1250.1L1284,1250.1
		 M1304.3,1296.2l-6.2,3.6 M1283.9,1250.2l-0.9,0.4l-1,0.3l-1.1,0.1l-1.1-0.1l-1.2-0.3l-1.2-0.4l-1.2-0.6l-1.3-0.7 M1274.9,1249
		l-5-2.6l-4.8-1.3h-4.4l-3.9,1.4l-1.8,1.3 M1273.2,1312.2l0.2,0.2l0.3,0.2l0.5,0.2h0.9l1.1-0.4 M1276.5,1312.2l-0.4,0.2
		 M1290.1,1308.4l2-0.9l1.8-1.3l1.6-1.7l1.3-2l1-2.4 M1297.7,1300.1L1297.7,1300.1v-0.1v-0.1l0,0l0,0l0,0l0,0l0,0 M1374.7,1255.5
		l-56.4,32.6 M1375,1255.1L1375,1255.1v0.1v0.1v0.1v0.1v0.1l0,0h-0.1 M1318.9,1287.6L1318.9,1287.6v0.1v0.1v0.1v0.1l0,0l0,0h-0.1
		 M1318.8,1287.9l-1.9,1.1l-1.8,1.1l-1.8,1l-1.8,1l-1.8,1l-1.8,1l-1.7,1l-1.7,1 M1318.8,1287.8h-0.1h-0.1l-0.2-0.1l-0.2-0.1
		l-0.2-0.2l-0.2-0.2l-0.2-0.3l-0.2-0.3 M1304.5,1296.1l1-0.9l0.2-0.4l0.1-0.7v-0.3l-0.1-0.3 M1585.9,1133.3l-0.6,0.4l-0.7,0.7
		l-0.8,0.8l-0.9,1l-0.9,1.1l-0.9,1.2l-0.8,1.2l-0.8,1.2 M1585.9,1133.3l10.8-6.2 M1596.7,1127.1l6.4-24.8 M1603.1,1102.3l-1.1,0.6
		 M1602.1,1102.9l-232.9,134.5 M1319.1,1287.4l56.4-32.6 M1379.7,1256.3l-0.3-0.6l-0.4-0.5l-0.5-0.4l-0.6-0.3l-0.6-0.1h-0.6
		l-0.6,0.1l-0.6,0.3 M1379.7,1256.3l7.6,17 M1387.3,1273.3l3.2-1.8 M1390.5,1271.4l-6.5-17.6 M1384,1253.8l-0.2-0.7l-0.1-0.7v-0.7
		l0.2-0.7l0.3-0.6l0.4-0.6l0.5-0.5l0.5-0.4 M1385.6,1249l191.4-110.5 M1577,1138.5l0.5-0.2h0.3l0.2,0.3v0.5l-0.2,0.7l-0.3,0.9
		l-0.5,1l-0.6,1.1 M1576.3,1142.7l-18.7,31.8 M1557.6,1174.5l2-1.2 M1559.6,1173.3l19.7-32.4 M1317.4,1286.6l0.2,0.2l0.2,0.1
		l0.2,0.1l0.2,0.1l0.2,0.1l0.2,0.1h0.2h0.2 M1369,1237.3l-10.5,7l-10.6,8.8l-10.4,10.4l-9.8,11.6l-8.8,12.3 M1368.7,1235.8l0.1,0.2
		l0.1,0.2l0.1,0.2l0.1,0.2v0.2v0.3v0.2 M1305.6,1293.4l-21.6-43.3 M1305.5,1293.4l1.4-0.8l1.4-0.8l1.4-0.8l1.5-0.8l1.5-0.8l1.5-0.9
		l1.5-0.9l1.5-0.9 M1317.2,1286.7l1.9-2.8l8.2-11l18-19.4l19-15l4.3-2.6 M1368.6,1235.8l-14.2-26.4 M1354.4,1209.4l-8,4.6l-8.5,4.9
		l-8.9,5.2l-9.2,5.3l-9.2,5.3l-9.1,5.3l-8.9,5.1l-8.5,4.9 M1291.9,1307.2l1.2-0.8l3.8-4.9l1.8-7l-0.4-8.6l-2.5-9.4l-4.4-9.4
		 M1291.3,1267.1l-5.9-8.5l-6.9-6.9l-7.3-4.7l-7-2l-6.1,0.8l-1.3,0.7 M1263.4,1305.3l4.2,3.1l7.2,3.4l6.6,0.6l5.4-2.2l3.8-4.9
		l1.8-7.1l-0.4-8.6l-2.5-9.4l-4.4-9.4 M1285,1270.7l-5.9-8.5l-6.9-6.9l-7.3-4.7l-7-2l-6.1,0.8l-4.7,3.6l-2.8,6l-0.7,7.9l0.6,5.2
		 M1270.5,1299.3l2.6-3l0.8-4.9l-1-6l-2.7-6.2 M1270.3,1279.2l-4-5.4l-4.7-3.9l-4.7-1.7l-3.9,0.7 M1313.2,1319.6l0.5-0.3l1.6-0.9
		l2.4-1.4l3.1-1.8 M1425,1260.1l5.6-3.2l4.1-2.4l2.5-1.5l0.8-0.5 M1260.7,1331.7l2.1-1.2l4.8-2.8l2.1-1.2h0.1 M1193.8,1370.3
		L1193.8,1370.3l2.2-1.3l4.8-2.7l2.1-1.2 M1257.5,1338.6l9.6-5.5l8.4-4.9l6.3-3.7l3.9-2.3l1.3-0.8 M1180.8,1382.8l1.3-0.8l3.9-2.3
		l6.3-3.7l8.4-4.8l9.6-5.5 M1185.2,1428.8l0.2-0.1l0.6-0.3l0.9-0.5l1.3-0.7l1.5-0.9l1.7-1l1.9-1.1l2-1.1 M1185.3,1428.8l2.2,3.8
		 M1195.4,1423.1l42.1-24.3 M1195.4,1423.1l2.2,3.8 M1467.7,1265.8l2-1.1l1.9-1.1l1.7-1l1.5-0.9l1.2-0.7l0.9-0.5l0.6-0.3l0.2-0.1
		 M1477.8,1260l2.2,3.8 M1320.9,1315.2l0.1-0.1l0.4-0.3l0.7-0.4l0.9-0.6l1.2-0.7l1.3-0.8l1.4-0.8l1.5-0.9 M1422.9,1256.3l15.3,26.6
		 M1415.3,1260.7l1.5-0.9l1.4-0.8l1.3-0.8l1.2-0.7l0.9-0.5l0.7-0.4l0.4-0.3l0.2-0.1 M1259.5,1355.7l71.1-41.1 M1467.7,1265.8
		l2.2,3.8 M1430.6,1287.2l37.1-21.4 M1415.3,1260.7l15.3,26.6 M1328.4,1310.8l86.8-50.1 M1328.4,1310.8l2.2,3.8 M1169.7,1407.5
		l1.5-0.8l4.3-2.5l7-4.1l9.4-5.4l11.5-6.6l13-7.5l14.1-8.1l14.5-8.4l14.4-8.3 M1237.4,1398.8l2.2,3.8 M1259.4,1355.7l15.3,26.6
		 M1193.6,1464.5l11.3-6.5 M1504.4,1285l-11.2,6.5 M1182.3,1435.6l0.3-0.2l0.9-0.5l1.4-0.8l1.9-1.1l2.3-1.3l2.6-1.5l2.8-1.7l3-1.7
		 M1204.9,1458l2.1,3.6 M1182.3,1435.7l15.3,26.6 M1197.5,1426.9l272.3-157.2 M1469.8,1269.7l3-1.7l2.8-1.6l2.6-1.5l2.3-1.3l1.9-1.1
		l1.4-0.8l0.9-0.5l0.3-0.2 M1493.2,1291.6l2.1,3.6 M1485,1260.9l15.3,26.6 M1136.6,1252.2l-0.6,0.4l-0.5,0.5l-0.4,0.6l-0.3,0.6
		l-0.1,0.7v0.7l0.1,0.7l0.2,0.6 M1135.3,1256.8l8.3,16.3 M1143.5,1273.3l-5.8,3.4l-5.3,3l-4.6,2.7l-3.8,2.2l-3.1,1.8l-2.2,1.3
		l-1.3,0.8l-0.4,0.3 M1116.8,1288.6l-0.2,0.2l-0.2,0.2l-0.2,0.2l-0.2,0.2l-0.2,0.2l-0.2,0.2l-0.2,0.2l-0.2,0.2 M1115.2,1290.2
		l-2.6,4.5 M1112.7,1294.6l22.2,43.5 M1168.7,1253.9l-0.3,0.2l-0.3,0.3l-0.3,0.3l-0.3,0.3l-0.2,0.3l-0.2,0.3l-0.2,0.4l-0.1,0.4
		 M1161.5,1262.8l-18,10.4 M1166.7,1256.3l-0.6,1.3l-1,1.5l-1.1,1.3 M1164.1,1260.5l-0.3,0.3l-1.2,1.1l-0.9,0.7l-0.3,0.2
		 M1391.8,1187.8l0.1-0.4 M1397.1,1172.9v-0.1l0.2-0.3h0.1 M1279.9,1169.5l-0.5,0.4l-0.5,0.5l-0.4,0.6l-0.3,0.6l-0.1,0.7v0.7
		l0.1,0.7l0.3,0.6 M1278.6,1174.1l6.4,12.5 M1475.1,1074.5l-1.2-0.3l-1.7-0.4 M1502.4,1113.9l1.4,2.3 M1500,1113.3l0.3-0.1l0.3-0.1
		h0.3h0.3l0.3,0.1l0.3,0.2l0.3,0.2l0.2,0.3 M1577.6,1018.5h-0.3h-0.3h-0.3l-0.3,0.1l-0.3,0.1l-0.3,0.1l-0.3,0.1l-0.3,0.1
		 M1591,1018.4h-13.4 M1610.9,1049.1l-19.9-30.7 M1163.4,1359.7l0.3,0.3l0.3,0.3l0.4,0.2l0.4,0.2l0.4,0.1h0.4l0.4-0.1l0.4-0.2
		 M1147,1331.2l16.4,28.5 M1476,1059.5l6,10.4 M1557.9,1026.1l-6-10.4 M1477.1,1055.6l-1,3.9 M1551.9,1015.7l-3.9-1 M1573,1020.5
		l-1.3-2.3 M1468.4,1077.9l1.3,2.3 M1612.6,1118.1L1612.6,1118.1l0.2-0.1l0.1-0.1l0.1-0.1l0.1-0.1l0.1-0.1l0.1-0.1v-0.1
		 M1513.9,1110.3l2.8,5.5 M1580.2,1079.1l-5.7-8.8 M1559.7,1173.3l19.7-32.4 M1613.2,1117.5l18.3-31.7 M1631.5,1085.8l0.1-0.2
		l0.1-0.2v-0.2v-0.2v-0.2v-0.2l-0.1-0.2l-0.1-0.2 M1631.5,1084.1l-13.6-26.8 M1377,1279.3L1377,1279.3L1377,1279.3L1377,1279.3
		L1377,1279.3L1377,1279.3L1377,1279.3h0.1l0,0 M1389.6,1272.1l0.3-0.2l0.2-0.2l0.2-0.3l0.1-0.3l0.1-0.3v-0.3v-0.3l-0.1-0.3
		 M1271,1310.2l1.5,2.3 M1272.5,1312.5l0.2,0.3l0.3,0.2l0.3,0.2l0.3,0.1h0.3h0.3l0.3-0.1l0.3-0.1 M1390.7,1269.7l-6.5-17.6
		 M1302.8,1301.2l74.3-22 M1308.2,1293.8L1308.2,1293.8 M1335.7,1213.6l-52.4,30.3 M1292.1,1307.4l11.9-6.9 M1265,1241.6l-8.2,4.7
		 M1256.9,1246.5l-6.3,3.6 M1285.7,1310.8l6.3-3.6 M1253.1,1269l-7.4,4.3 M1263.2,1303.7l7.4-4.3 M1313.2,1319.6l2.2,3.8
		 M1451.2,1275.4l-13.2-22.8 M1193.8,1370.3l2.2,3.8 M1271.9,1330.3l-2.2-3.8 M1180.8,1382.9l7.9,13.7 M1295,1335.2l-7.9-13.7
		 M1169.7,1407.5l15.3,26.6 M932.6,1340.4l484.8-281.2"/>
	<path class="st2" d="M1970.4-120c-549.5,0-995,445.5-995,995s445.5,995,995,995s995-445.5,995-995S2520-120,1970.4-120z
		 M1970.4,1829.4c-527.1,0-954.4-427.3-954.4-954.4s427.3-954.5,954.4-954.5s954.4,427.3,954.4,954.5S2497.6,1829.4,1970.4,1829.4
		L1970.4,1829.4z"/>
	<line class="st1" x1="1934.7" y1="37.2" x2="1934.7" y2="85.6"/>
	<line class="st1" x1="2060.8" y1="208.1" x2="2060.7" y2="208.1"/>
	<line class="st1" x1="2060.7" y1="271.3" x2="2061.8" y2="271.3"/>
	<line class="st1" x1="2060.8" y1="208.1" x2="2060.7" y2="200.4"/>
	<line class="st1" x1="2061.8" y1="274.4" x2="2060.7" y2="274.4"/>
	<line class="st1" x1="1995" y1="355.1" x2="1988.9" y2="355.1"/>
	<line class="st1" x1="2087.5" y1="303.9" x2="2060.7" y2="303.9"/>
	<line class="st1" x1="2060.1" y1="321.2" x2="2087.5" y2="321.2"/>
	<line class="st1" x1="1933" y1="92.9" x2="1933" y2="35.5"/>
	<line class="st1" x1="2045.8" y1="349.4" x2="2063.1" y2="349.4"/>
	<polyline class="st1" points="1917,316.1 1914.5,316.1 1910.6,316.1 1906.2,316.1 1901.4,316.1 1896.4,316.1 	"/>
	<line class="st1" x1="2043.2" y1="26.4" x2="2057.4" y2="26.3"/>
	<polyline class="st1" points="2057.4,26.3 2057.4,17.5 2057.4,7 2057.4,-4.2 2057.4,-15.2 2057.4,-24.9 2057.4,-32.6 2057.4,-37.5 
		2057.4,-39.2 	"/>
	<line class="st1" x1="2057.4" y1="126.3" x2="2057.4" y2="29.1"/>
	<line class="st1" x1="2057.4" y1="29.1" x2="2043.2" y2="29.2"/>
	<line class="st1" x1="1993.2" y1="49.1" x2="1999.4" y2="49"/>
	<line class="st1" x1="1999.4" y1="49.5" x2="1994.1" y2="49.5"/>
	<polyline class="st1" points="1999.1,229.3 1999.1,229.4 1999.1,229.5 	"/>
	<polyline class="st1" points="2057.4,213.5 2057.4,203.7 2057.4,192 2057.4,179.2 2057.4,166.2 2057.4,153.9 2057.4,143.1 
		2057.4,134.5 2057.4,128.8 2057.4,126.4 2057.4,126.3 	"/>
	<line class="st1" x1="2045.1" y1="338.8" x2="2045.3" y2="338.3"/>
	<polyline class="st1" points="2042.6,463.1 2042.6,462.4 2042.6,458.8 2042.6,452.1 2042.6,442.7 2042.6,431.1 2042.6,417.8 
		2042.6,403.6 2042.6,389.1 2042.6,375.1 2042.6,362.2 	"/>
	<polyline class="st1" points="1939.1,425.1 1939.1,434.4 1939.1,441 1939.1,444.1 1939.1,444.4 	"/>
	<polyline class="st1" points="1957.4,476.1 1957.4,475.5 1957.4,471.7 1957.4,464.9 1957.4,455.2 1957.4,443.1 	"/>
	<polyline class="st1" points="1958.9,443.6 1958.9,455.8 1958.9,465.6 1958.9,472.6 1958.9,476.3 1958.9,477 	"/>
	<line class="st1" x1="1937.2" y1="360.3" x2="1937.2" y2="178.1"/>
	<line class="st1" x1="1922.1" y1="176.2" x2="1918.7" y2="176.1"/>
	<polyline class="st1" points="1918.7,175.6 1918.7,175.8 1918.7,176.1 	"/>
	<line class="st1" x1="1988.9" y1="166.9" x2="1988.9" y2="167"/>
	<polyline class="st1" points="1940.6,51.8 1940.6,51.8 1940.6,51.8 1940.6,51.9 1940.6,52 1940.6,52.2 1940.6,52.4 1940.6,52.6 	
		"/>
	<polyline class="st1" points="1918.4,175.6 1918.4,175.6 1918.2,175.5 1918,175.4 1917.8,175.2 1917.6,175 1917.4,174.8 
		1917.3,174.6 1917.2,174.3 	"/>
	<polyline class="st1" points="1937,178.7 1937,178.7 1936.7,178.7 1936.5,178.6 1936.3,178.4 1936.1,178.2 1935.9,178 
		1935.8,177.8 1935.8,177.5 	"/>
	<line class="st1" x1="1917" y1="159" x2="1917" y2="159.1"/>
	<line class="st1" x1="1935.2" y1="83.7" x2="1917" y2="159.1"/>
	<line class="st1" x1="1936.7" y1="88.3" x2="1918.7" y2="162.5"/>
	<line class="st1" x1="1936" y1="86.7" x2="1935.9" y2="86.7"/>
	<polyline class="st1" points="1938.9,91.8 1938.8,91.7 1938.7,91.5 1938.7,91.2 	"/>
	<line class="st1" x1="1879" y1="244.1" x2="1844.2" y2="244.1"/>
	<line class="st1" x1="1845.6" y1="416.9" x2="1843.9" y2="427.1"/>
	<polyline class="st1" points="1809.5,465.4 1767.6,484.4 1705.8,523.4 1676.7,547.3 1649.8,573.6 1617.4,612.2 1589.3,655 	"/>
	<line class="st1" x1="1813" y1="464" x2="1809.5" y2="465.4"/>
	<polyline class="st1" points="1813,464 1827,455.9 1837.7,443.7 1843.9,427.1 	"/>
	<polyline class="st1" points="2351.6,655 2344.6,643.3 2305.1,589.2 2257.8,541.6 2203.7,501.9 2144.3,470.7 2131.4,465.4 	"/>
	<polyline class="st1" points="2095.8,416.8 2098.5,433.7 2106.9,448.8 2119.3,459.8 2127.9,464 	"/>
	<line class="st1" x1="2131.4" y1="465.4" x2="2127.9" y2="464"/>
	<polyline class="st1" points="2095.8,416.8 2096.2,383.5 2096.4,368.3 	"/>
	<polyline class="st1" points="1845.6,416.9 1840.8,63.2 1838.3,-116.1 	"/>
	<polyline class="st1" points="1421.3,45.2 1436.3,22.7 1450.8,-6.5 	"/>
	<polyline class="st1" points="2519.6,45.2 2504.6,22.7 2490.1,-6.5 	"/>
	<polyline class="st1" points="2096.4,368.3 2099.4,155.1 2102.3,-55.6 2103.1,-113.8 	"/>
	<polyline class="st1" points="2096.4,368.3 2105.7,368.3 2115,368.3 	"/>
	<polyline class="st1" points="1844.5,368.3 1835.2,368.3 1825.9,368.3 	"/>
	<polyline class="st1" points="1837.8,-113.8 1838.6,-55.6 1841.6,155.1 1844.5,368.3 	"/>
	<line class="st1" x1="2061.8" y1="271.3" x2="2060.8" y2="208.1"/>
	<polyline class="st1" points="2061.8,271.3 2061.8,271.9 2061.8,272.5 2061.8,273 2061.8,273.5 2061.8,273.8 2061.8,274.1 
		2061.8,274.3 2061.8,274.4 	"/>
	<line class="st1" x1="2085.9" y1="277.7" x2="2083.8" y2="275.5"/>
	<line class="st1" x1="1917.3" y1="273.7" x2="1843.7" y2="273.3"/>
	<polyline class="st1" points="2083.8,275.5 2083.2,275.3 2081.8,275.1 2079.7,274.9 2076.9,274.7 2073.7,274.6 2060.7,274.4 	"/>
	<polyline class="st1" points="2087.5,303.9 2087.4,299 2087.4,294.2 2087.2,289.8 2087,285.8 2086.8,282.5 2086.5,280 
		2086.2,278.4 2085.9,277.7 	"/>
	<line class="st1" x1="2087.5" y1="321.2" x2="2087.5" y2="303.9"/>
	<polyline class="st1" points="2085.9,347.5 2086.2,346.7 2086.5,345.1 2086.8,342.6 2087,339.3 2087.2,335.4 2087.4,331 
		2087.4,326.2 2087.5,321.2 	"/>
	<line class="st1" x1="1931.1" y1="33.5" x2="1931.1" y2="100.6"/>
	<polyline class="st1" points="2063.1,349.4 2067.3,349.4 2071.3,349.4 2075,349.2 2078.3,349.1 2081,348.9 2083.1,348.7 
		2084.5,348.5 2085.1,348.3 	"/>
	<line class="st1" x1="2085.1" y1="348.3" x2="2085.9" y2="347.5"/>
	<line class="st1" x1="1848.3" y1="316.1" x2="1896.4" y2="316.1"/>
	<line class="st1" x1="1917" y1="342.4" x2="1849.8" y2="342.4"/>
	<line class="st1" x1="1896.4" y1="316.1" x2="1896.4" y2="273.6"/>
	<polyline class="st1" points="1896.4,342.4 1896.4,341.6 1896.4,340 1896.4,337.5 1896.4,334.2 1896.4,330.3 1896.4,325.8 
		1896.4,321.1 1896.4,316.1 	"/>
	<polyline class="st1" points="1843.9,266.6 1844.1,266.6 1844.3,266.5 1844.8,266.5 1845.3,266.5 1846,266.5 1846.7,266.4 
		1847.5,266.4 1848.3,266.3 	"/>
	<polyline class="st1" points="1845.5,346.7 1845.6,345.9 1845.8,345.1 1846.2,344.3 1846.8,343.6 1847.4,343.1 1848.2,342.7 
		1849,342.4 1849.8,342.4 	"/>
	<polyline class="st1" points="1843.9,316.1 1844.1,316.1 1844.3,316.1 1844.8,316.1 1845.3,316.1 1846,316.1 1846.7,316.1 
		1847.5,316.1 1848.3,316.1 	"/>
	<line class="st1" x1="1844.2" y1="-92.8" x2="1844.2" y2="266.5"/>
	<polyline class="st1" points="2060.7,23.7 2060.7,24 2060.7,25.5 2060.7,27.4 2060.7,29.3 2060.7,31 	"/>
	<polyline class="st1" points="2057.4,29.1 2057.4,28.4 2057.5,27.7 2057.4,27 2057.4,26.4 2057.4,26.3 	"/>
	<polyline class="st1" points="2060.7,-35.7 2060.7,-35.1 2060.7,-31.4 2060.7,-24.8 2060.7,-15.9 2060.7,-5.6 2060.7,5.2 
		2060.7,15.3 2060.7,23.7 	"/>
	<polyline class="st1" points="2057.4,26.3 2058.1,26.2 2058.7,26 2059.3,25.8 2059.8,25.5 2060.2,25.1 2060.5,24.6 2060.7,24.2 
		2060.7,23.7 	"/>
	<line class="st1" x1="2060.7" y1="31" x2="2060.7" y2="129.8"/>
	<polyline class="st1" points="2057.4,29.1 2058.1,29.1 2058.7,29.3 2059.3,29.5 2059.8,29.7 2060.2,30 2060.5,30.3 2060.7,30.7 
		2060.7,31 	"/>
	<polyline class="st1" points="2060.7,210.8 2060.7,211.2 2060.7,212.8 2060.7,214.7 2060.7,216.6 2060.7,218.3 	"/>
	<polyline class="st1" points="2057.4,216.4 2057.4,215.7 2057.5,215 2057.4,214.3 2057.4,213.6 2057.4,213.5 	"/>
	<polyline class="st1" points="2045.3,216.5 2045.3,216.1 2045.2,215.8 2045.2,215.4 2045.2,215 2045.2,214.6 2045.2,214.2 
		2045.3,213.9 2045.3,213.6 	"/>
	<polyline class="st1" points="2060.7,129.8 2060.7,129.9 2060.7,132.1 2060.7,137.4 2060.7,145.4 2060.7,155.4 2060.7,166.9 
		2060.7,179 2060.7,190.9 2060.7,201.8 2060.7,210.8 	"/>
	<polyline class="st1" points="2057.4,213.5 2058.1,213.4 2058.7,213.2 2059.3,213 2059.8,212.7 2060.2,212.3 2060.5,211.8 
		2060.7,211.3 2060.7,210.8 	"/>
	<polyline class="st1" points="2045.3,213.6 2049.6,213.6 2057.4,213.5 	"/>
	<line class="st1" x1="2043.7" y1="126" x2="2045.3" y2="126.1"/>
	<polyline class="st1" points="2045.3,126.1 2045.3,129.3 2045.3,135.5 2045.3,144.3 2045.3,155.2 2045.3,167.4 2045.3,180.1 
		2045.3,192.6 2045.3,204 2045.3,213.6 	"/>
	<polyline class="st1" points="2045.3,126.1 2045.3,126.1 2044.7,126.2 2043.9,126.1 2043.5,125.8 2043.4,125.7 2043.3,125.4 
		2043.3,125.3 2043.2,125.1 2043.2,124.9 	"/>
	<polyline class="st1" points="2045.3,213.6 2044.9,213.6 2044.5,213.8 2044.1,213.9 2043.8,214.1 2043.5,214.4 2043.3,214.6 
		2043.2,214.9 2043.2,215.3 	"/>
	<line class="st1" x1="2060.7" y1="218.3" x2="2060.7" y2="313.9"/>
	<polyline class="st1" points="2057.4,216.4 2058.1,216.4 2058.7,216.5 2059.3,216.7 2059.8,217 2060.2,217.3 2060.5,217.6 
		2060.7,217.9 2060.7,218.3 	"/>
	<polyline class="st1" points="2047.5,344.2 2047.6,344.1 2047.7,343.9 2047.7,343.6 	"/>
	<line class="st1" x1="2057.4" y1="311.9" x2="2057.4" y2="216.4"/>
	<polyline class="st1" points="2057.4,216.4 2052.1,216.4 2045.3,216.5 	"/>
	<line class="st1" x1="2060.7" y1="313.9" x2="2060.7" y2="314.5"/>
	<line class="st1" x1="2045.3" y1="346" x2="2047.7" y2="343.6"/>
	<polyline class="st1" points="2047.7,343.6 2053.3,337.1 2057.4,329.9 2059.9,322.3 2060.7,314.5 	"/>
	<polyline class="st1" points="2060.7,313.9 2059.9,321.6 2057.4,329.1 2053.3,336 2047.7,342.2 	"/>
	<polyline class="st1" points="2057.4,311.9 2058.1,312 2058.7,312.1 2059.3,312.3 2059.8,312.5 2060.2,312.8 2060.5,313.1 
		2060.7,313.5 2060.7,313.9 	"/>
	<polyline class="st1" points="2045.3,338.3 2050.4,332.6 2054.3,326.1 2056.6,319.1 2057.4,311.9 	"/>
	<line class="st1" x1="2047.7" y1="342.2" x2="2045.3" y2="344"/>
	<polyline class="st1" points="2045.3,338.3 2045.8,338.8 2046.2,339.2 2046.7,339.7 2047.1,340.3 2047.3,340.8 2047.6,341.3 
		2047.7,341.8 2047.7,342.2 	"/>
	<line class="st1" x1="2045.3" y1="216.5" x2="2045.3" y2="338.3"/>
	<polyline class="st1" points="2045.3,216.5 2044.9,216.4 2044.5,216.4 2044.1,216.2 2043.8,216.1 2043.5,215.9 2043.3,215.7 
		2043.2,215.5 2043.2,215.3 	"/>
	<line class="st1" x1="2043.2" y1="-8.8" x2="2043.2" y2="363.5"/>
	<line class="st1" x1="2042.6" y1="362.2" x2="2042.6" y2="-10.1"/>
	<line class="st1" x1="1999.4" y1="53" x2="1999.4" y2="42.5"/>
	<line class="st1" x1="2035.9" y1="355.8" x2="2035.9" y2="-44"/>
	<line class="st1" x1="1995" y1="429.8" x2="1997.7" y2="430"/>
	<polyline class="st1" points="1995,429.8 1995,419.4 1995,407.5 1995,395 1995,382.8 1995,371.5 1995,362.2 1995,355.3 1995,351.3 
		1995,350.3 	"/>
	<polyline class="st1" points="1999.4,431.1 1999.3,430.8 1999,430.4 1998.6,430.1 1998,430 1997.7,430 	"/>
	<polyline class="st1" points="2043.2,363.5 2043.2,363.3 2043.2,363.1 2043.1,363 2043.1,362.8 2043,362.7 2042.9,362.5 
		2042.7,362.4 2042.6,362.2 	"/>
	<polyline class="st1" points="2043.2,363.5 2043.2,375.9 2043.2,389.4 2043.2,403.4 2043.2,417.2 2043.2,430 2043.2,441.2 
		2043.2,450.3 2043.2,456.7 2043.2,460.3 2043.2,460.9 	"/>
	<line class="st1" x1="2035.9" y1="355.8" x2="2042.6" y2="362.2"/>
	<polyline class="st1" points="2035.9,474.7 2035.9,474.5 2035.9,471.8 2035.9,465.8 2035.9,456.9 2035.9,445.4 2035.9,431.9 
		2035.9,416.9 2035.9,401.1 2035.9,385.2 2035.9,369.9 2035.9,355.8 	"/>
	<line class="st1" x1="1999.4" y1="354.7" x2="2035.9" y2="355.8"/>
	<polyline class="st1" points="1999.4,476.6 1999.4,476.4 1999.4,473.6 1999.4,467.5 1999.4,458.4 1999.4,446.6 1999.4,432.7 
		1999.4,417.4 1999.4,401.2 1999.4,384.9 1999.4,369.1 1999.4,354.7 	"/>
	<polyline class="st1" points="2060.7,357.4 2060.7,357.8 2060.7,360.9 2060.7,367.1 2060.7,375.8 2060.7,386.3 2060.7,397.8 
		2060.7,409.4 2060.7,420.1 2060.7,429 2060.7,435.4 2060.7,438.9 2060.7,439.4 	"/>
	<polyline class="st1" points="2057.9,442.2 2057.9,442 2057.9,439.1 2057.9,433.2 2057.9,424.7 2057.9,414.3 2057.9,402.7 
		2057.9,390.8 2057.9,379.4 2057.9,369.5 2057.9,361.6 2057.9,356.6 2057.9,354.6 2057.9,354.6 	"/>
	<polyline class="st1" points="2045.8,338.8 2045.8,338.9 2045.8,341.4 2045.8,346.9 2045.8,355.2 2045.8,365.8 	"/>
	<polyline class="st1" points="2045.8,365.8 2045.8,378.2 2045.8,391.7 2045.8,405.5 2045.8,419 2045.8,431.3 2045.8,441.9 
		2045.8,450.1 2045.8,455.5 2045.8,457.9 2045.8,458 	"/>
	<polyline class="st1" points="1988.9,458.9 1988.9,458.6 1989,458.4 1989.2,458.1 1989.4,457.9 1989.6,457.7 1989.9,457.6 
		1990.2,457.5 1990.6,457.5 	"/>
	<line class="st1" x1="1993.2" y1="457.4" x2="1990.6" y2="457.5"/>
	<line class="st1" x1="1993.2" y1="434.8" x2="1993.2" y2="457.4"/>
	<line class="st1" x1="1938.9" y1="412.1" x2="1938.9" y2="411"/>
	<polyline class="st1" points="1917,362.8 1917,362.1 1917,361.4 1917,360.7 1917,360 1917,359.3 	"/>
	<polyline class="st1" points="1918.7,360.3 1918.7,360.6 1918.7,361 1918.7,361.3 1918.7,361.7 1918.7,362 	"/>
	<line class="st1" x1="1917" y1="368" x2="1917" y2="365.7"/>
	<polyline class="st1" points="1917,368 1917.1,368.7 1917.3,369.3 1917.6,369.9 	"/>
	<polyline class="st1" points="1937.2,362.1 1937.2,361.9 1937.2,361.6 1937.2,361.4 1937.2,361.2 1937.2,361 1937.2,360.8 
		1937.2,360.5 1937.2,360.3 	"/>
	<line class="st1" x1="1917" y1="365.7" x2="1917" y2="362.8"/>
	<polyline class="st1" points="1917,362.8 1917,362.6 1917.1,362.5 1917.3,362.4 1917.5,362.3 1917.7,362.2 1918,362.1 1918.3,362 
		1918.7,362 	"/>
	<polyline class="st1" points="1917,365.7 1917,365.6 1917.1,365.4 1917.3,365.3 1917.5,365.2 1917.7,365.1 1918,365 1918.3,365 
		1918.7,365 	"/>
	<polyline class="st1" points="1917.6,367.6 1917.3,367 1917.1,366.4 1917,365.7 	"/>
	<polyline class="st1" points="1938.9,443.6 1938.9,443.3 1938.9,440.1 1938.9,433.8 1938.9,424.6 	"/>
	<line class="st1" x1="1938.9" y1="424.6" x2="1938.9" y2="412.1"/>
	<polyline class="st1" points="1939.1,425.1 1938.9,424.8 1938.9,424.7 1938.9,424.6 	"/>
	<polyline class="st1" points="1939.1,412.6 1939.1,412.5 1939,412.5 1939,412.4 1939,412.4 1938.9,412.3 1938.9,412.2 
		1938.9,412.2 1938.9,412.1 	"/>
	<polyline class="st1" points="1917.6,369.9 1917.5,370.1 1917.6,370.2 1917.6,370.3 	"/>
	<polyline class="st1" points="1935.8,403.2 1935.7,403.4 1935.7,403.5 1935.7,403.5 	"/>
	<polyline class="st1" points="1935.8,399.6 1935.8,399.5 1935.9,399.3 1936.1,399.1 1936.3,399 1936.5,398.8 1936.7,398.6 
		1937,398.5 1937.2,398.4 	"/>
	<polyline class="st1" points="1917.6,367.6 1917.7,367.4 1917.8,367.2 1917.9,367.1 1918.1,366.9 1918.3,366.7 1918.5,366.6 
		1918.8,366.4 1919,366.3 	"/>
	<line class="st1" x1="1937.2" y1="362.1" x2="1918.7" y2="362"/>
	<line class="st1" x1="1918.7" y1="362" x2="1918.7" y2="365"/>
	<polyline class="st1" points="1918.7,365 1918.7,365.4 1918.8,365.9 1919,366.3 	"/>
	<line class="st1" x1="1919" y1="366.3" x2="1937.2" y2="398.4"/>
	<polyline class="st1" points="1938.9,361.3 1938.9,361.5 1938.8,361.6 1938.6,361.7 1938.4,361.9 1938.2,361.9 1937.9,362 
		1937.5,362.1 1937.2,362.1 	"/>
	<line class="st1" x1="1937.2" y1="398.4" x2="1937.2" y2="362.1"/>
	<polyline class="st1" points="1938.9,401.9 1938.9,402.2 1938.8,402.4 1938.6,402.3 1938.4,401.9 1938.2,401.3 1937.9,400.5 
		1937.5,399.5 1937.2,398.4 	"/>
	<line class="st1" x1="1957.4" y1="443.1" x2="1957.4" y2="443.1"/>
	<polyline class="st1" points="1957.4,443.1 1957.8,443.3 1958.3,443.5 1958.6,443.6 1958.9,443.6 	"/>
	<polyline class="st1" points="1988.9,478.6 1988.9,477.1 1988.9,472.6 1988.9,465.2 1988.9,455.3 1988.9,443.2 	"/>
	<line class="st1" x1="1958.9" y1="442.3" x2="1958.9" y2="443.6"/>
	<line class="st1" x1="1917" y1="359.3" x2="1917" y2="175.1"/>
	<polyline class="st1" points="1917,359.3 1917,359.5 1917.1,359.7 1917.3,359.8 1917.5,360 1917.7,360.1 1918,360.2 1918.3,360.3 
		1918.7,360.3 	"/>
	<line class="st1" x1="1918.7" y1="176.1" x2="1918.7" y2="360.3"/>
	<line class="st1" x1="1918.7" y1="360.3" x2="1937.2" y2="360.3"/>
	<polyline class="st1" points="1938.9,361.3 1938.9,361.1 1938.8,361 1938.6,360.8 1938.4,360.6 1938.2,360.5 1937.9,360.4 
		1937.5,360.4 1937.2,360.3 	"/>
	<polyline class="st1" points="1917,175.1 1917,174.5 1917,174.1 1917,173.8 	"/>
	<polyline class="st1" points="1918.7,176.1 1918.3,176 1918,176 1917.7,175.9 1917.5,175.8 1917.3,175.6 1917.1,175.4 1917,175.3 
		1917,175.1 	"/>
	<line class="st1" x1="1917" y1="161.6" x2="1917" y2="159.4"/>
	<polyline class="st1" points="1917,159.4 1917,159.4 1917,159.3 1917,159.3 1917,159.3 1917,159.2 1917,159.2 1917,159.1 
		1917,159.1 	"/>
	<line class="st1" x1="1917" y1="173.8" x2="1917" y2="170.1"/>
	<polyline class="st1" points="1917,173.8 1917,173.9 1917,173.9 1917,174 1917.1,174.1 1917.1,174.1 1917.1,174.2 1917.2,174.3 
		1917.2,174.3 	"/>
	<line class="st1" x1="1917" y1="170.1" x2="1917" y2="170.1"/>
	<line class="st1" x1="1917" y1="164.7" x2="1917" y2="161.6"/>
	<polyline class="st1" points="1917,161.6 1917,161.5 1917,161.5 1917,161.4 1917,161.4 1917,161.4 1917,161.3 1917,161.3 
		1917,161.3 	"/>
	<polyline class="st1" points="1917,161.6 1917,161.7 1917.1,161.9 1917.3,162.1 1917.5,162.2 1917.7,162.4 1918,162.4 
		1918.3,162.5 1918.7,162.5 	"/>
	<polyline class="st1" points="1917,170.1 1917,170.2 1917,170.3 1917,170.3 1917.1,170.4 1917.1,170.4 1917.1,170.5 1917.2,170.6 
		1917.2,170.6 	"/>
	<polyline class="st1" points="1917,170.1 1917,169.8 1917.1,169.5 1917.3,169.2 1917.5,168.9 1917.7,168.7 1918,168.5 
		1918.3,168.4 1918.7,168.4 	"/>
	<polyline class="st1" points="1917,170.1 1917,170 1917,169.8 1917,169.4 1917,169 1917,168.5 1917,167.9 1917,167.2 1917,166.6 
		1917,165.9 1917,165.3 1917,164.7 	"/>
	<polyline class="st1" points="1917,170.1 1917,169.8 1917.1,169.5 1917.3,169.2 1917.5,168.9 1917.7,168.7 1918,168.5 
		1918.3,168.4 1918.7,168.4 	"/>
	<polyline class="st1" points="1917,164.7 1917,164.9 1917.1,165.1 1917.3,165.2 1917.5,165.4 1917.7,165.5 1918,165.6 
		1918.3,165.6 1918.7,165.7 	"/>
	<polyline class="st1" points="1918.7,165.7 1918.7,165.9 1918.7,166.3 1918.6,166.6 1918.6,166.9 1918.6,167.3 1918.6,167.6 
		1918.6,167.8 1918.6,168 1918.7,168.2 1918.7,170.8 1918.7,168.4 	"/>
	<polyline class="st1" points="1994.6,156 1994,158.9 1991.2,163.2 1989.5,164.7 	"/>
	<polyline class="st1" points="1938.9,55 1938.9,54.6 1938.9,54.3 1938.9,54 1938.9,53.8 1938.9,53.6 1938.9,53.5 1938.9,53.5 	"/>
	<line class="st1" x1="1918.7" y1="168.4" x2="1918.7" y2="168.4"/>
	<polyline class="st1" points="1917.2,170.6 1917.2,170.2 1917.2,169.9 1917.3,169.5 1917.5,169.1 1917.7,168.8 1918,168.6 
		1918.3,168.4 1918.7,168.4 	"/>
	<line class="st1" x1="1938.9" y1="401.9" x2="1938.9" y2="180.8"/>
	<polyline class="st1" points="1939.1,402.3 1939.1,402.3 1939,402.2 1939,402.2 1939,402.1 1938.9,402 1938.9,402 1938.9,401.9 
		1938.9,401.9 	"/>
	<polyline class="st1" points="1938.9,180.8 1938.9,180.9 1938.9,180.9 1938.9,181 1939,181.1 1939,181.1 1939,181.2 1939.1,181.3 
		1939.1,181.3 	"/>
	<polyline class="st1" points="1937.2,178.8 1937.5,178.9 1937.9,179.1 1938.2,179.3 1938.4,179.6 1938.6,179.9 1938.8,180.2 
		1938.9,180.5 1938.9,180.8 	"/>
	<line class="st1" x1="1917" y1="159.1" x2="1917" y2="161.3"/>
	<polyline class="st1" points="1935.2,86.3 1935.2,85.7 1935.2,84.8 1935.2,83.5 	"/>
	<line class="st1" x1="1918.7" y1="162.5" x2="1918.7" y2="165.7"/>
	<line class="st1" x1="1917" y1="161.3" x2="1935.2" y2="86.3"/>
	<polyline class="st1" points="1917,161.3 1917.1,161.5 1917.2,161.6 1917.3,161.9 1917.5,162 1917.8,162.2 1918,162.3 
		1918.4,162.4 1918.7,162.5 	"/>
	<polyline class="st1" points="1935.2,86.3 1935.3,86.5 1935.3,86.6 1935.4,86.8 1935.5,86.9 1935.7,87.1 1935.8,87.2 1936,87.3 
		1936.3,87.4 	"/>
	<polyline class="st1" points="1935.2,86.3 1935.3,86.1 1935.3,86.1 	"/>
	<polyline class="st1" points="1935.9,86.7 1935.8,86.7 1935.7,86.6 1935.6,86.5 1935.5,86.4 1935.4,86.3 1935.3,86.2 1935.3,86.1 
		1935.3,86.1 	"/>
	<line class="st1" x1="1936.3" y1="87.4" x2="1935.9" y2="86.7"/>
	<polyline class="st1" points="1935.9,86.7 1935.5,85.5 1935.3,84 1935.3,84 	"/>
	<polyline class="st1" points="1935.3,84 1935.3,84 1935.4,84.4 	"/>
	<polyline class="st1" points="1938.8,91.8 1938.7,91.6 1938.6,91.3 1938.6,91.1 	"/>
	<polyline class="st1" points="1935.2,85 1935.2,85.4 1935.3,86.1 	"/>
	<line class="st1" x1="1935.3" y1="86.1" x2="1935.3" y2="84"/>
	<polyline class="st1" points="1935.3,84 1935.9,86.4 1937,88.8 1938.6,91.1 	"/>
	<line class="st1" x1="1938.6" y1="91.1" x2="1938.7" y2="91.2"/>
	<line class="st1" x1="1938.7" y1="91.2" x2="1938.7" y2="79.9"/>
	<polyline class="st1" points="1958.9,442.3 1958.7,442.3 1958.4,442.3 1958.2,442.2 1958.1,442.2 1957.9,442.1 1957.7,442 
		1957.6,441.9 1957.4,441.8 	"/>
	<line class="st1" x1="1988.9" y1="443.2" x2="1988.9" y2="174.2"/>
	<line class="st1" x1="1958.9" y1="173.4" x2="1958.9" y2="442.3"/>
	<line class="st1" x1="1958.9" y1="442.3" x2="1988.9" y2="443.2"/>
	<polyline class="st1" points="1988.9,100.6 1991,98.1 1992.6,96.7 1994.5,95.5 	"/>
	<line class="st1" x1="1994.5" y1="85.7" x2="1994.5" y2="95.5"/>
	<line class="st1" x1="1988.9" y1="93" x2="1988.9" y2="92.9"/>
	<line class="st1" x1="1938.9" y1="87.5" x2="1938.9" y2="80.3"/>
	<polyline class="st1" points="1988.9,92.9 1988.9,91.9 1989.2,90.9 1989.7,89.9 1990.3,89 1991.1,88.1 1992.1,87.2 1993.2,86.4 
		1994.5,85.7 	"/>
	<polyline class="st1" points="1994.5,85.7 1999.2,82.7 2002.8,79.2 2005,75.3 2005.7,71.3 2005.5,69.1 	"/>
	<polyline class="st1" points="1940.6,52.6 1940.3,52.7 1940,52.8 1939.6,53.1 1939.1,53.9 1938.9,55 	"/>
	<line class="st1" x1="1938.9" y1="55.5" x2="1938.9" y2="55"/>
	<polyline class="st1" points="1935.4,69.1 1935.2,71.3 1935.4,73.5 1936.1,75.7 1937.2,77.8 1938.7,79.9 	"/>
	<polyline class="st1" points="1938.7,79.9 1938.8,79.9 1938.8,80 1938.8,80.1 1938.9,80.1 1938.9,80.2 1938.9,80.2 1938.9,80.3 
		1938.9,80.3 	"/>
	<line class="st1" x1="1938.9" y1="169.2" x2="1938.9" y2="104.1"/>
	<polyline class="st1" points="1939.1,169.7 1939.1,169.6 1939,169.6 1939,169.5 1939,169.4 1938.9,169.4 1938.9,169.3 
		1938.9,169.3 1938.9,169.2 	"/>
	<polyline class="st1" points="1939.1,104.5 1939.1,104.5 1939,104.4 1939,104.4 1939,104.3 1938.9,104.2 1938.9,104.2 
		1938.9,104.1 1938.9,104.1 	"/>
	<polyline class="st1" points="1938.9,104.1 1938.9,101.9 1938.9,99.7 1938.9,97.6 1938.9,95.5 1938.9,93.5 1938.9,91.5 
		1938.9,89.5 1938.9,87.5 	"/>
	<polyline class="st1" points="1938.9,104.1 1938.9,103.9 1939,103.8 1939.2,103.7 1939.4,103.6 1939.6,103.6 1939.9,103.5 
		1940.2,103.5 1940.6,103.5 	"/>
	<polyline class="st1" points="1938.9,87.5 1939.2,88.9 1939.4,89.3 1940,89.8 1940.3,89.9 1940.6,89.9 	"/>
	<polyline class="st1" points="1939.1,412.6 1939.1,411.9 1938.9,410.9 1938.6,409.8 1938.2,408.5 1937.6,407.2 1937.1,405.8 
		1936.4,404.5 1935.8,403.2 	"/>
	<line class="st1" x1="1939.1" y1="412.6" x2="1939.1" y2="425.1"/>
	<line class="st1" x1="1939.1" y1="425.1" x2="1957.4" y2="443.1"/>
	<line class="st1" x1="1957.4" y1="443.1" x2="1957.4" y2="441.8"/>
	<line class="st1" x1="1957.4" y1="441.8" x2="1957.4" y2="172.9"/>
	<line class="st1" x1="1939.1" y1="104.5" x2="1939.1" y2="169.7"/>
	<polyline class="st1" points="1935.8,172.6 1936.4,172.6 1937.1,172.5 1937.6,172.2 1938.2,171.9 1938.6,171.4 1938.9,170.9 
		1939.1,170.3 1939.1,169.7 	"/>
	<line class="st1" x1="1935.8" y1="172.6" x2="1917.2" y2="170.6"/>
	<line class="st1" x1="1917.2" y1="170.6" x2="1917.2" y2="174.3"/>
	<line class="st1" x1="1917.2" y1="174.3" x2="1935.8" y2="177.5"/>
	<polyline class="st1" points="1935.8,177.5 1936.4,177.7 1937.1,178 1937.6,178.4 1938.2,178.8 1938.6,179.4 1938.9,180 
		1939.1,180.7 1939.1,181.3 	"/>
	<line class="st1" x1="1939.1" y1="181.3" x2="1939.1" y2="402.3"/>
	<polyline class="st1" points="1939.1,402.3 1939.1,402.9 1938.9,403.1 1938.6,403.1 1938.2,402.9 1937.6,402.4 1937.1,401.7 
		1936.4,400.7 1935.8,399.6 	"/>
	<line class="st1" x1="1935.8" y1="399.6" x2="1917.6" y2="367.6"/>
	<line class="st1" x1="1917.6" y1="367.6" x2="1917.6" y2="369.9"/>
	<line class="st1" x1="1917.6" y1="369.9" x2="1935.8" y2="403.2"/>
	<polyline class="st1" points="1940.6,103.5 1940.3,103.6 1940.1,103.7 1939.9,103.8 1939.7,104 1939.5,104.1 1939.3,104.3 
		1939.2,104.4 1939.1,104.5 	"/>
	<polyline class="st1" points="1957.4,172.9 1956.7,160.3 1954.3,146.7 1950.5,132.5 1945.4,118.3 1939.1,104.5 	"/>
	<polyline class="st1" points="1958.9,173.4 1958.7,173.3 1958.4,173.3 1958.2,173.3 1958.1,173.2 1957.9,173.1 1957.7,173.1 
		1957.6,173 1957.4,172.9 	"/>
	<line class="st1" x1="1940.6" y1="89.9" x2="1988.9" y2="93"/>
	<polyline class="st1" points="1940.6,89.9 1940.6,91.6 1940.6,93.2 1940.6,94.9 1940.6,96.5 1940.6,98.3 1940.6,100 1940.6,101.7 
		1940.6,103.5 	"/>
	<polyline class="st1" points="1940.6,103.5 1942,106.5 1947.4,119.1 1955.2,144.4 1958.7,168.3 1958.9,173.4 	"/>
	<line class="st1" x1="1958.9" y1="173.4" x2="1988.9" y2="174.2"/>
	<polyline class="st1" points="1988.9,174.2 1988.9,165 1988.9,155.2 1988.9,144.9 1988.9,134.3 1988.9,123.6 1988.9,113.1 
		1988.9,102.8 1988.9,93 	"/>
	<polyline class="st1" points="1935.4,71.3 1935.5,72.8 1937.8,78.4 1943.1,83.5 1950.7,87.5 1960.1,90 1970.4,90.9 	"/>
	<polyline class="st1" points="1970.4,90.9 1980.8,90 1990.2,87.5 1997.9,83.5 2003.1,78.4 2005.4,72.8 2005.5,71.3 	"/>
	<polyline class="st1" points="1951.4,47.6 1946.6,49.7 1940.1,54.2 1936.3,59.7 1935.5,65.5 1937.8,71.2 1943,76.2 1950.7,80.2 
		1960.1,82.7 1970.4,83.6 	"/>
	<polyline class="st1" points="1970.4,83.6 1980.8,82.7 1990.2,80.2 1997.9,76.2 2003.1,71.2 2005.4,65.5 2004.6,59.7 2000.8,54.2 
		1994.3,49.7 1989.5,47.6 	"/>
	<polyline class="st1" points="1952.9,56.7 1954.3,60.5 1958.1,63.7 1963.7,65.8 1970.4,66.5 	"/>
	<polyline class="st1" points="1970.4,66.5 1977.2,65.8 1982.8,63.7 1986.7,60.5 1988,56.8 	"/>
	<polyline class="st1" points="1914.1,83.5 1914.1,84.1 1914.1,85.9 1914.1,88.7 1914.1,92.3 	"/>
	<polyline class="st1" points="1909.7,210.1 1909.7,216.5 1909.7,221.3 1909.7,224.2 1909.7,225.2 	"/>
	<polyline class="st1" points="1929.8,32 1929.8,34.4 1929.8,39.9 1929.8,42.3 1929.8,42.4 	"/>
	<polyline class="st1" points="1925.5,25.8 1925.5,36.8 1925.5,46.6 1925.5,53.9 1925.5,58.4 1925.4,59.9 	"/>
	<polyline class="st1" points="1883.4,244.1 1883.4,246.4 1883.4,248.6 1883.4,250.6 1883.4,252.3 1883.4,253.8 1883.4,254.8 
		1883.4,255.5 1883.4,255.7 	"/>
	<line class="st1" x1="1883.4" y1="255.7" x2="1879" y2="255.7"/>
	<polyline class="st1" points="1914.1,92.3 1914.1,92.4 1914.1,92.9 1914.1,93.8 1914.1,94.8 1914.1,96.2 1914.1,97.7 1914.1,99.3 
		1914.1,101 	"/>
	<line class="st1" x1="1914.1" y1="210.1" x2="1883.4" y2="210.1"/>
	<polyline class="st1" points="1914.1,201.3 1914.1,203 1914.1,204.7 1914.1,206.2 1914.1,207.5 1914.1,208.6 1914.1,209.4 
		1914.1,209.9 1914.1,210.1 	"/>
	<line class="st1" x1="1909.7" y1="18.9" x2="1909.7" y2="101"/>
	<line class="st1" x1="1883.4" y1="244.1" x2="1879" y2="244.1"/>
	<line class="st1" x1="1883.4" y1="201.3" x2="1883.4" y2="244.1"/>
	<line class="st1" x1="1914.1" y1="201.3" x2="1883.4" y2="201.3"/>
	<line class="st1" x1="1914.1" y1="101" x2="1914.1" y2="201.3"/>
	<line class="st1" x1="1914.1" y1="101" x2="1909.7" y2="101"/>
	<polyline class="st1" points="1909.7,-84.8 1909.7,-83.1 1909.7,-78.1 1909.7,-70 1909.7,-59.1 1909.7,-45.8 1909.7,-30.8 
		1909.7,-14.5 1909.7,2.3 1909.7,18.9 	"/>
	<line class="st1" x1="1909.7" y1="18.9" x2="1879" y2="18.9"/>
	<line class="st1" x1="1848.3" y1="266.3" x2="1848.3" y2="253.4"/>
	<line class="st1" x1="1879" y1="-70.3" x2="1879" y2="244.1"/>
	<polyline class="st1" points="1879,244.1 1879,247.5 1879,250.8 1879,253.9 1879,256.5 1879,258.7 1879,260.3 1879,261.3 
		1879,261.6 	"/>
	<line class="st1" x1="1848.3" y1="253.4" x2="1844.2" y2="253.4"/>
	<line class="st1" x1="1879" y1="261.6" x2="1848.3" y2="261.6"/>
	<line class="st1" x1="1988.9" y1="217.5" x2="1989.1" y2="217.8"/>
	<polyline class="st1" points="1999.1,229.6 1999.2,229.6 1999.4,230 1999.4,230 	"/>
	<polyline class="st1" points="2060.7,129.8 2060.7,129.1 2060.5,128.5 2060.2,127.9 2059.8,127.4 2059.3,127 2058.7,126.6 
		2058.1,126.4 2057.4,126.3 	"/>
	<line class="st1" x1="2057.4" y1="126.3" x2="2043.3" y2="125.6"/>
	<polyline class="st1" points="2045.4,346.3 2046.3,345.4 2047.5,344.2 	"/>
	<line class="st1" x1="1997.7" y1="350.3" x2="1995" y2="350.3"/>
	<polyline class="st1" points="1999.4,348.5 1999.3,348.8 1999.2,349.1 1999.1,349.5 1998.9,349.7 1998.6,349.9 1998.3,350.1 
		1998,350.2 1997.7,350.3 	"/>
	<polyline class="st1" points="2042.6,463.1 2042.7,462.9 2042.9,462.6 2043,462.3 2043,462 2043.1,461.8 2043.2,461.5 
		2043.2,461.2 2043.2,460.9 	"/>
	<line class="st1" x1="2035.9" y1="474.7" x2="2042.6" y2="463.1"/>
	<line class="st1" x1="1999.4" y1="476.6" x2="2035.9" y2="474.7"/>
	<line class="st1" x1="2057.9" y1="354.6" x2="2045.8" y2="354.6"/>
	<line class="st1" x1="2045.8" y1="442.2" x2="2057.9" y2="442.2"/>
	<line class="st1" x1="2060.7" y1="357.4" x2="2057.9" y2="354.6"/>
	<line class="st1" x1="2057.9" y1="442.2" x2="2060.7" y2="439.4"/>
	<line class="st1" x1="2043.2" y1="458" x2="2045.8" y2="458"/>
	<line class="st1" x1="2045.8" y1="338.8" x2="2043.2" y2="338.8"/>
	<polyline class="st1" points="1938.9,443.6 1938.9,443.7 1938.9,443.8 1938.9,443.9 1939,444 1939,444.1 1939,444.2 1939.1,444.3 
		1939.1,444.4 	"/>
	<line class="st1" x1="1995" y1="362.1" x2="1988.9" y2="361.8"/>
	<line class="st1" x1="1988.9" y1="435" x2="1999.4" y2="434.5"/>
	<line class="st1" x1="1917.6" y1="370.3" x2="1935.7" y2="403.5"/>
	<line class="st1" x1="1939.1" y1="444.4" x2="1957.4" y2="476.1"/>
	<polyline class="st1" points="1957.4,476.1 1957.6,476.3 1957.7,476.5 1957.9,476.6 1958,476.8 1958.2,476.9 1958.4,476.9 
		1958.7,477 1958.9,477 	"/>
	<line class="st1" x1="1958.9" y1="477" x2="1988.9" y2="478.6"/>
	<polyline class="st1" points="1917,159 1917,159 1917,159.1 1917,159.1 1917,159.2 1917,159.2 1917,159.3 1917,159.3 1917,159.4 	
		"/>
	<polyline class="st1" points="1917,173.8 1917,174.1 1917.1,174.4 1917.2,174.7 1917.4,174.9 1917.6,175.2 1917.9,175.3 
		1918.2,175.5 1918.4,175.6 	"/>
	<line class="st1" x1="1943.3" y1="51.6" x2="1940.6" y2="51.8"/>
	<polyline class="st1" points="1940.6,51.8 1940.2,51.8 1939.9,51.9 1939.6,52.1 1939.4,52.3 1939.2,52.6 1939,52.9 1938.9,53.2 
		1938.9,53.5 	"/>
	<line class="st1" x1="1918.4" y1="175.6" x2="1937" y2="178.7"/>
	<line class="st1" x1="1935.2" y1="83.6" x2="1917" y2="159"/>
	<line class="st1" x1="1938.9" y1="92" x2="1938.9" y2="92.1"/>
	<line class="st1" x1="1994.6" y1="156" x2="1994.6" y2="95.4"/>
	<line class="st1" x1="1935.2" y1="71.3" x2="1935.2" y2="85"/>
	<line class="st1" x1="2005.7" y1="80.8" x2="2005.7" y2="71.3"/>
	<line class="st1" x1="2005.5" y1="71.3" x2="2005.5" y2="64"/>
	<line class="st1" x1="1935.4" y1="64" x2="1935.4" y2="71.3"/>
	<line class="st1" x1="1988" y1="56.8" x2="1988" y2="48.2"/>
	<line class="st1" x1="1952.9" y1="48.2" x2="1952.9" y2="56.7"/>
	<line class="st1" x1="1914.1" y1="83.5" x2="1909.7" y2="83.5"/>
	<line class="st1" x1="1883.4" y1="225.2" x2="1909.7" y2="225.2"/>
	<line class="st1" x1="1925.5" y1="42.4" x2="1929.8" y2="42.4"/>
	<line class="st1" x1="1909.7" y1="59.9" x2="1925.5" y2="59.9"/>
	<line class="st1" x1="2086.4" y1="-256.5" x2="2087.5" y2="303.9"/>
	<line class="st1" x1="2448.2" y1="1255.1" x2="2447.6" y2="1256"/>
	<line class="st1" x1="2444.9" y1="1254.4" x2="2445.5" y2="1253.5"/>
	<line class="st1" x1="2408.5" y1="1156.2" x2="2411.5" y2="1150.9"/>
	<line class="st1" x1="2406.5" y1="1261.9" x2="2419.9" y2="1238.7"/>
	<line class="st1" x1="2405.2" y1="1229.5" x2="2391.5" y2="1253.2"/>
	<line class="st1" x1="2387.9" y1="1203.1" x2="2379.3" y2="1218.1"/>
	<polyline class="st1" points="2481.2,1108.2 2482.4,1106 2484.4,1102.6 2486.6,1098.8 2489,1094.6 2491.5,1090.3 	"/>
	<polyline class="st1" points="2499.9,1281.1 2508.3,1285.9 2518.4,1291.8 2529.5,1298.2 2540.8,1304.7 2551.5,1310.9 
		2560.9,1316.3 2568.3,1320.6 2573.2,1323.4 2575.3,1324.6 2575.4,1324.7 	"/>
	<line class="st1" x1="2397.5" y1="1207.7" x2="2397.8" y2="1208.1"/>
	<polyline class="st1" points="2291.1,1143.4 2291.7,1143.8 2294.8,1145.6 2300.6,1148.9 2308.8,1153.7 2318.8,1159.5 
		2330.3,1166.1 2342.6,1173.2 2355.2,1180.4 2367.3,1187.4 2378.4,1193.9 	"/>
	<polyline class="st1" points="2375.8,1072.8 2367.7,1068.2 2362,1064.9 2359.2,1063.3 2359,1063.2 	"/>
	<polyline class="st1" points="2322.4,1063.2 2323,1063.5 2326.2,1065.4 2332.1,1068.8 2340.5,1073.6 2351,1079.7 	"/>
	<polyline class="st1" points="2349.9,1080.7 2339.3,1074.6 2330.8,1069.7 2324.8,1066.2 2321.5,1064.3 2320.9,1064 	"/>
	<line class="st1" x1="2432.8" y1="1103.5" x2="2590.6" y2="1194.7"/>
	<line class="st1" x1="2429.6" y1="996" x2="2421.6" y2="989.4"/>
	<polyline class="st1" points="2405.7,940.5 2410.1,894.6 2407.3,821.6 2401.1,784.5 2391.8,748 2374.5,700.6 2351.6,655 	"/>
	<line class="st1" x1="2405.1" y1="944.1" x2="2405.7" y2="940.5"/>
	<polyline class="st1" points="2405.1,944.1 2405.1,960.4 2410.4,975.7 2421.6,989.4 	"/>
	<polyline class="st1" points="1970.4,1315.1 1984,1314.9 2050.7,1307.7 2115.5,1290.5 2177,1263.6 2233.6,1227.7 2244.8,1219.2 	
		"/>
	<polyline class="st1" points="2304.6,1212.6 2288.6,1206.6 2271.3,1206.3 2255.6,1211.5 2247.6,1216.8 	"/>
	<line class="st1" x1="2244.8" y1="1219.2" x2="2247.6" y2="1216.8"/>
	<polyline class="st1" points="2304.6,1212.6 2333.2,1229.7 2346.3,1237.4 	"/>
	<polyline class="st1" points="2429.6,996 2738.4,1168.6 2894.8,1256 	"/>
	<polyline class="st1" points="2346.3,1237.4 2529.5,1346.6 2710.4,1454.4 2760.5,1484.3 	"/>
	<polyline class="st1" points="2346.3,1237.4 2341.6,1245.5 2337,1253.5 	"/>
	<polyline class="st1" points="2472.2,1019.2 2476.9,1011.2 2481.5,1003.2 	"/>
	<polyline class="st1" points="2893.1,1254.5 2842.3,1226.1 2658.4,1123.3 2472.2,1019.2 	"/>
	<line class="st1" x1="2447.6" y1="1256" x2="2502.8" y2="1286.7"/>
	<polyline class="st1" points="2447.6,1256 2447.1,1255.7 2446.6,1255.4 2446.1,1255.1 2445.7,1254.9 2445.4,1254.7 2445.2,1254.6 
		2445,1254.5 2444.9,1254.4 	"/>
	<line class="st1" x1="2430" y1="1273.7" x2="2432.9" y2="1272.9"/>
	<polyline class="st1" points="2432.9,1272.9 2433.4,1272.5 2434.3,1271.4 2435.5,1269.7 2437.1,1267.4 2438.8,1264.6 
		2445.5,1253.5 	"/>
	<polyline class="st1" points="2406.5,1261.9 2410.8,1264.3 2415,1266.7 2418.9,1268.8 2422.4,1270.6 2425.4,1272 2427.7,1273 
		2429.2,1273.6 2430,1273.7 	"/>
	<line class="st1" x1="2391.5" y1="1253.2" x2="2406.5" y2="1261.9"/>
	<polyline class="st1" points="2369.6,1238.8 2370.1,1239.4 2371.3,1240.5 2373.4,1242 2376.1,1243.8 2379.4,1245.9 2383.2,1248.3 
		2387.3,1250.7 2391.5,1253.2 	"/>
	<polyline class="st1" points="2379.3,1218.1 2377.2,1221.7 2375.3,1225.1 2373.5,1228.4 2372,1231.3 2370.8,1233.8 2369.9,1235.7 
		2369.4,1237 2369.3,1237.6 	"/>
	<line class="st1" x1="2369.3" y1="1237.6" x2="2369.6" y2="1238.8"/>
	<line class="st1" x1="2515.5" y1="1048.7" x2="2491.5" y2="1090.3"/>
	<line class="st1" x1="2458.5" y1="1095" x2="2492" y2="1036.9"/>
	<line class="st1" x1="2491.5" y1="1090.3" x2="2528.3" y2="1111.6"/>
	<polyline class="st1" points="2468.8,1077.2 2469.4,1077.6 2470.8,1078.4 2473,1079.7 2475.8,1081.3 2479.2,1083.3 2483.1,1085.5 
		2487.2,1087.9 2491.5,1090.3 	"/>
	<polyline class="st1" points="2490.4,1030.9 2491.1,1031.4 2491.7,1032 2492.2,1032.8 2492.5,1033.6 2492.6,1034.4 2492.6,1035.3 
		2492.4,1036.1 2492,1036.9 	"/>
	<polyline class="st1" points="2500.5,1285.3 2500.2,1285.1 2498.8,1284.3 2497.2,1283.3 2495.5,1282.4 2494,1281.5 	"/>
	<polyline class="st1" points="2497.4,1279.6 2497.9,1280 2498.6,1280.4 2499.2,1280.7 2499.7,1281 2499.9,1281.1 	"/>
	<polyline class="st1" points="2499.9,1281.1 2499.6,1281.7 2499.4,1282.3 2499.4,1282.9 2499.4,1283.5 2499.5,1284.1 
		2499.8,1284.6 2500.1,1284.9 2500.5,1285.3 	"/>
	<polyline class="st1" points="2505.8,1270.5 2503.7,1274.3 2499.9,1281.1 	"/>
	<line class="st1" x1="2494" y1="1281.5" x2="2411.3" y2="1233.8"/>
	<polyline class="st1" points="2497.4,1279.6 2497,1280.2 2496.6,1280.6 2496.1,1281.1 2495.7,1281.4 2495.2,1281.6 2494.8,1281.7 
		2494.4,1281.7 2494,1281.5 	"/>
	<polyline class="st1" points="2391.6,1207.2 2391.6,1207.2 2391.8,1207.4 2392.1,1207.6 	"/>
	<line class="st1" x1="2414.6" y1="1231.8" x2="2497.4" y2="1279.6"/>
	<polyline class="st1" points="2497.4,1279.6 2500,1275 2503.3,1269.1 	"/>
	<line class="st1" x1="2411.3" y1="1233.8" x2="2410.7" y2="1233.4"/>
	<line class="st1" x1="2391.1" y1="1204.3" x2="2392.1" y2="1207.6"/>
	<polyline class="st1" points="2392.1,1207.6 2394.9,1215.7 2399.1,1222.8 2404.4,1228.8 2410.7,1233.4 	"/>
	<polyline class="st1" points="2411.3,1233.8 2405,1229.1 2399.8,1223.2 2395.8,1216.2 2393.2,1208.3 	"/>
	<polyline class="st1" points="2414.6,1231.8 2414.3,1232.4 2413.8,1232.9 2413.4,1233.3 2412.9,1233.6 2412.5,1233.8 2412,1233.9 
		2411.6,1233.9 2411.3,1233.8 	"/>
	<polyline class="st1" points="2397.8,1208.1 2400.2,1215.5 2403.9,1222 2408.8,1227.5 2414.6,1231.8 	"/>
	<line class="st1" x1="2393.2" y1="1208.3" x2="2392.9" y2="1205.3"/>
	<polyline class="st1" points="2397.8,1208.1 2397.2,1208.3 2396.6,1208.5 2395.9,1208.6 2395.3,1208.7 2394.6,1208.7 
		2394.1,1208.6 2393.6,1208.5 2393.2,1208.3 	"/>
	<line class="st1" x1="2503.4" y1="1269.1" x2="2397.8" y2="1208.1"/>
	<line class="st1" x1="2699.5" y1="1379.9" x2="2377.1" y2="1193.8"/>
	<line class="st1" x1="2378.4" y1="1193.9" x2="2700.9" y2="1380"/>
	<line class="st1" x1="2406.6" y1="1160.2" x2="2633.9" y2="1291.4"/>
	<line class="st1" x1="2387.4" y1="1191.3" x2="2733.6" y2="1391.2"/>
	<line class="st1" x1="2343.7" y1="1118.8" x2="2342.3" y2="1121.1"/>
	<polyline class="st1" points="2343.7,1118.8 2352.8,1124.1 2363.1,1130 2373.9,1136.3 2384.5,1142.4 2394.2,1148 2402.3,1152.7 
		2408.3,1156.1 2411.8,1158.1 2412.6,1158.6 	"/>
	<polyline class="st1" points="2340.4,1122 2340.8,1122.1 2341.2,1122 2341.6,1121.8 2342.1,1121.4 2342.3,1121.1 	"/>
	<polyline class="st1" points="2377.1,1193.8 2377.2,1193.8 2377.4,1193.9 2377.5,1193.9 2377.7,1193.9 2377.9,1194 2378.1,1193.9 
		2378.3,1193.9 2378.4,1193.9 	"/>
	<polyline class="st1" points="2377.1,1193.8 2366.3,1187.6 2354.6,1180.8 2342.5,1173.8 2330.6,1166.9 2319.5,1160.5 
		2309.8,1154.9 2301.9,1150.4 2296.3,1147.1 2293.3,1145.4 2292.7,1145 	"/>
	<line class="st1" x1="2387.4" y1="1191.3" x2="2378.4" y2="1193.9"/>
	<polyline class="st1" points="2284.4,1131.8 2284.5,1131.9 2286.9,1133.3 2292.1,1136.3 2299.8,1140.7 2309.8,1146.5 
		2321.5,1153.2 2334.4,1160.7 2348.1,1168.6 2361.9,1176.6 2375.2,1184.3 2387.4,1191.3 	"/>
	<line class="st1" x1="2406.6" y1="1160.2" x2="2387.4" y2="1191.3"/>
	<polyline class="st1" points="2301,1099.2 2301.2,1099.3 2303.6,1100.7 2308.9,1103.8 2316.8,1108.4 2327,1114.3 2339,1121.2 
		2352.3,1128.9 2366.3,1137 2380.5,1145.1 2394.1,1153 2406.6,1160.2 	"/>
	<polyline class="st1" points="2373.6,1212 2373.3,1211.8 2370.5,1210.2 2365.2,1207.1 2357.7,1202.8 2348.5,1197.5 2338.6,1191.8 
		2328.5,1186 2319.3,1180.6 2311.6,1176.2 2306,1173 2303,1171.3 2302.6,1171 	"/>
	<polyline class="st1" points="2301.6,1167.1 2301.8,1167.2 2304.3,1168.7 2309.4,1171.6 2316.7,1175.8 2325.7,1181.1 
		2335.8,1186.9 2346.1,1192.8 2355.9,1198.5 2364.6,1203.5 2371.3,1207.4 2375.7,1209.9 2377.4,1210.9 2377.4,1210.9 	"/>
	<polyline class="st1" points="2397.1,1208.4 2397,1208.3 2394.9,1207.1 2390.1,1204.3 2382.9,1200.2 2373.7,1194.9 	"/>
	<polyline class="st1" points="2373.7,1194.9 2363,1188.7 2351.3,1181.9 2339.4,1175 2327.7,1168.3 2317,1162.1 2307.9,1156.8 
		2300.7,1152.7 2296,1150 2294,1148.8 2293.9,1148.8 	"/>
	<polyline class="st1" points="2321.6,1099 2321.8,1099.1 2322,1099.4 2322.1,1099.6 2322.2,1099.9 2322.2,1100.2 2322.2,1100.6 
		2322.1,1100.9 2322,1101.2 	"/>
	<line class="st1" x1="2320.7" y1="1103.5" x2="2322" y2="1101.2"/>
	<line class="st1" x1="2340.3" y1="1114.8" x2="2320.7" y2="1103.5"/>
	<line class="st1" x1="2387.1" y1="1079.1" x2="2388.1" y2="1079.7"/>
	<polyline class="st1" points="2440.8,1084.8 2441.4,1085.2 2442,1085.5 2442.6,1085.9 2443.2,1086.2 2443.8,1086.6 	"/>
	<polyline class="st1" points="2442.1,1087.5 2441.8,1087.4 2441.5,1087.2 2441.2,1087 2440.9,1086.8 2440.6,1086.7 	"/>
	<line class="st1" x1="2436.2" y1="1082.2" x2="2438.2" y2="1083.3"/>
	<polyline class="st1" points="2436.2,1082.2 2435.6,1081.9 2435,1081.8 2434.3,1081.8 	"/>
	<polyline class="st1" points="2431.3,1102.7 2431.4,1102.8 2431.6,1102.9 2431.8,1103 2432,1103.1 2432.2,1103.2 2432.4,1103.3 
		2432.6,1103.4 2432.8,1103.5 	"/>
	<line class="st1" x1="2438.2" y1="1083.3" x2="2440.8" y2="1084.8"/>
	<polyline class="st1" points="2440.8,1084.8 2440.9,1084.9 2440.9,1085.1 2441,1085.3 2441,1085.5 2440.9,1085.8 2440.9,1086.1 
		2440.7,1086.4 2440.6,1086.7 	"/>
	<polyline class="st1" points="2438.2,1083.3 2438.3,1083.4 2438.4,1083.6 2438.4,1083.8 2438.4,1084 2438.4,1084.3 2438.3,1084.6 
		2438.2,1084.9 2438.1,1085.2 	"/>
	<polyline class="st1" points="2436.3,1082.9 2437,1082.9 2437.6,1083.1 2438.2,1083.3 	"/>
	<polyline class="st1" points="2359.9,1063.4 2360.1,1063.5 2362.8,1065.1 2368.4,1068.3 2376.3,1072.9 	"/>
	<line class="st1" x1="2376.3" y1="1072.9" x2="2387.1" y2="1079.1"/>
	<polyline class="st1" points="2375.8,1072.8 2376.1,1072.8 2376.2,1072.9 2376.3,1072.9 	"/>
	<polyline class="st1" points="2386.6,1079.1 2386.6,1079.1 2386.7,1079.1 2386.8,1079.1 2386.9,1079.1 2386.9,1079.1 2387,1079.1 
		2387,1079.1 2387.1,1079.1 	"/>
	<polyline class="st1" points="2434.3,1081.8 2434.2,1081.6 2434,1081.6 2434,1081.6 	"/>
	<polyline class="st1" points="2396.4,1080.9 2396.3,1080.7 2396.1,1080.7 2396.1,1080.7 	"/>
	<polyline class="st1" points="2399.5,1082.6 2399.6,1082.8 2399.7,1083 2399.8,1083.2 2399.8,1083.4 2399.8,1083.7 2399.9,1084 
		2399.9,1084.3 2399.9,1084.5 	"/>
	<polyline class="st1" points="2436.3,1082.9 2436.4,1083.1 2436.5,1083.3 2436.6,1083.5 2436.6,1083.7 2436.7,1084 2436.7,1084.3 
		2436.7,1084.5 2436.7,1084.8 	"/>
	<line class="st1" x1="2431.3" y1="1102.7" x2="2440.6" y2="1086.7"/>
	<line class="st1" x1="2440.6" y1="1086.7" x2="2438.1" y2="1085.2"/>
	<polyline class="st1" points="2438.1,1085.2 2437.6,1085 2437.2,1084.9 2436.7,1084.8 	"/>
	<line class="st1" x1="2436.7" y1="1084.8" x2="2399.9" y2="1084.5"/>
	<polyline class="st1" points="2431.1,1104.5 2431,1104.4 2430.9,1104.3 2430.9,1104.1 2430.9,1103.8 2430.9,1103.6 2431,1103.3 
		2431.1,1103 2431.3,1102.7 	"/>
	<line class="st1" x1="2399.9" y1="1084.5" x2="2431.3" y2="1102.7"/>
	<polyline class="st1" points="2396,1084.3 2395.7,1084 2395.6,1083.9 2395.8,1083.8 2396.2,1083.8 2396.9,1083.9 2397.7,1084 
		2398.7,1084.3 2399.9,1084.5 	"/>
	<line class="st1" x1="2351" y1="1079.7" x2="2351" y2="1079.7"/>
	<polyline class="st1" points="2351,1079.7 2350.6,1079.9 2350.2,1080.2 2350,1080.5 2349.9,1080.7 	"/>
	<polyline class="st1" points="2304.6,1089.2 2305.9,1089.9 2309.8,1092.2 2316.1,1095.8 2324.7,1100.8 2335.2,1106.8 	"/>
	<line class="st1" x1="2351" y1="1081.3" x2="2349.9" y2="1080.7"/>
	<line class="st1" x1="2443.8" y1="1086.6" x2="2603.3" y2="1178.7"/>
	<polyline class="st1" points="2443.8,1086.6 2443.6,1086.5 2443.4,1086.5 2443.2,1086.5 2442.9,1086.6 2442.7,1086.8 2442.5,1087 
		2442.3,1087.3 2442.1,1087.5 	"/>
	<line class="st1" x1="2601.6" y1="1179.6" x2="2442.1" y2="1087.5"/>
	<line class="st1" x1="2442.1" y1="1087.5" x2="2432.8" y2="1103.5"/>
	<polyline class="st1" points="2431.1,1104.5 2431.3,1104.6 2431.5,1104.6 2431.7,1104.5 2431.9,1104.4 2432.2,1104.3 
		2432.4,1104.1 2432.6,1103.8 2432.8,1103.5 	"/>
	<line class="st1" x1="2396" y1="1084.3" x2="2587.4" y2="1194.8"/>
	<polyline class="st1" points="2395.4,1084.2 2395.5,1084.2 2395.6,1084.2 2395.7,1084.2 2395.7,1084.2 2395.8,1084.2 
		2395.9,1084.2 2395.9,1084.2 2396,1084.3 	"/>
	<polyline class="st1" points="2351,1081.3 2351.1,1081.1 2351.2,1081 2351.4,1080.8 2351.5,1080.7 2351.6,1080.6 2351.8,1080.5 
		2351.9,1080.4 2352.1,1080.3 	"/>
	<line class="st1" x1="2335.2" y1="1106.8" x2="2568.1" y2="1241.3"/>
	<line class="st1" x1="2583.9" y1="1215.8" x2="2351" y2="1081.3"/>
	<line class="st1" x1="2351" y1="1081.3" x2="2335.2" y2="1106.8"/>
	<polyline class="st1" points="2386.6,1079.1 2387.2,1079.4 2388.2,1079.7 2389.3,1080 2390.6,1080.3 2392,1080.5 2393.5,1080.7 
		2395,1080.8 2396.4,1080.9 	"/>
	<line class="st1" x1="2386.6" y1="1079.1" x2="2375.8" y2="1072.8"/>
	<line class="st1" x1="2375.8" y1="1072.8" x2="2351" y2="1079.7"/>
	<line class="st1" x1="2351" y1="1079.7" x2="2352.1" y2="1080.3"/>
	<line class="st1" x1="2352.1" y1="1080.3" x2="2585" y2="1214.8"/>
	<line class="st1" x1="2586.9" y1="1194.7" x2="2395.4" y2="1084.2"/>
	<polyline class="st1" points="2395.4,1084.2 2395,1083.9 2394.9,1083.6 2395,1083.3 2395.4,1083.1 2396.1,1082.9 2397.1,1082.7 
		2398.2,1082.7 2399.5,1082.6 	"/>
	<line class="st1" x1="2399.5" y1="1082.6" x2="2436.3" y2="1082.9"/>
	<line class="st1" x1="2436.3" y1="1082.9" x2="2434.3" y2="1081.8"/>
	<line class="st1" x1="2434.3" y1="1081.8" x2="2396.4" y2="1080.9"/>
	<polyline class="st1" points="2390.8,1204.3 2391.2,1205.5 2391.6,1207.2 	"/>
	<line class="st1" x1="2411.3" y1="1161" x2="2412.6" y2="1158.6"/>
	<polyline class="st1" points="2412,1163.3 2411.7,1163.1 2411.4,1162.9 2411.3,1162.6 2411.1,1162.3 2411.1,1161.9 2411.1,1161.6 
		2411.2,1161.3 2411.3,1161 	"/>
	<polyline class="st1" points="2291.1,1143.4 2291.2,1143.7 2291.4,1143.9 2291.6,1144.1 2291.8,1144.3 2292,1144.5 2292.2,1144.7 
		2292.4,1144.9 2292.7,1145 	"/>
	<line class="st1" x1="2284.4" y1="1131.8" x2="2291.1" y2="1143.4"/>
	<line class="st1" x1="2301" y1="1099.2" x2="2284.4" y2="1131.8"/>
	<line class="st1" x1="2377.4" y1="1210.9" x2="2383.5" y2="1200.5"/>
	<line class="st1" x1="2307.6" y1="1156.7" x2="2301.6" y2="1167.1"/>
	<line class="st1" x1="2373.6" y1="1212" x2="2377.4" y2="1210.9"/>
	<line class="st1" x1="2301.6" y1="1167.1" x2="2302.6" y2="1171"/>
	<line class="st1" x1="2295.2" y1="1146.5" x2="2293.9" y2="1148.8"/>
	<line class="st1" x1="2397.1" y1="1208.4" x2="2398.4" y2="1206.1"/>
	<polyline class="st1" points="2359.9,1063.4 2359.8,1063.3 2359.7,1063.3 2359.6,1063.3 2359.4,1063.2 2359.3,1063.2 
		2359.2,1063.2 2359.1,1063.2 2359,1063.2 	"/>
	<line class="st1" x1="2402.4" y1="1152.7" x2="2405.7" y2="1147.6"/>
	<line class="st1" x1="2342.3" y1="1110.9" x2="2337.5" y2="1120.3"/>
	<line class="st1" x1="2434" y1="1081.6" x2="2396.1" y2="1080.7"/>
	<line class="st1" x1="2359" y1="1063.2" x2="2322.4" y2="1063.2"/>
	<polyline class="st1" points="2322.4,1063.2 2322.2,1063.2 2322,1063.2 2321.8,1063.3 2321.6,1063.4 2321.4,1063.5 2321.2,1063.6 
		2321.1,1063.8 2320.9,1064 	"/>
	<line class="st1" x1="2320.9" y1="1064" x2="2304.6" y2="1089.2"/>
	<line class="st1" x1="2892.4" y1="1541.2" x2="2406.5" y2="1261.9"/>
	<path class="st1" d="M1554,967c-5,2.6-11.2,0.7-13.9-4.3c-0.5-0.9-0.8-1.8-1-2.8c-5.5-28-8.2-56.4-8.2-84.9
		c0-193,124.4-357,297.5-416.1c5.4-1.8,11.2,1,13.1,6.4c0.3,0.9,0.5,1.9,0.5,2.9l2.8,73.8c0.7,16.5,14.6,29.4,31.1,28.7
		c2.4-0.1,4.7-0.5,7-1.1c57.3-15.9,117.8-15.9,175.1,0c15.9,4.6,32.5-4.6,37-20.5c0.7-2.3,1-4.6,1.1-7l2.8-73.8
		c0.2-5.7,5-10.1,10.7-9.9c1,0,2,0.2,2.9,0.5C2285.6,518,2410,682,2410,875c0,28.5-2.7,56.9-8.2,84.9c-1.1,5.6-6.5,9.2-12.1,8.1
		c-1-0.2-1.9-0.5-2.8-1l-65.3-34.5c-14.6-7.7-32.7-2-40.4,12.6c-1.1,2.1-1.9,4.3-2.5,6.6c-14.9,57.5-45.2,110-87.5,151.6
		c-11.9,11.5-12.2,30.4-0.7,42.3c1.7,1.7,3.5,3.2,5.5,4.5l62.4,39.3c4.8,3,6.2,9.4,3.2,14.2c-0.5,0.8-1.2,1.6-1.9,2.3
		c-165.7,144.7-412.8,144.7-578.5,0c-4.3-3.7-4.7-10.2-1-14.5c0.7-0.8,1.4-1.4,2.3-1.9l62.4-39.3c14-8.8,18.1-27.3,9.3-41.3
		c-1.3-2-2.8-3.9-4.5-5.5c-42.4-41.7-72.6-94.1-87.5-151.7c-4-16-20.2-25.8-36.3-21.8c-2.3,0.6-4.5,1.4-6.6,2.5L1554,967z"/>
	<path class="st1" d="M2744.9,1496.6l-405.6-241.7c-20.1-11.9-45.5-10.1-63.7,4.5c-178.8,141.9-431.9,141.8-610.7-0.3
		c-18.2-14.7-43.7-16.5-63.8-4.5l-405.1,242"/>
	<path class="st1" d="M1044.9,1234.9l412.1-230.4c20.4-11.4,31.5-34.3,28-57.4c-33.5-225.9,93.1-445,305.6-528.7
		c21.8-8.5,36.1-29.6,35.8-53l-7-471.8"/>
	<path class="st1" d="M2896,1234.9l-412.1-230.4c-20.4-11.5-31.5-34.3-27.9-57.4c33.5-225.8-93.1-445-305.6-528.7
		c-21.8-8.5-36.1-29.6-35.8-53l7-471.8"/>
	<path class="st1" d="M1466.8,1765.7l-247.2,28.5c0,0-51.2,8.2-99.5-41.1c-164.3-158.2-280.5-359.5-335.3-580.9
		c-18.5-66.5,14.2-106.8,14.2-106.8l0,0l148.3-199.8"/>
	<path class="st1" d="M2407,1769.3c28.7-7.5,67.1-3.6,67.1-3.6l247.2,28.5c0,0,51.2,8.2,99.5-41.1
		c164.3-158.2,280.5-359.5,335.3-580.9c18.5-66.5-14.2-106.8-14.2-106.8l0,0l-148.3-199.8"/>
	<circle class="st3" cx="1970.4" cy="875" r="995"/>
	<circle class="st4" cx="1970.4" cy="875" r="954.5"/>
	<circle class="st5" cx="1970.4" cy="875" r="93.9"/>
	<circle class="st1" cx="1970.4" cy="875" r="74.2"/>
	<circle class="st1" cx="1970.4" cy="875" r="87.2"/>
	<polyline class="st5" points="2667.9,1311.1 2666.1,1311.8 2659.5,1312.3 2657.1,1311.4 2642.2,1303.6 2639.1,1301.7 
		2636.6,1298.9 2634.4,1293.2 2410,1162.6 2415.1,1153 2575.3,1245.5 2578.8,1253.5 2581.1,1255.4 2633.5,1285.7 2642,1290.5 
		2642.2,1296.1 2644,1301.6 2645.3,1305.2 2659.5,1312.3 2667.9,1311.1 2675.6,1306.7 2677.7,1303.7 	"/>
	<path class="st6" d="M2696.6,1272.3l0.5-9l-0.6-4.1l-2.8-6l-22.4-14.1l-54-52.3l-183.2-105.2l-37.8-0.8l-7-0.7l-2.7-0.9l-27.6-15.9
		l-37.4,0.2l-17,25.8l18.8,10.9l-5.3,9.1l-17-9.9l-16.6,32.6l5.7,13.9l17.4,10.5l-6,11l1,3.9l71,41l3.9-1l6.9-11.1l6,3.6
		c0,0,0.5,5.8,6.5,15.6c3.8,6,8.8,11,14.8,14.8l303,174.9l4.1-1.4l9.9-15.3l27.5,15.8l5.9-0.1l26.6-41l-24.7-14.6"/>
	<polyline class="st5" points="1244.1,1260.9 1244.5,1259.1 1247.3,1253.1 1249.3,1251.5 1263.4,1242.4 1266.6,1240.8 1270.3,1240 
		1276.4,1240.9 1501.6,1111.9 1507.5,1121.1 1347.3,1213.6 1338.5,1212.6 1335.7,1213.6 1283.3,1243.9 1274.9,1248.8 1269.9,1246.2 
		1264.3,1245 1260.5,1244.3 1247.3,1253.1 1244.1,1260.9 1244.1,1269.8 1245.6,1273.2 	"/>
	<path class="st6" d="M1263.4,1305.2l7.6,5l3.8,1.5l6.6,0.6l23.4-12.3l72.3-20.7l182.7-106l19.6-32.3l4.1-5.7l2.2-1.9l27.6-15.9
		l18.6-32.5l-13.8-27.6l-18.8,10.8l-5.3-9.2l17.1-9.8l-19.9-30.7l-14.9-2l-17.8,9.9l-6.5-10.7l-3.9-1l-71,41l-1.1,3.9l6.2,11.6
		l-6.1,3.4c0,0-5.3-2.4-16.7-2.1c-7.1,0.3-14,2.1-20.2,5.4l-303,174.9l-0.8,4.2l8.3,16.2l-27.5,15.9l-2.8,5.2l22.2,43.5l24.9-14.2"
		/>
	<circle class="st5" cx="1211.5" cy="1313.2" r="52.2"/>
	<circle class="st1" cx="1211.5" cy="1313.2" r="17.9"/>
	<polyline class="st5" points="1999.6,53 2001,54.2 2004.8,59.7 2005.1,62.2 2005.9,79 2005.8,82.6 2004.6,86.1 2000.8,91 
		1999.9,350.6 1989,351 1989,166 1994.2,158.9 1994.7,156 1994.7,95.5 1994.6,85.7 1999.4,82.7 2003.3,78.4 2005.8,75.5 
		2004.8,59.7 1999.6,53 1991.8,48.5 1988.2,48.2 	"/>
	<path class="st6" d="M1951.6,47.6l-8.1,4l-3.2,2.6l-3.8,5.4l-1,26.4l-18.3,73l0.5,211.3l18.1,33.1l2.9,6.4l0.6,2.8v31.8l18.9,32.3
		l30.8,1.8v-21.7h10.6l-0.1,19.7l36.5-1.9l9.1-11.9l0.4-20.3l12.5-0.3l2.9-2.9v-81.9l-2.8-2.9l-13.1-0.5l0.1-7
		c0,0,4.8-3.4,10.2-13.4c3.3-6.2,5.2-13.1,5.4-20.2V-36.4l-3.3-2.8l-18.2-1V-72l-3.1-5l-48.8-2.6l-0.1,28.7"/>
	<circle class="st5" cx="1970.6" cy="-1.4" r="52.2"/>
	<circle class="st1" cx="1970.6" cy="-1.4" r="17.9"/>
	<path class="st3" d="M3145,1041.8c-38.9-52.5-148.1-200.4-148.1-200.4s-27.9-39.9-38.6-93.2s-29.9-203.5-126.4-370.6
		S2615,118.8,2574.1,82.8s-61.4-80-61.4-80s-73.5-168.5-99.5-228.4s-88.6-76.2-88.6-76.2c-220.5-59.6-354.2-52.1-354.2-52.1
		s-133.7-7.4-354.2,52.1c0,0-62.6,16.3-88.6,76.2S1428.2,2.8,1428.2,2.8s-20.6,44.1-61.4,80S1205.5,210.5,1109,377.6
		S993.3,694.9,982.6,748.3S944,841.5,944,841.5s-109.2,147.9-148.1,200.4s-21.7,114.8-21.7,114.8
		c58.7,220.8,131.9,332.8,131.9,332.8s60.4,119.5,222.2,280.7c0,0,45.4,46.1,110.3,38.7s247.6-28,247.6-28s48.5-4.2,100,13.2
		s191.2,75.8,384.2,75.8s332.6-58.4,384.2-75.8s100-13.2,100-13.2s182.7,20.6,247.6,28s110.3-38.7,110.3-38.7
		c161.8-161.2,222.2-280.7,222.2-280.7s73.3-112,131.9-332.8C3166.7,1156.7,3183.9,1094.3,3145,1041.8z"/>
	<path class="st6" d="M3015.1,1374.4c-16.1,34.4-43.1,79.9-43.1,79.9s-24.9,44.6-46.7,75.7c0,0-13.1,18-19.1,15.9l-80.6-28.1
		c0,0-5.3-0.5-26-12s-492.3-292-492.3-292s-12.6-9.8-31.9-7.8c-9.8,1-21.2,6-33.7,14.9c-37.4,26.5-123.8,94.1-271.2,94.1
		s-233.3-66.4-270.3-93.5c-15.5-11.4-26-15.8-36.8-16c-16.6-0.3-29.7,8.2-29.7,8.2s-471.6,280.6-492.3,292s-26,12-26,12l-80.6,28.1
		c-6,2.1-19.1-15.9-19.1-15.9c-21.7-31.2-47.6-77.3-47.6-77.3s-26.1-43.9-42.3-78.3c0,0-9.1-20.3-4.2-24.5l64.6-55.8
		c0,0,3.1-4.3,23.4-16.6s503.1-282.9,503.1-282.9s26.9-12.1,22.6-57.8s-18.5-154.1,54-282c67.5-119.2,175.1-171,217.7-188.1
		c41.7-16.8,38.4-52.9,38.4-52.9s-7.2-548.7-6.7-572.4s2.7-28.5,2.7-28.5s14.8-77.6,16-83.9s23.3-8.6,23.3-8.6
		c37.8-3.2,90.7-2.6,90.7-2.6s51.1-0.7,88.9,2.5c0,0,22.1,2.3,23.3,8.6s15.9,83.8,15.9,83.8s2.2,4.8,2.7,28.5s-6.7,572.4-6.7,572.4
		c-0.5,12.6,3.6,25,11.5,34.9c6,7.5,15.8,12.8,28.9,18.8c41.7,19.2,145.2,65.2,215.8,187.4c73.8,127.5,58.3,236.4,54.1,282.1
		c-1.4,15.2,0.4,27.7,4.3,36.6c7.9,18,22.2,23.6,22.2,23.6s478.8,268.2,499.1,280.4s23.4,16.6,23.4,16.6l64.6,55.8
		C3024.1,1354.1,3015.1,1374.4,3015.1,1374.4z"/>
</g>
</svg>
