<svg xmlns="http://www.w3.org/2000/svg" viewBox="0 0 2500 1750"><defs><style>.cls-1{isolation:isolate;}.cls-2,.cls-4{fill:#231f20;}.cls-2{opacity:0.05;}.cls-2,.cls-3{mix-blend-mode:multiply;}.cls-3{opacity:0.25;}.cls-5,.cls-6,.cls-7,.cls-8,.cls-9{fill:none;stroke:#231f20;}.cls-5,.cls-7,.cls-8,.cls-9{stroke-linecap:round;stroke-linejoin:round;}.cls-5{stroke-width:0.5px;}.cls-6{stroke-miterlimit:10;opacity:0.5;}.cls-7{stroke-width:3px;}.cls-8{stroke-width:1.5px;}.cls-9{stroke-width:2px;}</style></defs><g class="cls-1"><g id="Graphics"><path class="cls-2" d="M1969.82-120c-549.5,0-995,445.46-995,995s445.46,995,995,995,995-445.46,995-995S2519.32-120,1969.82-120Zm0,1949.78C1442.49,1829.82,1015,1402.33,1015,875S1442.49-79.82,1969.82-79.82,2924.64,347.67,2924.64,875,2497.15,1829.82,1969.82,1829.82Z"/><g class="cls-3"><path class="cls-4" d="M3014.45,1374.45c-16.13,34.39-43.11,79.88-43.11,79.88s-25,44.56-46.66,75.73c0,0-13.06,18-19.09,15.91L2825,1517.86s-5.28-.52-26-12-492.35-292-492.35-292-12.56-9.83-31.94-7.78c-9.75,1-21.15,6-33.69,14.87-37.44,26.53-123.82,94.12-271.15,94.12s-233.32-66.37-270.34-93.48c-15.5-11.36-26-15.75-36.79-16-16.64-.33-29.66,8.23-29.66,8.23s-471.59,280.56-492.34,292-26,12-26,12l-80.6,28.11c-6,2.1-19.09-15.91-19.09-15.91-21.72-31.17-47.62-77.27-47.62-77.27s-26.12-43.89-42.25-78.28c0,0-9.07-20.31-4.23-24.49l64.64-55.75s3.09-4.32,23.38-16.56S1512,994.85,1512,994.85s26.88-12.12,22.62-57.81S1516.18,782.93,1588.68,655c67.47-119.11,175.1-170.91,217.65-188.09C1848,450,1844.72,414,1844.72,414s-7.18-548.7-6.71-572.39,2.66-28.53,2.66-28.53,14.76-77.58,15.95-83.86,23.32-8.57,23.32-8.57c37.86-3.23,90.74-2.61,90.74-2.61s51.06-.68,88.91,2.55c0,0,22.13,2.3,23.32,8.58s16,83.86,16,83.86,2.2,4.83,2.66,28.52-6.71,572.39-6.71,572.39a53,53,0,0,0,11.46,34.9c6,7.46,15.84,12.77,28.87,18.76,41.7,19.16,145.16,65.21,215.81,187.35,73.76,127.53,58.32,236.4,54.07,282.09-1.42,15.16.44,27.72,4.34,36.63,7.86,18,22.23,23.6,22.23,23.6s478.78,268.13,499.06,280.38,23.38,16.57,23.38,16.57l64.64,55.75C3023.52,1354.14,3014.45,1374.45,3014.45,1374.45Z"/></g><path class="cls-5" d="M1262.1,1324.88l41.94-24.22m-206.27,119.1,97.53-56.32m-60.73-109.74L927.5,1373.25m89.66,155.3-.58.4-.58.4-.54.37-.5.34-.13.09m-87.33-156.9-.65.31-.62.3-.59.28-.55.26-.14.07m422.16-244.31.06.09m54.66-31.56-.55-1m-54.17,32.42-6.66,4m63.53-38,.55,1m102.74,16.59,3.07,5.31m-93.6-59.83,13.37,23.17m15.29-8.11-13.69-23.7m-120.5,248-49.71,28.7M1477,1072.51l-8.65-15m44.2,143.23,1.24,2.14,2,3.4,2.22,3.84,2.39,4.14,2.48,4.29m-408.16,284-66.82,38.58m150.7-304.85-7.21-12.24m0,0-7.63,4.4-9.06,5.23-9.71,5.61-9.5,5.48-8.44,4.88-6.64,3.83-4.25,2.46-1.49.86m7.45,17.54-10,5.76-8,4.63-5.71,3.3-3.15,1.82-.61.35m27.47-15.86.28-.66.45-.44h0m18-10.41h0l-.46.45-.28.66m6-7.61h0l.26-.51.41-.44.54-.35m110.69-81-84.2,48.61m0,0,7.2,12.25m42.24,33.32-3.16-5.29m.37-.21,2.73,4.56m153.16-94.19.13-.1.07-.11m-43-42.43-8.45,4.88-10.12,5.84-11.08,6.4-11.28,6.51-10.69,6.18-9.37,5.41-7.41,4.27-4.92,2.84L1278,1174l-.06,0m190.19-95.56-.5,0m-309.29,231.17-17.18-31.87M1577,1018.46l-.58.34-3.18,1.83-5.8,3.35-8.13,4.69-10.06,5.81-11.47,6.63-12.32,7.11-12.54,7.24-12.14,7-11.13,6.42m106.15,58.19,8.1-4.67,5.66-3.27,2.76-1.6.24-.14m18.31-31.7-.58.34-3.24,1.87-5.94,3.42-8.39,4.85-10.49,6.06m-.27-1.49,10.61-6.13,8.48-4.9,6-3.46,3.26-1.89.59-.34m-90.21,77.09-157.87,91.14m5.92,14,1.62,3.06m-.4.24.16-.1.24-.14m-43-56.23h.06m-75.61,99.43h0l0,0,.06,0,.11-.06.14-.08.18-.1.22-.13m117.51-42.31v0l.07.24v.25l0,.26-.07.25-.12.24-.15.22-.18.2m-6-19.31h0l.06.24,0,.26,0,.25-.07.25-.11.24-.16.23-.19.2m-6.66,25.45.11,0m-74.38,22,74.38-22m-71.17,18.35,73.3-21.49m-74.33,23,.07,0m2.94-5.15-.08.15-.16.19-.22.14m-110.05,132.49,17.42,30.18m254.91-187.41,17.42,30.18M1034.05,1546l-1.32.1-1.68-.46-1-.45-2.13-1.3-5-4.21-5.65-6.28-4.19-5.65-3.58-5.28-14-21.32-51.41-88.35-17.9-35.62-3.43-8.13-2.27-7.54-.93-6.18.07-2.4.16-1,.26-.83.79-1.18m-7.88,4.55-.65.84-.47,1.21-.32,2.21.56,6.16,2.26,7.74,1.93,4.49,2.16,4.51,1.1,2.23,2.16,4.47,8.89,17.77,2.27,4.42,4.59,8.81,4.67,8.76,9.57,17.42,4.89,8.64,10,17.17,5.11,8.52,10.44,16.9,2.66,4.2,5.36,8.36,15.23,22.91,2.83,4.13,4.42,5.66,4.45,4.4,4.72,3.27,2,.81,1.28.2,1.05-.15m609.3-338.35,9.71-3.67M1523.38,985l-2.48,3.35L1510.59,996m184.93,223.17,37.46,26.77,64.65,34.08,35.24,13.23,36.24,10.17,49.68,8.71,51,3m-277.19-98.25,2.89,2.32m-2.89-2.32-14.09-8.07-15.85-3.12-15.45,1.95-11.54,5m334.12,102.51v50.69M1588.68,655l-6.59,11.82L1555,728.13l-17.53,64.75L1530,859.55l2.73,67,1.86,13.89M1588.68,655l-10.3-6-12.1-7-21.5-12.41m-34.43,366,13.25-10.8,8.92-14.88,3.26-16.19-.6-9.59m-.57-3.67.57,3.67m859.67-314.52-11.95,6.9-12.1,7L2351,655M885.13,1351.87l-1.42,6.2,1.08,10.11,3.58,12.8,6,14.52,43.52,81.68,43.41,68.9,8.48,11.22,8.63,9.18,8,6.42,6.62,2.95,1.4.08m31-319.89,465.15-260m0,0-.24-.41m0,0-29.07,16.25-13.22,7.4M913,1354.47l7.88-4.56m0,0,69.1-59.59m0,0,6.13-4.51,10.45-6.8,13.67-8.38,15.4-9,9.83-5.57M1594,1237.42l41.68-24.83m0,0-.23-.42m0,0-303.86,181.06-154,91.79m0,0-15.42,9-15.17,8.49-13.27,7.06-9.78,4.79-3.79,1.56m0,0-86.16,30m0,0-7.88,4.55m504.88,215.32M1361,1778.68l-35.42-24.91-34.41-26.28-33.33-27.64-32.21-28.94-31-30.2-29.81-31.4-28.54-32.57L1109,1543.07M960.85,1286.45,945.3,1246l-13.93-41-12.29-41.53-10.64-42-9-42.36-7.26-42.69-5.57-42.94-3.76-42.06m1086.93,918.23-94.31-4.48-93.46-13.4-91.77-22.2L1601,1798.83m0,0-34.59-11.1-35.79-6.23m-4.74-16-27.13-1.72-32.56,2M910.63,1486.53l-5.09,2.93M976.5,814l-10.07,20.73a63.91,63.91,0,0,1-4.17,7.34l-15.65,23.69m521.45,153.48L1281.9,1123.33,1098,1226.11l-50.84,28.42m420.89-235.29-4.65-8-4.64-8M1044.3,1234.89,1021,1248.2l-22.5,13.39-19.22,12-13.6,9.15-4.82,3.71m0,0-19.77,17-31.32,27L896,1342.26l-2.7,2.33-2.7,2.33-2.71,2.33-2.79,2.62m0,0,15.59,1.4,12.26,1.19m.5-.42-.49.42m69.6-60-34.45,29.68L913.48,1354m133.69-99.51-16.09,9.16-17.53,10.39-15.17,9.41-11,7.35-4.74,3.6m611.43-57,4.65,8,4.64,8m-423.5,230.77,50-29.82,181-107.86L1594,1237.42M1113,1520.25l7.06-3,12.39-6.24,16.29-8.8,17.93-10.15,13.18-7.74m-153,66,43.24-15.06,42.93-15m-86.79,30.27.62-.22m-12.3,25.63,6.58-14.2,5.1-11.21m-11.68,25.41,4.66-1.45,4.38-1.53,4.36-1.52,4.36-1.52,4.35-1.52,17.1-6,30.69-10.73,24.62-8.62m0,0,10.41-4.56,16.62-8.44,21.15-11.49,23.35-13.27,14.84-8.73m392.41,575.08,8.87-11.24m-41.38-68.53.7,10.37,2.12,10.18,3.49,9.82,4.79,9.3,6,8.61,7.14,7.77,8.13,6.78,9,5.7M1555.28,1796v195.86m-18-3.91,18,3.91m0-206.11V1796m-454.81-315.58-13-22.44m0,0-2.26-5-1.25-5.35-.18-5.49.89-5.41,1.93-5.14,2.9-4.66,3.76-4,4.47-3.19m-80.61,108.79,83.31-48.1m14.18,22.13-.57-.51-1-1.31-1.44-2.07-1.79-2.74-2.1-3.32-2.31-3.79-2.45-4.11-2.5-4.28m300.81-382.71-54.17,32.42m54.17-32.42.55-.31.5-.3.45-.26.4-.22.32-.19.25-.14.16-.1.07,0m-9.22-22.53-.77,2.9m81.65,145.15,36.52,64M1394,1076.55l.11.66.51,1.31.88,1.92,1.22,2.47,1.52,2.91,6.3,11.31m12.21-37.93-4.28,2.51-4.1,2.46-3.77,2.34-3.3,2.12-2.72,1.84-2,1.48-1.28,1.07-.49.63m37-23.09-15,8.64m38.47-20.45-.78.1-1.57.58-2.3,1-3,1.44-3.49,1.8-3.91,2.1-4.19,2.31-4.31,2.46M1159.15,1398.2l-3.79-7.43m0,0,0,0,.08-.07.14-.09.18-.13.22-.14.26-.16.28-.17.3-.17m103.87-60,58.11-33.55m-162,93.52,43.45-25.09m268-307.2-2.09-3.58-2-3.43-1.94-3.16-1.77-2.77-1.51-2.28-1.22-1.73-.87-1.09-.5-.42m0,0-1.16-.31m-358.75,381.94,16.22,4.34m-9.61,35.87-16.22-4.35m40.82,47-24.6-42.6m9.61-35.87-4.17,3-3.51,3.76-2.71,4.37-1.81,4.81-.84,5.08.16,5.14,1.16,5,2.11,4.69m22.74-13.13-4.3,2.48-4.14,2.39-3.84,2.22-3.39,2-2.84,1.64-2.17,1.25-1.43.82-.63.37m91,5.87-23-45.14m-45.28,26.14,25.29,43.81m8.05-93.38.33.65.75,1.48,1.14,2.23,1.49,2.92,1.78,3.5,2,4,2.17,4.26,2.26,4.43m-58.41,3.4,46.47-26.83m-33.34,49.57-2.48-4.29-2.39-4.15-2.22-3.83-2-3.4-1.64-2.84-1.25-2.17-.83-1.42-.36-.64m58.41-3.4-45.28,26.14m421.05-187.55-24-41.66m12.45-30.94,33.57,58.15m-46-27.21L1486,1239.82m59.56-34.38-.64.36-1.42.82-2.17,1.26-2.84,1.63-3.4,2-3.83,2.22-4.15,2.39-4.29,2.48M1127,1505.9l.28-.2.23-.25.18-.29.12-.33.06-.34v-.34l-.08-.33-.14-.32m66.42-36.73.15.29.14.29.14.26.12.23.1.2.07.15,0,.1,0,0M1152,1493.1l0,0,0-.1-.08-.14-.11-.19-.13-.23-.15-.25-.16-.28-.17-.29m355.05-202.81-.07-.1-.15-.23-.23-.35-.29-.46-.36-.55-.4-.62-.44-.67-.45-.69m71-37.73-.78.35-.83.19-.86,0-.85-.14-.8-.3-.73-.45-.63-.59-.5-.69M1549.05,1264l-.06-.1-.14-.24-.21-.36-.27-.47-.33-.57-.37-.64-.4-.69-.41-.71m-352,208L1506,1288.59m-311.15,179.74L1152,1493.1m0,0-4.6,2.62-4.45,2.49-4.16,2.25-3.71,1.94-3.13,1.57-2.43,1.12-1.66.66-.81.15m0,0-12.38-3.32m72.79-280.11.22-.12,1.37-.8,1.61-.92,1.65-1,1.5-.87m0,3.86-.6.3-.64.35-.61.36-.51.34-.08.06M1136,1252.19l.55-.32,3.19-1.84,5.72-3.31,7.72-4.45,8.94-5.16,9.29-5.37,8.73-5,7.33-4.23m3.88,1.6-.39-.53-.46-.46-.5-.38-.52-.27-.54-.17-.53,0-.49.07-.45.18m-28.14,101.25-5.9,3.41-8.8,5.08-6.27,3.62-3.47,2-.67.38m7-60.38-10.6,6.11-8.51,4.92-6.06,3.5-3.36,1.93-.65.38m81.79-75.88,85.54-49.38m-85.57,53.24-.28-.6-.21-.6-.12-.59,0-.56.05-.5.13-.43.21-.34.29-.24m84.13,22.69h0m71.57-112.58.34-.2,1.38-.8,1.6-.92,1.65-1,1.51-.87m0,3.85-.6.3-.64.35-.61.36-.51.34-.13.09m8.66,9-.3.19-.31.19-.34.2-.33.2-.34.19-.32.18-.29.15-.25.13m-80.3,28.52.06,0,2-1.13,4.57-2.64,6.89-4,8.71-5,9.94-5.74,10.48-6,10.3-6,9.4-5.43,7.86-4.53m4,1.55-.39-.53-.46-.46-.5-.38-.54-.26-.54-.16-.54,0-.51.08-.47.2m10.13,12-2.23-3.76-4-6.68m-69,55.59-.68-1.38m0,0,2.78-1.61,5.38-3.1,7.63-4.41,9.41-5.43,10.56-6.1,11-6.37,10.81-6.24,9.88-5.71,8.32-4.8m-75.81,43.77h0l.38.44.31.7,0,.53,0,.1-.2.28,0,.06-.17.14-.2.14m75.81-46.17.24.34.29.28.31.24.33.17.34.09.34,0,.32,0,.28-.12m-6.1-16.71,82.74-47.77M1355.94,1129l-.28-.59-.2-.61-.13-.59,0-.56,0-.5.13-.42.22-.34.29-.24m115.6-51.49-.07,0h-.27l-.3.14m-32.25,7.45L1355.94,1129m0,0,2.72,4.61,3.45,5.84m76.61-62.07.55-.32m35-2.43-3.34-.85m0,0-8.38-1.56-8.25,0-7.85,1.63-7.19,3.18m-.55.32,7.15-3.15,7.72-1.57,8.06.08,8.12,1.72m-31.08,6.77-.29-.59-.2-.61-.13-.59,0-.56,0-.5.13-.43.22-.34.29-.23m28.93,1.14-7.58-1.61-7.51-.07-7.2,1.45-6.67,2.94m31.08-6.77,2.76,1.18m-4.88,2.88.1-.64.18-.65.22-.62.28-.59.31-.53.33-.44.35-.35.35-.24m-107.66,65,105.54-60.93m-105.54,60.93.17.37.13.38.08.37,0,.35,0,.31-.08.27-.14.21-.18.15m-194,112,322.42-186.15M1168,1253.92l-.13.08-.12.11-.12.12-.1.13-.09.15-.08.16-.07.18,0,.19m0,0-.48,1.22-.65,1.28-.82,1.29-.93,1.26-1,1.18-1.09,1.06-1.11.91-1.09.72m0,0-18,10.4m0,0-.87,3.48m348.5-208.95L1167.27,1255m76.17,5.94-9,5.22m270.35-156.09-227.31,131.24m210-163.41-346.23,199.9M1572,1076.34l-1.24-2.4m1.24,2.4-9,5.22-10.29,5.94-10.82,6.24-10.61,6.13-9.7,5.6-8.13,4.69-6,3.47-3.46,2-.79.46m67.79-44.2-.28.28-.16.41v.52l.13.55.13.3m-80.33-6.17-.14.09-.12.1-.12.12-.1.14-.09.15-.08.16-.07.18,0,.18m.77-1.12,10.75-6.21,11.73-6.77,12.12-7,11.9-6.87,11.08-6.41,9.71-5.61,7.86-4.53,5.61-3.24,3.07-1.77.56-.32m-87.43,58.89,2.27-9m100.75-50.43-.16.09-2.39,1.38-5.16,3-7.72,4.46-9.94,5.73-11.71,6.77-13,7.49-13.68,7.9-13.79,8-13.28,7.67-12.21,7m17.34,32.17-17.34-32.17m122.94-28.8-.16.09-2.45,1.42-5.3,3.06-7.91,4.56-10.18,5.88-12,6.94-13.3,7.68-14,8.1-14.13,8.15-13.62,7.87-12.51,7.22m-335.16,248.16-2,1.13-1.27.73-.57.33,0,0m3.83-2.21,7.78-4.5m-10.42,3.49.11.78.16.27.28.24.27.11.31,0h.3l.48-.11.73-.32m-10.6-14.13.89,1.81.58,1.7.28,1.54,0,1.32-.52,1-.91,0-1.48-1.34-.94-1.29-.87-1.35-.76-1.28-.72-1.29-.74-1.45-.71-1.67-.31-1.67.52-.81,1.18.15,1.37.84,1.33,1.25,1.34,1.75.49.79m8,13.12,2-7.8,1.43-2.69m306.1-291.16.29-.17,2.72-1.56,5.34-3.09,7.54-4.35,9.13-5.28,10-5.76,10-5.78,9.24-5.33,7.72-4.46,5.57-3.22,3-1.72.43-.25m3.89,1-.21.13-2.49,1.44-5.11,2.94-7.33,4.24-9,5.21-10.05,5.8-10.33,6-9.84,5.68-8.62,5-6.76,3.9-4.4,2.55-1.71,1h0m-7.63,18.33.09-.06,2.13-1.22,4.78-2.77,7.19-4.15,9.21-5.31m0,0,10.73-6.2,11.67-6.73,12-6.92,11.65-6.73,10.69-6.17,9.16-5.29,7.12-4.11,4.7-2.72,2-1.17.08,0m29.3,48.86-.26.12-.28,0h-.3l-.3-.08-.29-.13-.27-.19-.24-.23-.2-.28m-1.38-2.27,1.38,2.27m-21,9,19.57-11.3m-12,69.7-1,.57M1553,1177.4l-.6.34-.62.37-.63.36-.62.35-.56.33m0-2,.28-.15.3-.18.32-.18.31-.19.3-.17m6-1.54-2,1.16m2-1.16.53-.38.44-.48.35-.58m-16.58-13.09-.19.1-.19.11-.2.11-.19.11-.2.12-.19.11-.18.11-.17.1m14.77,14.82-2.53,1.46m0,0-.14,0h-.17l-.19-.07-.21-.12-.21-.17-.21-.22-.2-.25-.18-.28m4-.38-.14,0h-.17l-.19-.07-.21-.12-.21-.18-.21-.21-.19-.26-.19-.27m2.81-.35-.34.57-.44.48-.52.38m56.45-57.89-.23.13-2.71,1.57-5.55,3.2-8,4.59m0,0-10.79,6.23m11.11-6.69-.17.34-.08.07-.07,0m-10.48,5.78,0,.07,0,.08,0,.06,0,.06,0,.05,0,0,0,0-.06,0m-25.9,39.57.19,0,.12-.1h0m19.41-32.21.19,0,.11-.1h0m-3.38,1.93h-.18l-.21,0-.22,0-.24-.08-.24-.09-.25-.12-.25-.14-.23-.15m-16.86,32.4h-.17l-.2,0-.23,0-.24-.07-.24-.1-.25-.12-.25-.13-.23-.15m-12.75-13.63,9.22,16.07m0,0,2.53-1.46m0,0,.39-.28.34-.32.27-.38m0,0,18.67-31.77m-32.93,17.06.14-.05h.17l.19.07.21.13.21.17.21.22.2.25.18.28m31.42-18.14-31.42,18.14m33.6-21.35.34-.16h.16l0,.19-.21.37-.39.52-.55.65-.7.77-.81.86m28.6-39.87h0m0,0,0-.46-.1-.52-.11-.3-.1-.21m15.31-43.48-1.28.74-3.9,2.26-6.38,3.68-8.59,5-10.5,6.06m14.23,26.4,1.11-.62m-52,78.4-159.54,92.11m159.54-92.11.15-.13.11-.17.06-.22,0-.25,0-.28-.06-.3-.11-.31-.14-.3m-159.55,92.12L1550,1177.19m0,0-9.22-16.07m0-1.95-.15.12-.11.17-.06.22,0,.25,0,.29.06.29.11.31.15.3M1390.4,1271.26l-.49.28-.39.23-.21.12m1.09-2.58.14.3.11.3.07.3,0,.28,0,.26-.07.22-.11.17-.14.12m-11.72,6.76-1.86,1.08m0,0,0,0h0l0,0h0l0,0h-.11m12.76-7.32-3.19,1.84m3.19-1.84,0,0,.05,0,0,0,0,0,0-.06,0-.07,0-.06,0-.08m-3.5,2.29h0m-4.72,2.73-2.72,1.56m0,0,0,0,0,0h0l0,0h-.06l0,0h0m.27-.12.15-.12.1-.17.07-.22,0-.25,0-.28-.06-.3-.11-.31-.15-.3m7.44-2.34.05,0,0,0,0,0,0-.06,0-.06,0-.06,0-.07,0-.08m-.3.45-.31.14-.32.08h-.34l-.33,0-.32-.11-.29-.17-.25-.22-.2-.27m2.36.59-.1.06-.2.11-.3.17-.38.23-.46.27-.52.29-.56.32-.58.34-.57.33-.55.32-.5.29m4.72-2.73-.31.14-.32.08h-.34l-.33,0-.32-.11-.29-.17-.25-.22-.2-.27m-2.36,3.32.14-.12.11-.18.06-.21,0-.26,0-.28-.06-.3-.11-.31-.14-.3m0,0,.26-.13.28-.14.3-.16.29-.15.28-.16.26-.15.23-.14.19-.12.14-.09,2.17-1.37-2,1.25m-48.67-59.51,2.76-1,5.17.27,2.11.78m-69.65,98.62-.36.21-.31.18-.24.14-.19.1-.13.08-.06,0h0m109.58-39.92h0m2.66.14-.3.24-.36.17-.37.1-.39,0-.37-.06-.34-.14-.3-.2-.23-.27m192.08-134.24-191.42,110.51m191.72-111,0,.07,0,.08,0,.06,0,.06,0,0,0,0,0,0-.05,0m-191.42,110.51,0,0,0,0,0,0,0-.06,0,0,0-.07,0-.07,0-.07m-1.26,3-.06-.36v-.37l0-.37.11-.35.15-.34.2-.29.23-.24.26-.19m-7.87,29.8,1.86-1.07m-74,21.69-.51.38-.82.48-1.15.57m76.73-25.19,2.72-1.57m-3,3.64-74,21.69m74-21.69.16-.13.12-.18.1-.22,0-.27,0-.3,0-.32-.06-.33-.1-.32m-74.25,23.76.12-.09.1-.12.08-.14.07-.18,0-.2,0-.22v-.24l0-.24m-.42,1.43-.2.07-.08,0m.27-.9v.28l0,.14,0,.12,0,.11,0,.09-.07.09-.07.07m.7-1.54-.43.64m0,0-.83,1-1.18.91,0,0m0,0,0,0,.32-.28m4.6-6.67-.1.21-.17.19-.22.16m-3.55,6,.39-.23.48-.38m0,0-1.77,1m0,0,1.79-1.72,1.49-2.15,1.17-2.54m0,0,.07-.18m0,0-9.8,5.66m303.78-198.66.1.2.08.2.06.19.05.2,0,.19v.35l0,.15M1586.65,1075l-232.92,134.48m14.23,26.4,232.92-134.48m0,0-14.23-26.4m-296.73,171.32-3.23-.65-2-.65-2-1m-8.47,4.89,8.47-4.89m.65,6.09-.11.06m20.33,46-6.24,3.6m-14.09-49.55-.91.43-1,.25-1.07.09-1.14-.07-1.18-.25-1.21-.41-1.25-.57-1.25-.73m0,0-5-2.61-4.83-1.32-4.43,0-3.86,1.37-1.79,1.29m18.22,64.47.19.22.27.21.48.19h.92l1-.39m.39-.22-.39.22m13.93-4,2-.91,1.81-1.31,1.56-1.68,1.3-2,1-2.36m0,0,0-.06,0-.06,0-.05,0,0,0,0,0,0,0,0,0,0m77-44.43-56.41,32.57m56.72-33,0,.08,0,.07,0,.06,0,.06,0,.06,0,.05,0,0-.06,0m-56.1,32.12,0,.08,0,.07,0,.06,0,.06,0,.05,0,0,0,0,0,0m0,0-1.88,1.08-1.85,1.08-1.83,1-1.81,1-1.78,1-1.75,1-1.72,1-1.69,1m14.31-8.26-.11,0-.14,0-.16-.08-.18-.14-.19-.17-.19-.23-.19-.25-.18-.28m-13,9.41,1-.92.23-.42.14-.7,0-.3-.11-.3M1585,1133.32l-.63.43-.73.65-.82.83-.88,1-.9,1.11-.9,1.19-.85,1.23-.77,1.22m6.48-7.65,10.8-6.24m0,0,6.43-24.84m0,0-1.09.61m0,0-232.92,134.48m-50,50,56.41-32.57m4.19,1.49-.33-.58-.42-.5-.49-.38-.56-.27-.59-.14h-.62l-.6.13-.58.26m4.19,1.49,7.58,17m0,0,3.2-1.84m0,0-6.52-17.63m0,0-.17-.67-.07-.7.05-.7.17-.69.28-.64.37-.58.46-.48.54-.38m0,0,191.41-110.52m0,0,.49-.21.33,0,.17.26v.49l-.17.69-.35.88-.49,1-.63,1.13m0,0-18.68,31.77m0,0,2-1.17m0,0,19.73-32.37m-262,145.68.22.15.23.14.23.12.22.1.21.08.2.06.18,0h.16m50-50-10.47,7-10.62,8.83-10.38,10.38-9.76,11.55-8.78,12.3m49.72-51.5.1.19.08.2.06.2,0,.2,0,.19v.35l0,.15m-63.38,56.09-21.47-43.37m21.47,43.37,1.41-.81,1.42-.82,1.44-.84,1.46-.84,1.47-.85,1.49-.86,1.51-.87,1.52-.88m0,0,1.88-2.76,8.22-11,18-19.41,19-15,4.31-2.64m0,0-14.23-26.4m0,0-8,4.61-8.53,4.92-8.92,5.15-9.15,5.28-9.23,5.33-9.15,5.28-8.89,5.13-8.48,4.9m7.91,57.17,1.22-.82,3.76-4.86,1.77-7-.4-8.62-2.51-9.42-4.41-9.38m0,0-5.92-8.52-6.9-6.88-7.27-4.65-7-2-6.09.83-1.32.65m6.55,58.74,4.17,3.08,7.21,3.36,6.62.59,5.43-2.23,3.77-4.86,1.76-7.06-.39-8.62-2.51-9.42-4.42-9.38m0,0-5.92-8.51-6.9-6.89-7.27-4.65-7-2-6.09.83-4.65,3.58-2.8,6-.69,7.92.58,5.15m26.24,27.14,2.58-3,.85-4.88-1-6-2.71-6.18m0,0-4-5.43-4.68-3.87-4.65-1.7-3.92.72m60.14,50.63.54-.31,1.55-.9,2.43-1.4,3.07-1.77m104.21-55.11,5.55-3.2,4.13-2.38,2.53-1.47.86-.49m-177.37,79.13,2.08-1.2,4.75-2.75,2.1-1.21.09,0m-75.9,43.82.09,0,2.11-1.22,4.75-2.74,2.08-1.2m54.68-26.51,9.56-5.52,8.41-4.86,6.33-3.66,3.93-2.26,1.33-.77m-106.25,61.35,1.33-.77,3.93-2.27,6.33-3.66,8.41-4.85,9.56-5.52m-25.14,63.09.19-.11.57-.33.93-.54,1.25-.72,1.52-.88,1.74-1,1.88-1.09,2-1.13m-10,5.8,2.19,3.79m7.85-9.59,42.11-24.31m-42.11,24.31,2.19,3.79m270.14-161,2-1.13,1.88-1.09,1.74-1,1.52-.88,1.25-.72.93-.54.57-.33.2-.11m0,0,2.19,3.79m-159.08,51.37.15-.09.43-.25.7-.4,1-.55,1.15-.66,1.31-.76,1.42-.82,1.48-.86m94.43-54.51,15.34,26.56m-22.93-22.18,1.48-.86,1.43-.82,1.31-.76,1.15-.66.94-.54.7-.41.44-.25.14-.08m-163.38,99.38,71.15-41.07m137-48.77,2.19,3.79m-39.26,17.61,37.07-21.4m-52.41-5.16,15.34,26.56m-102.18,23.57,86.84-50.13m-86.84,50.13,2.2,3.8m-161,92.92,1.47-.85,4.34-2.5,7-4.07,9.44-5.45,11.48-6.63,13-7.52,14.07-8.12,14.53-8.39,14.4-8.32m-22,43.08,2.2,3.79m19.82-46.87,15.34,26.57M1193,1464.54l11.24-6.5m299.57-173-11.25,6.49m-310.84,144.05.29-.17.87-.5,1.4-.81,1.89-1.09,2.3-1.33,2.62-1.51,2.85-1.65,3-1.71m7.34,31.18,2.09,3.61m-24.61-26,15.34,26.56m-.16-35.33,272.33-157.23m0,0,3-1.71,2.85-1.64,2.62-1.51,2.3-1.33,1.89-1.09,1.4-.81.87-.5.29-.17m8.15,30.71,2.08,3.61m-10.23-34.32,15.34,26.57M1136,1252.19l-.54.38-.46.48-.36.56-.25.62-.12.65v.66l.13.66.24.62m0,0,8.34,16.35m-.13.08-5.85,3.37-5.26,3-4.59,2.65-3.86,2.23-3.06,1.76-2.21,1.28-1.35.78-.45.26m0,0-.24.15-.24.17-.22.18-.21.2-.19.21-.19.22-.16.23-.15.24m0,0-2.58,4.46m0,0,22.19,43.54m33.84-84.3-.34.21-.31.25-.3.27-.27.31-.23.32-.21.35-.17.36-.15.37m-5.22,6.48-18,10.41m23.24-16.89-.56,1.3-.94,1.54-1.09,1.34m0,0-.25.31-1.15,1.11-.89.67-.34.21m230.38-75,.11-.36m5.18-14.55,0-.11.2-.3.07,0m-117.48-3-.54.38-.46.49-.36.55-.25.62-.13.65v.66l.12.66.25.62m0,0,6.39,12.53m190.13-112.19-1.24-.28-1.65-.45m30.17,40.14,1.42,2.28m-3.79-2.87.31-.14.32-.08.34,0,.33,0,.32.11.29.17.25.23.21.27m75.27-95.34h-.29l-.28,0-.29,0-.27.07-.28.08-.27.1-.26.12-.25.14m15.59-.59H1577m33.32,30.68-19.92-30.68m-427.66,341.21.25.35.31.3.36.22.41.15.42.07h.43l.42-.1.39-.17m-19.43-29.27,16.44,28.46M1475.4,1059.5l6,10.44m75.9-43.82-6-10.44m-74.85,39.93-1,3.89m75.9-43.82-3.89-1m24.89,5.87-1.31-2.28m-103.22,59.6,1.31,2.28M1612,1118.05l.1-.06.09-.07.09-.07.08-.08.08-.08.08-.09.06-.1.06-.1m-99.25-7.19,2.79,5.48m63.46-36.65-5.73-8.83m-14.72,103,19.72-32.37m33.73-23.41,18.31-31.7m0,0,.09-.19.07-.2,0-.22,0-.21v-.22l0-.22-.06-.21-.09-.2m0,0-13.64-26.76m-240.86,222h0l0,0,0,0,0,0,0,0,0,0,0,0,0,0m12.49-7.21.25-.18.22-.21.17-.26.13-.27.08-.3,0-.31,0-.3-.08-.3m-119.73,40.45,1.49,2.29m0,0,.2.25.25.22.29.17.32.11.32,0,.33,0,.33-.07.3-.14m115.9-43.3-6.51-17.63m-81.45,49.1,74.32-22m-68.92,14.55.1,0m27.47-80.13-52.43,30.27m8.76,63.51,11.86-6.86m-38.93-59-8.21,4.74m.11.19-6.3,3.63m35.06,60.72,6.3-3.63M1252.42,1269l-7.42,4.29m17.53,30.36,7.42-4.29m42.61,20.27,2.2,3.8m135.82-48.06-13.15-22.77m-244.25,117.74,2.19,3.79m75.9-43.82-2.19-3.79m-88.88,56.38,7.88,13.66m106.26-61.35-7.89-13.66m-117.46,86,15.34,26.56m-252.42-93.71,484.83-281.18"/><line class="cls-5" x1="1934.07" y1="37.16" x2="1934.07" y2="85.59"/><line class="cls-5" x1="2060.2" y1="208.14" x2="2060.09" y2="208.14"/><line class="cls-5" x1="2060.09" y1="271.26" x2="2061.19" y2="271.27"/><line class="cls-5" x1="2060.2" y1="208.14" x2="2060.09" y2="200.39"/><line class="cls-5" x1="2061.19" y1="274.38" x2="2060.09" y2="274.38"/><line class="cls-5" x1="1994.36" y1="355.06" x2="1988.22" y2="355.06"/><line class="cls-5" x1="2086.83" y1="303.92" x2="2060.09" y2="303.92"/><line class="cls-5" x1="2059.47" y1="321.21" x2="2086.83" y2="321.21"/><line class="cls-5" x1="1932.32" y1="92.86" x2="1932.32" y2="35.46"/><line class="cls-5" x1="2045.19" y1="349.43" x2="2062.51" y2="349.43"/><polyline class="cls-5" points="1916.36 316.1 1913.89 316.1 1909.97 316.1 1905.53 316.1 1900.75 316.1 1895.79 316.1"/><line class="cls-5" x1="2042.56" y1="26.39" x2="2056.77" y2="26.26"/><polyline class="cls-5" points="2056.77 26.26 2056.77 17.46 2056.77 6.99 2056.77 -4.22 2056.77 -15.19 2056.77 -24.93 2056.77 -32.6 2056.77 -37.51 2056.77 -39.23"/><line class="cls-5" x1="2056.77" y1="126.31" x2="2056.77" y2="29.09"/><line class="cls-5" x1="2056.77" y1="29.09" x2="2042.56" y2="29.19"/><line class="cls-5" x1="1992.58" y1="49.12" x2="1998.74" y2="49.02"/><line class="cls-5" x1="1998.74" y1="49.45" x2="1993.43" y2="49.53"/><polyline class="cls-5" points="1998.41 229.27 1998.44 229.44 1998.5 229.54"/><polyline class="cls-5" points="2056.77 213.48 2056.77 203.72 2056.77 192.04 2056.77 179.24 2056.77 166.22 2056.77 153.87 2056.77 143.05 2056.77 134.5 2056.77 128.81 2056.77 126.39 2056.77 126.31"/><line class="cls-5" x1="2044.43" y1="338.79" x2="2044.64" y2="338.34"/><polyline class="cls-5" points="2041.97 463.11 2041.97 462.44 2041.97 458.77 2041.97 452.07 2041.98 442.68 2041.97 431.06 2041.97 417.82 2041.97 403.59 2041.97 389.11 2041.97 375.09 2041.97 362.24"/><polyline class="cls-5" points="1938.51 425.07 1938.5 434.43 1938.5 440.96 1938.51 444.15 1938.51 444.43"/><polyline class="cls-5" points="1956.81 476.13 1956.81 475.46 1956.81 471.73 1956.81 464.87 1956.81 455.18 1956.81 443.07"/><polyline class="cls-5" points="1958.23 443.58 1958.23 455.82 1958.23 465.62 1958.23 472.56 1958.23 476.33 1958.23 477.01"/><line class="cls-5" x1="1936.58" y1="360.34" x2="1936.58" y2="178.05"/><line class="cls-5" x1="1921.5" y1="176.18" x2="1918.05" y2="176.05"/><polyline class="cls-5" points="1918.04 175.59 1918.05 175.77 1918.05 176.06"/><line class="cls-5" x1="1988.25" y1="166.92" x2="1988.22" y2="166.98"/><polyline class="cls-5" points="1939.93 51.78 1939.93 51.78 1939.93 51.81 1939.93 51.88 1939.93 52 1939.93 52.17 1939.93 52.38 1939.93 52.63"/><polyline class="cls-5" points="1917.82 175.55 1917.8 175.55 1917.56 175.48 1917.33 175.37 1917.12 175.22 1916.94 175.03 1916.79 174.81 1916.67 174.57 1916.59 174.31"/><polyline class="cls-5" points="1936.34 178.73 1936.33 178.72 1936.09 178.66 1935.86 178.55 1935.65 178.4 1935.47 178.21 1935.32 178 1935.2 177.75 1935.12 177.49"/><line class="cls-5" x1="1916.41" y1="158.99" x2="1916.39" y2="159.11"/><line class="cls-5" x1="1934.54" y1="83.71" x2="1916.39" y2="159.11"/><line class="cls-5" x1="1936.09" y1="88.3" x2="1918.05" y2="162.53"/><line class="cls-5" x1="1935.34" y1="86.68" x2="1935.29" y2="86.73"/><polyline class="cls-5" points="1938.28 91.85 1938.19 91.7 1938.11 91.47 1938.09 91.21"/><line class="cls-5" x1="1878.38" y1="244.12" x2="1843.54" y2="244.12"/><line class="cls-5" x1="1844.99" y1="416.86" x2="1843.32" y2="427.11"/><polyline class="cls-5" points="1808.91 465.37 1767 484.42 1705.15 523.37 1676.08 547.28 1649.15 573.58 1616.77 612.24 1588.68 654.95"/><line class="cls-5" x1="1812.36" y1="464.03" x2="1808.91" y2="465.37"/><polyline class="cls-5" points="1812.36 464.03 1826.4 455.86 1837.03 443.69 1843.32 427.11"/><polyline class="cls-5" points="2350.96 654.95 2344.01 643.34 2304.43 589.17 2257.12 541.62 2203.1 501.85 2143.69 470.7 2130.73 465.37"/><polyline class="cls-5" points="2095.12 416.8 2097.85 433.67 2106.28 448.84 2118.66 459.75 2127.28 464.03"/><line class="cls-5" x1="2130.73" y1="465.37" x2="2127.28" y2="464.03"/><polyline class="cls-5" points="2095.12 416.8 2095.58 383.5 2095.78 368.34"/><polyline class="cls-5" points="1844.99 416.86 1840.12 63.18 1837.62 -116.06"/><polyline class="cls-5" points="1420.64 45.21 1435.63 22.68 1450.21 -6.5"/><polyline class="cls-5" points="2519 45.21 2504.01 22.68 2489.43 -6.51"/><polyline class="cls-5" points="2095.78 368.34 2098.72 155.07 2101.65 -55.56 2102.46 -113.8"/><polyline class="cls-5" points="2095.78 368.34 2105.08 368.34 2114.36 368.34"/><polyline class="cls-5" points="1843.86 368.34 1834.56 368.34 1825.28 368.34"/><polyline class="cls-5" points="1837.18 -113.8 1837.99 -55.56 1840.92 155.08 1843.86 368.34"/><line class="cls-5" x1="2061.19" y1="271.27" x2="2060.2" y2="208.14"/><polyline class="cls-5" points="2061.19 271.26 2061.19 271.89 2061.19 272.47 2061.19 273 2061.19 273.45 2061.19 273.83 2061.19 274.11 2061.19 274.3 2061.19 274.38"/><line class="cls-5" x1="2085.31" y1="277.66" x2="2083.19" y2="275.54"/><line class="cls-5" x1="1916.66" y1="273.68" x2="1843.02" y2="273.33"/><polyline class="cls-5" points="2083.18 275.54 2082.56 275.31 2081.17 275.09 2079.07 274.89 2076.32 274.72 2073.04 274.57 2060.09 274.38"/><polyline class="cls-5" points="2086.83 303.92 2086.8 298.96 2086.72 294.18 2086.58 289.75 2086.39 285.82 2086.16 282.55 2085.9 280.04 2085.61 278.39 2085.31 277.66"/><line class="cls-5" x1="2086.83" y1="321.21" x2="2086.83" y2="303.92"/><polyline class="cls-5" points="2085.31 347.46 2085.61 346.73 2085.9 345.08 2086.16 342.58 2086.39 339.31 2086.58 335.38 2086.72 330.95 2086.81 326.17 2086.83 321.21"/><line class="cls-5" x1="1930.47" y1="33.47" x2="1930.47" y2="100.57"/><polyline class="cls-5" points="2062.51 349.43 2066.65 349.41 2070.64 349.35 2074.35 349.24 2077.63 349.1 2080.37 348.94 2082.47 348.74 2083.85 348.53 2084.47 348.31"/><line class="cls-5" x1="2084.47" y1="348.31" x2="2085.31" y2="347.47"/><line class="cls-5" x1="1847.69" y1="316.1" x2="1895.79" y2="316.1"/><line class="cls-5" x1="1916.36" y1="342.35" x2="1849.22" y2="342.35"/><line class="cls-5" x1="1895.79" y1="316.1" x2="1895.79" y2="273.58"/><polyline class="cls-5" points="1895.79 342.35 1895.79 341.62 1895.79 339.98 1895.79 337.47 1895.79 334.19 1895.79 330.27 1895.79 325.84 1895.79 321.06 1895.79 316.1"/><polyline class="cls-5" points="1843.32 266.56 1843.44 266.56 1843.71 266.54 1844.13 266.52 1844.68 266.49 1845.33 266.46 1846.07 266.42 1846.87 266.38 1847.69 266.33"/><polyline class="cls-5" points="1844.84 346.73 1844.93 345.88 1845.18 345.06 1845.58 344.3 1846.13 343.64 1846.79 343.09 1847.54 342.69 1848.36 342.44 1849.22 342.35"/><polyline class="cls-5" points="1843.32 316.1 1843.44 316.1 1843.72 316.1 1844.13 316.1 1844.68 316.1 1845.33 316.1 1846.07 316.1 1846.87 316.1 1847.69 316.1"/><line class="cls-5" x1="1843.54" y1="-92.77" x2="1843.53" y2="266.55"/><polyline class="cls-5" points="2060.09 23.7 2060.09 23.96 2060.09 25.55 2060.09 27.39 2060.09 29.3 2060.09 31.04"/><polyline class="cls-5" points="2056.77 29.09 2056.81 28.41 2056.82 27.68 2056.81 26.97 2056.78 26.36 2056.77 26.26"/><polyline class="cls-5" points="2060.09 -35.73 2060.09 -35.09 2060.09 -31.41 2060.09 -24.8 2060.09 -15.89 2060.09 -5.57 2060.09 5.16 2060.09 15.25 2060.09 23.7"/><polyline class="cls-5" points="2056.77 26.26 2057.43 26.19 2058.05 26.03 2058.63 25.79 2059.13 25.47 2059.54 25.08 2059.84 24.65 2060.03 24.18 2060.09 23.7"/><line class="cls-5" x1="2060.09" y1="31.04" x2="2060.09" y2="129.81"/><polyline class="cls-5" points="2056.77 29.09 2057.43 29.14 2058.05 29.26 2058.63 29.45 2059.13 29.7 2059.54 29.99 2059.84 30.32 2060.03 30.67 2060.09 31.04"/><polyline class="cls-5" points="2060.09 210.84 2060.09 211.23 2060.09 212.82 2060.09 214.67 2060.09 216.57 2060.09 218.31"/><polyline class="cls-5" points="2056.77 216.36 2056.81 215.69 2056.83 214.96 2056.82 214.25 2056.78 213.63 2056.77 213.48"/><polyline class="cls-5" points="2044.64 216.47 2044.62 216.13 2044.61 215.75 2044.6 215.36 2044.6 214.97 2044.6 214.59 2044.61 214.22 2044.62 213.89 2044.64 213.61"/><polyline class="cls-5" points="2060.09 129.81 2060.09 129.88 2060.09 132.14 2060.09 137.43 2060.09 145.37 2060.09 155.43 2060.09 166.91 2060.09 179.01 2060.09 190.9 2060.09 201.76 2060.09 210.84"/><polyline class="cls-5" points="2056.77 213.48 2057.43 213.41 2058.05 213.24 2058.63 212.99 2059.13 212.66 2059.54 212.27 2059.84 211.82 2060.03 211.34 2060.09 210.84"/><polyline class="cls-5" points="2044.64 213.61 2049.01 213.56 2056.77 213.48"/><line class="cls-5" x1="2043.1" y1="125.97" x2="2044.64" y2="126.08"/><polyline class="cls-5" points="2044.64 126.08 2044.64 129.28 2044.64 135.5 2044.64 144.31 2044.64 155.17 2044.64 167.37 2044.64 180.12 2044.64 192.6 2044.64 204 2044.64 213.61"/><polyline class="cls-5" points="2044.64 126.08 2044.62 126.08 2044.05 126.19 2043.29 126.11 2042.85 125.8 2042.79 125.72 2042.64 125.41 2042.62 125.33 2042.58 125.12 2042.56 124.87"/><polyline class="cls-5" points="2044.64 213.61 2044.23 213.65 2043.83 213.76 2043.47 213.91 2043.16 214.12 2042.91 214.36 2042.72 214.64 2042.6 214.94 2042.56 215.25"/><line class="cls-5" x1="2060.09" y1="218.31" x2="2060.09" y2="313.85"/><polyline class="cls-5" points="2056.77 216.36 2057.42 216.41 2058.05 216.54 2058.63 216.72 2059.13 216.97 2059.54 217.26 2059.84 217.59 2060.03 217.95 2060.09 218.31"/><polyline class="cls-5" points="2046.88 344.18 2046.93 344.13 2047.06 343.88 2047.1 343.56"/><line class="cls-5" x1="2056.77" y1="311.9" x2="2056.77" y2="216.36"/><polyline class="cls-5" points="2056.77 216.36 2051.42 216.41 2044.64 216.47"/><line class="cls-5" x1="2060.09" y1="313.85" x2="2060.09" y2="314.5"/><line class="cls-5" x1="2044.69" y1="346.02" x2="2047.1" y2="343.56"/><polyline class="cls-5" points="2047.1 343.56 2052.64 337.08 2056.73 329.92 2059.24 322.31 2060.09 314.5"/><polyline class="cls-5" points="2060.09 313.85 2059.24 321.62 2056.73 329.1 2052.64 336.03 2047.09 342.21"/><polyline class="cls-5" points="2056.77 311.9 2057.42 311.95 2058.05 312.08 2058.63 312.26 2059.13 312.51 2059.54 312.8 2059.84 313.13 2060.03 313.49 2060.09 313.85"/><polyline class="cls-5" points="2044.64 338.34 2049.82 332.58 2053.63 326.12 2055.98 319.15 2056.77 311.9"/><line class="cls-5" x1="2047.09" y1="342.21" x2="2044.69" y2="344.01"/><polyline class="cls-5" points="2044.64 338.34 2045.14 338.75 2045.61 339.22 2046.04 339.73 2046.41 340.26 2046.71 340.8 2046.93 341.31 2047.06 341.79 2047.09 342.21"/><line class="cls-5" x1="2044.64" y1="216.47" x2="2044.64" y2="338.34"/><polyline class="cls-5" points="2044.64 216.47 2044.23 216.44 2043.84 216.36 2043.48 216.24 2043.16 216.09 2042.91 215.91 2042.72 215.7 2042.6 215.48 2042.56 215.25"/><line class="cls-5" x1="2042.56" y1="-8.83" x2="2042.56" y2="363.46"/><line class="cls-5" x1="2041.97" y1="362.24" x2="2041.97" y2="-10.05"/><line class="cls-5" x1="1998.74" y1="52.95" x2="1998.74" y2="42.51"/><line class="cls-5" x1="2035.27" y1="355.76" x2="2035.27" y2="-44.04"/><line class="cls-5" x1="1994.36" y1="429.82" x2="1997.05" y2="429.96"/><polyline class="cls-5" points="1994.36 429.82 1994.36 419.38 1994.36 407.5 1994.36 395.01 1994.36 382.75 1994.36 371.55 1994.36 362.17 1994.36 355.25 1994.36 351.25 1994.36 350.34"/><polyline class="cls-5" points="1998.74 431.15 1998.64 430.77 1998.36 430.42 1997.92 430.15 1997.38 429.99 1997.05 429.96"/><polyline class="cls-5" points="2042.56 363.46 2042.55 363.3 2042.53 363.14 2042.48 362.99 2042.41 362.83 2042.33 362.68 2042.23 362.53 2042.11 362.38 2041.97 362.24"/><polyline class="cls-5" points="2042.56 363.46 2042.56 375.88 2042.56 389.42 2042.56 403.42 2042.56 417.16 2042.56 429.96 2042.56 441.18 2042.56 450.25 2042.56 456.72 2042.56 460.27 2042.56 460.92"/><line class="cls-5" x1="2035.27" y1="355.76" x2="2041.97" y2="362.24"/><polyline class="cls-5" points="2035.27 474.71 2035.27 474.53 2035.28 471.77 2035.27 465.8 2035.27 456.89 2035.28 445.42 2035.27 431.89 2035.27 416.9 2035.27 401.11 2035.27 385.19 2035.27 369.85 2035.27 355.75"/><line class="cls-5" x1="1998.74" y1="354.69" x2="2035.27" y2="355.76"/><polyline class="cls-5" points="1998.74 476.62 1998.74 476.44 1998.74 473.61 1998.74 467.49 1998.74 458.36 1998.74 446.6 1998.74 432.73 1998.74 417.37 1998.74 401.17 1998.74 384.86 1998.74 369.13 1998.74 354.69"/><polyline class="cls-5" points="2060.09 357.42 2060.09 357.76 2060.09 360.9 2060.09 367.07 2060.09 375.78 2060.09 386.32 2060.09 397.84 2060.09 409.4 2060.09 420.07 2060.09 428.99 2060.09 435.43 2060.09 438.87 2060.09 439.36"/><polyline class="cls-5" points="2057.24 442.21 2057.24 441.96 2057.24 439.09 2057.24 433.2 2057.24 424.72 2057.24 414.3 2057.24 402.69 2057.24 390.77 2057.24 379.41 2057.24 369.46 2057.24 361.65 2057.24 356.57 2057.24 354.59 2057.24 354.57"/><polyline class="cls-5" points="2045.19 338.8 2045.19 338.91 2045.19 341.36 2045.19 346.89 2045.19 355.19 2045.19 365.82"/><polyline class="cls-5" points="2045.19 365.82 2045.19 378.21 2045.19 391.68 2045.19 405.52 2045.19 418.97 2045.19 431.32 2045.19 441.89 2045.19 450.11 2045.19 455.54 2045.19 457.9 2045.19 457.99"/><polyline class="cls-5" points="1988.22 458.93 1988.26 458.65 1988.36 458.38 1988.51 458.13 1988.73 457.91 1988.99 457.72 1989.29 457.58 1989.61 457.5 1989.95 457.46"/><line class="cls-5" x1="1992.61" y1="457.4" x2="1989.95" y2="457.46"/><line class="cls-5" x1="1992.61" y1="434.8" x2="1992.61" y2="457.4"/><line class="cls-5" x1="1938.27" y1="412.11" x2="1938.27" y2="410.97"/><polyline class="cls-5" points="1916.36 362.8 1916.36 362.11 1916.36 361.39 1916.36 360.66 1916.36 359.95 1916.36 359.3"/><polyline class="cls-5" points="1918.05 360.28 1918.05 360.61 1918.04 360.96 1918.04 361.32 1918.05 361.69 1918.05 362.03"/><line class="cls-5" x1="1916.36" y1="368.03" x2="1916.36" y2="365.72"/><polyline class="cls-5" points="1916.36 368.03 1916.43 368.68 1916.62 369.31 1916.95 369.9"/><polyline class="cls-5" points="1936.58 362.08 1936.58 361.87 1936.59 361.65 1936.59 361.42 1936.59 361.19 1936.59 360.97 1936.58 360.75 1936.58 360.53 1936.58 360.33"/><line class="cls-5" x1="1916.36" y1="365.72" x2="1916.36" y2="362.8"/><polyline class="cls-5" points="1916.36 362.8 1916.39 362.65 1916.49 362.51 1916.64 362.38 1916.85 362.27 1917.11 362.17 1917.4 362.1 1917.72 362.05 1918.05 362.03"/><polyline class="cls-5" points="1916.36 365.72 1916.39 365.58 1916.49 365.44 1916.64 365.31 1916.85 365.19 1917.11 365.1 1917.4 365.02 1917.72 364.98 1918.05 364.95"/><polyline class="cls-5" points="1916.95 367.57 1916.62 366.99 1916.43 366.37 1916.36 365.72"/><polyline class="cls-5" points="1938.27 443.56 1938.27 443.28 1938.27 440.15 1938.27 433.75 1938.27 424.57"/><line class="cls-5" x1="1938.27" y1="424.57" x2="1938.27" y2="412.11"/><polyline class="cls-5" points="1938.51 425.07 1938.3 424.75 1938.28 424.66 1938.27 424.57"/><polyline class="cls-5" points="1938.5 412.6 1938.45 412.54 1938.4 412.48 1938.36 412.43 1938.33 412.36 1938.3 412.3 1938.28 412.24 1938.27 412.18 1938.27 412.11"/><polyline class="cls-5" points="1916.95 369.9 1916.89 370.08 1916.92 370.24 1916.93 370.25"/><polyline class="cls-5" points="1935.12 403.17 1935.07 403.36 1935.1 403.51 1935.1 403.52"/><polyline class="cls-5" points="1935.12 399.62 1935.2 399.46 1935.32 399.29 1935.47 399.12 1935.65 398.95 1935.86 398.79 1936.09 398.63 1936.33 398.49 1936.58 398.36"/><polyline class="cls-5" points="1916.95 367.57 1917.03 367.41 1917.14 367.24 1917.3 367.07 1917.48 366.9 1917.68 366.74 1917.91 366.58 1918.15 366.44 1918.4 366.31"/><line class="cls-5" x1="1936.58" y1="362.08" x2="1918.05" y2="362.03"/><line class="cls-5" x1="1918.05" y1="362.03" x2="1918.05" y2="364.95"/><polyline class="cls-5" points="1918.05 364.95 1918.09 365.43 1918.21 365.88 1918.4 366.31"/><line class="cls-5" x1="1918.4" y1="366.31" x2="1936.58" y2="398.36"/><polyline class="cls-5" points="1938.27 361.31 1938.24 361.46 1938.14 361.6 1937.99 361.73 1937.78 361.85 1937.52 361.94 1937.23 362.02 1936.91 362.06 1936.58 362.08"/><line class="cls-5" x1="1936.58" y1="398.36" x2="1936.58" y2="362.08"/><polyline class="cls-5" points="1938.27 401.85 1938.24 402.23 1938.14 402.37 1937.99 402.25 1937.78 401.88 1937.52 401.29 1937.23 400.48 1936.91 399.49 1936.58 398.36"/><line class="cls-5" x1="1956.81" y1="443.07" x2="1956.81" y2="443.07"/><polyline class="cls-5" points="1956.81 443.07 1957.18 443.33 1957.68 443.51 1958 443.56 1958.23 443.58"/><polyline class="cls-5" points="1988.22 478.58 1988.22 477.09 1988.22 472.59 1988.22 465.23 1988.22 455.3 1988.22 443.18"/><line class="cls-5" x1="1958.24" y1="442.31" x2="1958.23" y2="443.58"/><line class="cls-5" x1="1916.36" y1="359.3" x2="1916.36" y2="175.08"/><polyline class="cls-5" points="1916.36 359.3 1916.39 359.49 1916.49 359.67 1916.64 359.84 1916.85 359.99 1917.11 360.11 1917.4 360.2 1917.72 360.26 1918.05 360.28"/><line class="cls-5" x1="1918.05" y1="176.05" x2="1918.05" y2="360.28"/><line class="cls-5" x1="1918.05" y1="360.28" x2="1936.58" y2="360.34"/><polyline class="cls-5" points="1938.27 361.31 1938.24 361.13 1938.14 360.95 1937.99 360.78 1937.78 360.64 1937.52 360.51 1937.23 360.42 1936.91 360.36 1936.58 360.33"/><polyline class="cls-5" points="1916.36 175.08 1916.36 174.51 1916.36 174.06 1916.36 173.82"/><polyline class="cls-5" points="1918.05 176.06 1917.72 176.03 1917.4 175.97 1917.11 175.88 1916.85 175.76 1916.64 175.61 1916.49 175.44 1916.39 175.26 1916.36 175.08"/><line class="cls-5" x1="1916.36" y1="161.55" x2="1916.36" y2="159.4"/><polyline class="cls-5" points="1916.36 159.4 1916.36 159.36 1916.36 159.32 1916.36 159.29 1916.37 159.25 1916.37 159.22 1916.38 159.18 1916.38 159.15 1916.39 159.11"/><line class="cls-5" x1="1916.36" y1="173.82" x2="1916.36" y2="170.13"/><polyline class="cls-5" points="1916.36 173.82 1916.36 173.88 1916.38 173.95 1916.39 174.01 1916.42 174.07 1916.45 174.14 1916.49 174.19 1916.54 174.25 1916.59 174.31"/><line class="cls-5" x1="1916.36" y1="170.13" x2="1916.36" y2="170.13"/><line class="cls-5" x1="1916.36" y1="164.68" x2="1916.36" y2="161.55"/><polyline class="cls-5" points="1916.36 161.55 1916.36 161.51 1916.36 161.48 1916.36 161.44 1916.37 161.4 1916.37 161.37 1916.38 161.33 1916.38 161.3 1916.39 161.26"/><polyline class="cls-5" points="1916.36 161.55 1916.39 161.73 1916.49 161.91 1916.64 162.08 1916.85 162.23 1917.11 162.35 1917.4 162.44 1917.72 162.5 1918.05 162.53"/><polyline class="cls-5" points="1916.36 170.13 1916.36 170.2 1916.38 170.26 1916.39 170.32 1916.42 170.39 1916.45 170.45 1916.49 170.51 1916.54 170.57 1916.6 170.62"/><polyline class="cls-5" points="1916.36 170.13 1916.39 169.8 1916.48 169.48 1916.64 169.18 1916.85 168.92 1917.11 168.7 1917.4 168.54 1917.72 168.43 1918.05 168.39"/><polyline class="cls-5" points="1916.36 170.13 1916.36 170.02 1916.36 169.79 1916.36 169.45 1916.36 169 1916.36 168.47 1916.36 167.87 1916.36 167.23 1916.36 166.56 1916.36 165.9 1916.36 165.27 1916.36 164.68"/><polyline class="cls-5" points="1916.36 170.13 1916.39 169.8 1916.48 169.48 1916.64 169.18 1916.85 168.92 1917.11 168.7 1917.4 168.53 1917.72 168.43 1918.05 168.39"/><polyline class="cls-5" points="1916.36 164.68 1916.39 164.87 1916.49 165.05 1916.64 165.21 1916.85 165.36 1917.11 165.48 1917.4 165.58 1917.72 165.63 1918.05 165.66"/><polyline class="cls-5" points="1918.05 165.66 1918.03 165.95 1918.02 166.27 1918 166.6 1917.99 166.93 1917.99 167.25 1917.99 167.55 1917.99 167.82 1918 168.04 1918.01 168.22 1918.08 170.78 1918.05 168.39"/><polyline class="cls-5" points="1993.92 155.99 1993.4 158.88 1990.58 163.22 1988.85 164.67"/><polyline class="cls-5" points="1938.27 55.03 1938.27 54.61 1938.27 54.26 1938.27 53.97 1938.27 53.76 1938.27 53.61 1938.27 53.54 1938.27 53.53"/><line class="cls-5" x1="1918.05" y1="168.39" x2="1918.05" y2="168.39"/><polyline class="cls-5" points="1916.6 170.62 1916.54 170.24 1916.57 169.85 1916.67 169.47 1916.85 169.13 1917.09 168.83 1917.38 168.61 1917.7 168.45 1918.05 168.39"/><line class="cls-5" x1="1938.27" y1="401.85" x2="1938.27" y2="180.82"/><polyline class="cls-5" points="1938.5 402.34 1938.45 402.29 1938.4 402.23 1938.36 402.17 1938.33 402.11 1938.3 402.05 1938.28 401.98 1938.27 401.92 1938.27 401.85"/><polyline class="cls-5" points="1938.27 180.82 1938.27 180.89 1938.28 180.95 1938.3 181.01 1938.33 181.08 1938.36 181.14 1938.4 181.2 1938.45 181.26 1938.5 181.31"/><polyline class="cls-5" points="1936.58 178.75 1936.91 178.88 1937.23 179.07 1937.52 179.3 1937.78 179.57 1937.99 179.87 1938.14 180.18 1938.24 180.5 1938.27 180.82"/><line class="cls-5" x1="1916.39" y1="159.11" x2="1916.39" y2="161.26"/><polyline class="cls-5" points="1934.6 86.34 1934.52 85.71 1934.52 84.76 1934.6 83.48"/><line class="cls-5" x1="1918.05" y1="162.53" x2="1918.05" y2="165.66"/><line class="cls-5" x1="1916.39" y1="161.26" x2="1934.6" y2="86.34"/><polyline class="cls-5" points="1916.39 161.26 1916.42 161.46 1916.52 161.65 1916.67 161.85 1916.87 162.03 1917.12 162.19 1917.41 162.33 1917.72 162.45 1918.05 162.53"/><polyline class="cls-5" points="1934.6 86.34 1934.62 86.48 1934.67 86.63 1934.76 86.78 1934.88 86.93 1935.03 87.07 1935.21 87.19 1935.41 87.31 1935.63 87.42"/><polyline class="cls-5" points="1934.6 86.34 1934.64 86.14 1934.65 86.05"/><polyline class="cls-5" points="1935.29 86.73 1935.16 86.67 1935.04 86.59 1934.93 86.51 1934.84 86.43 1934.77 86.34 1934.71 86.24 1934.67 86.14 1934.65 86.05"/><line class="cls-5" x1="1935.63" y1="87.42" x2="1935.29" y2="86.73"/><polyline class="cls-5" points="1935.29 86.73 1934.85 85.52 1934.65 84.04 1934.65 84"/><polyline class="cls-5" points="1934.65 84 1934.65 84.03 1934.73 84.44"/><polyline class="cls-5" points="1938.21 91.76 1938.08 91.57 1938 91.33 1937.97 91.06"/><polyline class="cls-5" points="1934.55 84.99 1934.56 85.44 1934.65 86.05"/><line class="cls-5" x1="1934.65" y1="86.05" x2="1934.65" y2="84"/><polyline class="cls-5" points="1934.65 84 1935.24 86.41 1936.36 88.78 1937.97 91.06"/><line class="cls-5" x1="1937.97" y1="91.06" x2="1938.09" y2="91.21"/><line class="cls-5" x1="1938.09" y1="91.21" x2="1938.09" y2="79.9"/><polyline class="cls-5" points="1958.24 442.31 1958.03 442.29 1957.81 442.27 1957.61 442.22 1957.42 442.17 1957.24 442.1 1957.08 442.01 1956.93 441.92 1956.81 441.82"/><line class="cls-5" x1="1988.22" y1="443.18" x2="1988.22" y2="174.23"/><line class="cls-5" x1="1958.24" y1="173.35" x2="1958.24" y2="442.31"/><line class="cls-5" x1="1958.24" y1="442.31" x2="1988.22" y2="443.18"/><polyline class="cls-5" points="1988.22 100.55 1990.4 98.07 1991.94 96.71 1993.82 95.5"/><line class="cls-5" x1="1993.82" y1="85.72" x2="1993.82" y2="95.5"/><line class="cls-5" x1="1988.22" y1="93.02" x2="1988.23" y2="92.9"/><line class="cls-5" x1="1938.27" y1="87.53" x2="1938.27" y2="80.32"/><polyline class="cls-5" points="1988.22 92.9 1988.32 91.89 1988.59 90.9 1989.05 89.92 1989.68 88.98 1990.49 88.08 1991.45 87.23 1992.57 86.44 1993.82 85.72"/><polyline class="cls-5" points="1993.82 85.72 1998.6 82.68 2002.15 79.16 2004.35 75.31 2005.09 71.28 2004.88 69.09"/><polyline class="cls-5" points="1939.93 52.63 1939.64 52.68 1939.32 52.82 1938.92 53.14 1938.45 53.93 1938.27 55.03"/><line class="cls-5" x1="1938.27" y1="55.48" x2="1938.27" y2="55.04"/><polyline class="cls-5" points="1934.76 69.09 1934.54 71.28 1934.77 73.51 1935.44 75.7 1936.56 77.84 1938.09 79.89"/><polyline class="cls-5" points="1938.09 79.89 1938.13 79.95 1938.17 80 1938.2 80.05 1938.22 80.1 1938.24 80.16 1938.26 80.21 1938.27 80.27 1938.27 80.32"/><line class="cls-5" x1="1938.27" y1="169.19" x2="1938.27" y2="104.05"/><polyline class="cls-5" points="1938.5 169.68 1938.45 169.62 1938.4 169.56 1938.36 169.5 1938.33 169.44 1938.3 169.38 1938.28 169.31 1938.27 169.25 1938.27 169.19"/><polyline class="cls-5" points="1938.5 104.54 1938.45 104.48 1938.4 104.42 1938.36 104.36 1938.33 104.3 1938.3 104.24 1938.28 104.17 1938.27 104.11 1938.27 104.05"/><polyline class="cls-5" points="1938.27 104.05 1938.27 101.88 1938.27 99.74 1938.27 97.62 1938.27 95.53 1938.27 93.48 1938.27 91.46 1938.27 89.48 1938.27 87.53"/><polyline class="cls-5" points="1938.27 104.05 1938.3 103.94 1938.39 103.83 1938.55 103.73 1938.75 103.64 1939 103.57 1939.29 103.52 1939.6 103.48 1939.93 103.46"/><polyline class="cls-5" points="1938.27 87.53 1938.55 88.87 1938.8 89.28 1939.34 89.76 1939.62 89.88 1939.93 89.93"/><polyline class="cls-5" points="1938.5 412.6 1938.44 411.85 1938.25 410.88 1937.94 409.76 1937.52 408.5 1937.01 407.16 1936.42 405.8 1935.79 404.45 1935.12 403.17"/><line class="cls-5" x1="1938.5" y1="412.6" x2="1938.5" y2="425.07"/><line class="cls-5" x1="1938.5" y1="425.07" x2="1956.81" y2="443.07"/><line class="cls-5" x1="1956.81" y1="443.07" x2="1956.81" y2="441.82"/><line class="cls-5" x1="1956.81" y1="441.82" x2="1956.81" y2="172.86"/><line class="cls-5" x1="1938.5" y1="104.54" x2="1938.5" y2="169.68"/><polyline class="cls-5" points="1935.12 172.56 1935.79 172.57 1936.43 172.46 1937.01 172.22 1937.52 171.87 1937.94 171.43 1938.25 170.9 1938.44 170.31 1938.5 169.68"/><line class="cls-5" x1="1935.12" y1="172.56" x2="1916.59" y2="170.62"/><line class="cls-5" x1="1916.59" y1="170.62" x2="1916.59" y2="174.31"/><line class="cls-5" x1="1916.59" y1="174.31" x2="1935.12" y2="177.49"/><polyline class="cls-5" points="1935.12 177.49 1935.79 177.66 1936.42 177.96 1937.01 178.35 1937.52 178.84 1937.94 179.41 1938.25 180.02 1938.44 180.66 1938.5 181.31"/><line class="cls-5" x1="1938.5" y1="181.31" x2="1938.5" y2="402.34"/><polyline class="cls-5" points="1938.5 402.34 1938.44 402.87 1938.25 403.14 1937.94 403.15 1937.52 402.91 1937.01 402.41 1936.42 401.67 1935.79 400.73 1935.12 399.62"/><line class="cls-5" x1="1935.12" y1="399.62" x2="1916.95" y2="367.57"/><line class="cls-5" x1="1916.95" y1="367.57" x2="1916.95" y2="369.9"/><line class="cls-5" x1="1916.95" y1="369.9" x2="1935.12" y2="403.17"/><polyline class="cls-5" points="1939.93 103.46 1939.69 103.58 1939.46 103.71 1939.24 103.85 1939.04 103.99 1938.86 104.13 1938.71 104.27 1938.59 104.41 1938.5 104.54"/><polyline class="cls-5" points="1956.82 172.86 1956.03 160.32 1953.69 146.71 1949.89 132.52 1944.77 118.3 1938.5 104.54"/><polyline class="cls-5" points="1958.24 173.35 1958.03 173.34 1957.82 173.31 1957.61 173.26 1957.42 173.21 1957.24 173.14 1957.08 173.06 1956.93 172.97 1956.82 172.86"/><line class="cls-5" x1="1939.93" y1="89.93" x2="1988.22" y2="93.02"/><polyline class="cls-5" points="1939.93 89.93 1939.93 91.55 1939.93 93.19 1939.93 94.86 1939.93 96.54 1939.93 98.25 1939.93 99.97 1939.93 101.71 1939.93 103.46"/><polyline class="cls-5" points="1939.93 103.46 1941.38 106.47 1946.8 119.08 1954.61 144.35 1958.11 168.3 1958.24 173.35"/><line class="cls-5" x1="1958.24" y1="173.35" x2="1988.22" y2="174.23"/><polyline class="cls-5" points="1988.22 174.23 1988.22 165.01 1988.22 155.17 1988.22 144.87 1988.22 134.29 1988.22 123.64 1988.22 113.08 1988.23 102.81 1988.22 93.02"/><polyline class="cls-5" points="1934.76 71.28 1934.86 72.75 1937.18 78.44 1942.41 83.49 1950.07 87.46 1959.49 90 1969.82 90.86"/><polyline class="cls-5" points="1969.82 90.86 1980.15 90 1989.57 87.46 1997.23 83.49 2002.45 78.44 2004.78 72.75 2004.88 71.28"/><polyline class="cls-5" points="1950.73 47.59 1945.98 49.66 1939.46 54.22 1935.64 59.66 1934.86 65.48 1937.19 71.17 1942.41 76.22 1950.07 80.19 1959.49 82.73 1969.82 83.6"/><polyline class="cls-5" points="1969.82 83.6 1980.15 82.73 1989.57 80.19 1997.23 76.22 2002.45 71.17 2004.78 65.48 2004 59.65 2000.18 54.22 1993.66 49.66 1988.91 47.59"/><polyline class="cls-5" points="1952.29 56.74 1953.63 60.49 1957.42 63.67 1963.11 65.79 1969.82 66.53"/><polyline class="cls-5" points="1969.82 66.53 1976.53 65.79 1982.21 63.67 1986.01 60.49 1987.35 56.75"/><polyline class="cls-5" points="1913.43 83.51 1913.43 84.13 1913.43 85.92 1913.43 88.73 1913.43 92.28"/><polyline class="cls-5" points="1909.05 210.08 1909.05 216.49 1909.05 221.25 1909.05 224.18 1909.05 225.17"/><polyline class="cls-5" points="1929.21 31.99 1929.21 34.39 1929.21 39.88 1929.21 42.31 1929.2 42.41"/><polyline class="cls-5" points="1924.83 25.8 1924.83 36.84 1924.83 46.56 1924.83 53.86 1924.83 58.4 1924.82 59.94"/><polyline class="cls-5" points="1882.76 244.12 1882.76 246.38 1882.76 248.56 1882.76 250.56 1882.76 252.32 1882.76 253.76 1882.76 254.83 1882.76 255.49 1882.76 255.72"/><line class="cls-5" x1="1882.76" y1="255.72" x2="1878.38" y2="255.72"/><polyline class="cls-5" points="1913.43 92.28 1913.43 92.44 1913.43 92.94 1913.43 93.75 1913.43 94.84 1913.43 96.17 1913.43 97.68 1913.43 99.33 1913.43 101.04"/><line class="cls-5" x1="1913.43" y1="210.08" x2="1882.76" y2="210.08"/><polyline class="cls-5" points="1913.43 201.31 1913.43 203.02 1913.43 204.67 1913.43 206.18 1913.43 207.51 1913.43 208.6 1913.43 209.41 1913.43 209.91 1913.43 210.08"/><line class="cls-5" x1="1909.05" y1="18.89" x2="1909.05" y2="101.04"/><line class="cls-5" x1="1882.76" y1="244.12" x2="1878.38" y2="244.12"/><line class="cls-5" x1="1882.76" y1="201.31" x2="1882.76" y2="244.12"/><line class="cls-5" x1="1913.43" y1="201.31" x2="1882.76" y2="201.31"/><line class="cls-5" x1="1913.43" y1="101.04" x2="1913.43" y2="201.31"/><line class="cls-5" x1="1913.43" y1="101.04" x2="1909.05" y2="101.04"/><polyline class="cls-5" points="1909.05 -84.8 1909.05 -83.11 1909.05 -78.09 1909.05 -69.97 1909.05 -59.06 1909.05 -45.81 1909.05 -30.76 1909.05 -14.51 1909.05 2.26 1909.05 18.89"/><line class="cls-5" x1="1909.05" y1="18.89" x2="1878.37" y2="18.89"/><line class="cls-5" x1="1847.7" y1="266.33" x2="1847.7" y2="253.35"/><line class="cls-5" x1="1878.37" y1="-70.34" x2="1878.38" y2="244.12"/><polyline class="cls-5" points="1878.38 244.12 1878.38 247.54 1878.37 250.82 1878.37 253.85 1878.37 256.51 1878.37 258.69 1878.37 260.31 1878.38 261.31 1878.37 261.64"/><line class="cls-5" x1="1847.7" y1="253.35" x2="1843.54" y2="253.35"/><line class="cls-5" x1="1878.37" y1="261.65" x2="1847.7" y2="261.64"/><line class="cls-5" x1="1988.22" y1="217.5" x2="1988.48" y2="217.78"/><polyline class="cls-5" points="1998.49 229.55 1998.57 229.63 1998.72 229.96 1998.73 230.04"/><polyline class="cls-5" points="2060.09 129.81 2060.03 129.15 2059.84 128.51 2059.54 127.92 2059.13 127.39 2058.63 126.96 2058.05 126.63 2057.42 126.4 2056.77 126.31"/><line class="cls-5" x1="2056.77" y1="126.31" x2="2042.72" y2="125.57"/><polyline class="cls-5" points="2044.82 346.33 2045.67 345.39 2046.89 344.19"/><line class="cls-5" x1="1997.05" y1="350.25" x2="1994.36" y2="350.34"/><polyline class="cls-5" points="1998.74 348.5 1998.71 348.83 1998.61 349.15 1998.46 349.45 1998.25 349.71 1997.99 349.93 1997.7 350.1 1997.38 350.2 1997.05 350.25"/><polyline class="cls-5" points="2041.97 463.11 2042.11 462.85 2042.23 462.59 2042.33 462.32 2042.41 462.05 2042.48 461.77 2042.53 461.49 2042.55 461.2 2042.56 460.92"/><line class="cls-5" x1="2035.27" y1="474.71" x2="2041.97" y2="463.11"/><line class="cls-5" x1="1998.74" y1="476.62" x2="2035.27" y2="474.71"/><line class="cls-5" x1="2057.24" y1="354.57" x2="2045.19" y2="354.57"/><line class="cls-5" x1="2045.19" y1="442.21" x2="2057.24" y2="442.21"/><line class="cls-5" x1="2060.09" y1="357.42" x2="2057.24" y2="354.57"/><line class="cls-5" x1="2057.24" y1="442.21" x2="2060.09" y2="439.36"/><line class="cls-5" x1="2042.56" y1="457.99" x2="2045.19" y2="457.99"/><line class="cls-5" x1="2045.19" y1="338.8" x2="2042.56" y2="338.8"/><polyline class="cls-5" points="1938.27 443.56 1938.27 443.67 1938.28 443.78 1938.3 443.9 1938.33 444.01 1938.36 444.12 1938.4 444.23 1938.45 444.33 1938.51 444.43"/><line class="cls-5" x1="1994.36" y1="362.07" x2="1988.22" y2="361.75"/><line class="cls-5" x1="1988.22" y1="435.03" x2="1998.74" y2="434.48"/><line class="cls-5" x1="1916.93" y1="370.25" x2="1935.1" y2="403.52"/><line class="cls-5" x1="1938.5" y1="444.43" x2="1956.81" y2="476.13"/><polyline class="cls-5" points="1956.81 476.13 1956.93 476.31 1957.07 476.48 1957.23 476.62 1957.41 476.75 1957.6 476.85 1957.8 476.93 1958.02 476.98 1958.23 477.01"/><line class="cls-5" x1="1958.23" y1="477.01" x2="1988.22" y2="478.58"/><polyline class="cls-5" points="1916.41 158.99 1916.4 159.04 1916.39 159.09 1916.38 159.14 1916.37 159.19 1916.37 159.24 1916.36 159.29 1916.36 159.34 1916.36 159.4"/><polyline class="cls-5" points="1916.36 173.82 1916.39 174.13 1916.46 174.42 1916.6 174.7 1916.77 174.95 1916.99 175.17 1917.24 175.34 1917.52 175.47 1917.82 175.55"/><line class="cls-5" x1="1942.65" y1="51.64" x2="1939.93" y2="51.78"/><polyline class="cls-5" points="1939.93 51.78 1939.6 51.83 1939.29 51.94 1939 52.1 1938.75 52.32 1938.54 52.59 1938.39 52.88 1938.3 53.2 1938.27 53.53"/><line class="cls-5" x1="1917.81" y1="175.55" x2="1936.34" y2="178.73"/><line class="cls-5" x1="1934.54" y1="83.64" x2="1916.41" y2="158.99"/><line class="cls-5" x1="1938.27" y1="92.03" x2="1938.27" y2="92.14"/><line class="cls-5" x1="1993.92" y1="155.99" x2="1993.92" y2="95.45"/><line class="cls-5" x1="1934.54" y1="71.28" x2="1934.55" y2="84.99"/><line class="cls-5" x1="2005.09" y1="80.76" x2="2005.09" y2="71.28"/><line class="cls-5" x1="2004.87" y1="71.28" x2="2004.88" y2="64.01"/><line class="cls-5" x1="1934.76" y1="64.01" x2="1934.76" y2="71.28"/><line class="cls-5" x1="1987.35" y1="56.75" x2="1987.35" y2="48.17"/><line class="cls-5" x1="1952.29" y1="48.17" x2="1952.29" y2="56.74"/><line class="cls-5" x1="1913.43" y1="83.51" x2="1909.05" y2="83.51"/><line class="cls-5" x1="1882.76" y1="225.17" x2="1909.05" y2="225.17"/><line class="cls-5" x1="1924.83" y1="42.41" x2="1929.21" y2="42.41"/><line class="cls-5" x1="1909.05" y1="59.94" x2="1924.82" y2="59.94"/><line class="cls-5" x1="2085.74" y1="-256.55" x2="2086.83" y2="303.92"/><line class="cls-5" x1="2447.54" y1="1255.05" x2="2446.98" y2="1256"/><line class="cls-5" x1="2444.28" y1="1254.44" x2="2444.83" y2="1253.49"/><line class="cls-5" x1="2407.83" y1="1156.22" x2="2410.9" y2="1150.91"/><line class="cls-5" x1="2405.88" y1="1261.88" x2="2419.26" y2="1238.72"/><line class="cls-5" x1="2404.59" y1="1229.53" x2="2390.91" y2="1253.23"/><line class="cls-5" x1="2387.29" y1="1203.06" x2="2378.63" y2="1218.06"/><polyline class="cls-5" points="2480.57 1108.16 2481.81 1106.02 2483.77 1102.62 2485.99 1098.78 2488.38 1094.64 2490.86 1090.34"/><polyline class="cls-5" points="2499.24 1281.06 2507.69 1285.94 2517.81 1291.78 2528.89 1298.18 2540.17 1304.69 2550.86 1310.86 2560.23 1316.28 2567.64 1320.55 2572.56 1323.39 2574.66 1324.61 2574.73 1324.65"/><line class="cls-5" x1="2396.88" y1="1207.72" x2="2397.17" y2="1208.13"/><polyline class="cls-5" points="2290.45 1143.43 2291.03 1143.77 2294.21 1145.61 2300.01 1148.95 2308.14 1153.65 2318.2 1159.46 2329.68 1166.08 2341.99 1173.19 2354.53 1180.43 2366.68 1187.44 2377.8 1193.87"/><polyline class="cls-5" points="2375.13 1072.85 2367.02 1068.17 2361.37 1064.9 2358.6 1063.31 2358.36 1063.17"/><polyline class="cls-5" points="2321.76 1063.16 2322.33 1063.5 2325.57 1065.37 2331.51 1068.8 2339.9 1073.64 2350.39 1079.7"/><polyline class="cls-5" points="2349.24 1080.68 2338.63 1074.55 2330.14 1069.65 2324.14 1066.19 2320.87 1064.3 2320.28 1063.96"/><line class="cls-5" x1="2432.15" y1="1103.54" x2="2590.02" y2="1194.69"/><line class="cls-5" x1="2428.99" y1="995.97" x2="2420.96" y2="989.4"/><polyline class="cls-5" points="2405.03 940.47 2409.48 894.64 2406.67 821.61 2400.51 784.47 2391.2 748 2373.9 700.63 2350.96 654.95"/><line class="cls-5" x1="2404.46" y1="944.13" x2="2405.03" y2="940.47"/><polyline class="cls-5" points="2404.46 944.13 2404.52 960.37 2409.74 975.65 2420.95 989.4"/><polyline class="cls-5" points="1969.82 1315.1 1983.35 1314.89 2050.04 1307.7 2114.89 1290.51 2176.34 1263.61 2233.02 1227.73 2244.12 1219.17"/><polyline class="cls-5" points="2303.98 1212.62 2288.01 1206.55 2270.66 1206.26 2255.01 1211.53 2247 1216.85"/><line class="cls-5" x1="2244.12" y1="1219.17" x2="2247" y2="1216.85"/><polyline class="cls-5" points="2303.98 1212.62 2332.6 1229.66 2345.62 1237.42"/><polyline class="cls-5" points="2428.99 995.97 2737.72 1168.59 2894.2 1256.04"/><polyline class="cls-5" points="2345.62 1237.42 2528.84 1346.59 2709.79 1454.45 2759.83 1484.27"/><polyline class="cls-5" points="2345.62 1237.42 2340.97 1245.47 2336.33 1253.5"/><polyline class="cls-5" points="2471.58 1019.24 2476.23 1011.2 2480.87 1003.16"/><polyline class="cls-5" points="2892.47 1254.53 2841.62 1226.12 2657.74 1123.33 2471.58 1019.24"/><line class="cls-5" x1="2446.98" y1="1256" x2="2502.14" y2="1286.7"/><polyline class="cls-5" points="2446.99 1256 2446.44 1255.68 2445.94 1255.39 2445.48 1255.13 2445.09 1254.9 2444.76 1254.72 2444.52 1254.58 2444.36 1254.48 2444.28 1254.44"/><line class="cls-5" x1="2429.38" y1="1273.69" x2="2432.28" y2="1272.91"/><polyline class="cls-5" points="2432.28 1272.91 2432.79 1272.48 2433.68 1271.39 2434.9 1269.66 2436.43 1267.38 2438.19 1264.6 2444.83 1253.49"/><polyline class="cls-5" points="2405.88 1261.88 2410.19 1264.34 2414.38 1266.65 2418.28 1268.75 2421.78 1270.55 2424.73 1271.98 2427.03 1273.01 2428.6 1273.58 2429.38 1273.69"/><line class="cls-5" x1="2390.91" y1="1253.23" x2="2405.88" y2="1261.88"/><polyline class="cls-5" points="2368.93 1238.79 2369.42 1239.41 2370.7 1240.49 2372.74 1241.97 2375.45 1243.8 2378.76 1245.93 2382.53 1248.26 2386.63 1250.73 2390.91 1253.23"/><polyline class="cls-5" points="2378.63 1218.06 2376.58 1221.65 2374.64 1225.14 2372.87 1228.4 2371.36 1231.32 2370.13 1233.77 2369.25 1235.69 2368.74 1236.99 2368.62 1237.63"/><line class="cls-5" x1="2368.62" y1="1237.63" x2="2368.93" y2="1238.79"/><line class="cls-5" x1="2514.91" y1="1048.69" x2="2490.86" y2="1090.34"/><line class="cls-5" x1="2457.84" y1="1095.03" x2="2491.41" y2="1036.88"/><line class="cls-5" x1="2490.86" y1="1090.34" x2="2527.68" y2="1111.6"/><polyline class="cls-5" points="2468.12 1077.21 2468.75 1077.58 2470.18 1078.4 2472.35 1079.66 2475.18 1081.29 2478.58 1083.26 2482.42 1085.47 2486.56 1087.86 2490.86 1090.34"/><polyline class="cls-5" points="2489.8 1030.9 2490.5 1031.4 2491.08 1032.03 2491.54 1032.76 2491.84 1033.56 2491.98 1034.41 2491.95 1035.26 2491.76 1036.1 2491.41 1036.88"/><polyline class="cls-5" points="2499.87 1285.26 2499.52 1285.06 2498.15 1284.27 2496.55 1283.34 2494.9 1282.39 2493.39 1281.52"/><polyline class="cls-5" points="2496.74 1279.62 2497.3 1279.99 2497.93 1280.37 2498.55 1280.72 2499.1 1280.99 2499.24 1281.06"/><polyline class="cls-5" points="2570.04 1325.77 2569.97 1325.74 2568.02 1324.61 2563.44 1321.96 2556.56 1317.99 2547.85 1312.96 2537.91 1307.22 2527.43 1301.17 2517.13 1295.23 2507.73 1289.8 2499.87 1285.26"/><polyline class="cls-5" points="2499.24 1281.06 2498.97 1281.66 2498.8 1282.29 2498.73 1282.92 2498.77 1283.51 2498.91 1284.07 2499.14 1284.55 2499.46 1284.95 2499.87 1285.26"/><polyline class="cls-5" points="2505.19 1270.49 2503.04 1274.3 2499.24 1281.06"/><line class="cls-5" x1="2493.39" y1="1281.52" x2="2410.65" y2="1233.75"/><polyline class="cls-5" points="2496.74 1279.62 2496.37 1280.16 2495.95 1280.64 2495.5 1281.05 2495.04 1281.36 2494.58 1281.57 2494.14 1281.67 2493.74 1281.65 2493.39 1281.52"/><polyline class="cls-5" points="2391 1207.15 2391.01 1207.22 2391.16 1207.45 2391.42 1207.64"/><line class="cls-5" x1="2414" y1="1231.85" x2="2496.74" y2="1279.62"/><polyline class="cls-5" points="2496.74 1279.62 2499.38 1274.96 2502.71 1269.06"/><line class="cls-5" x1="2410.65" y1="1233.75" x2="2410.09" y2="1233.43"/><line class="cls-5" x1="2390.49" y1="1204.33" x2="2391.42" y2="1207.64"/><polyline class="cls-5" points="2391.42 1207.64 2394.26 1215.68 2398.41 1222.81 2403.75 1228.79 2410.09 1233.43"/><polyline class="cls-5" points="2410.65 1233.75 2404.35 1229.13 2399.13 1223.22 2395.17 1216.21 2392.59 1208.32"/><polyline class="cls-5" points="2414.01 1231.85 2413.63 1232.39 2413.21 1232.87 2412.76 1233.28 2412.3 1233.59 2411.84 1233.8 2411.4 1233.9 2411 1233.88 2410.65 1233.75"/><polyline class="cls-5" points="2397.17 1208.13 2399.57 1215.49 2403.26 1222.03 2408.12 1227.54 2414.01 1231.85"/><line class="cls-5" x1="2392.59" y1="1208.32" x2="2392.23" y2="1205.33"/><polyline class="cls-5" points="2397.17 1208.13 2396.57 1208.35 2395.92 1208.52 2395.26 1208.64 2394.62 1208.7 2394.01 1208.69 2393.45 1208.63 2392.98 1208.5 2392.59 1208.32"/><line class="cls-5" x1="2502.71" y1="1269.06" x2="2397.17" y2="1208.13"/><line class="cls-5" x1="2698.86" y1="1379.91" x2="2376.45" y2="1193.76"/><line class="cls-5" x1="2377.8" y1="1193.87" x2="2700.22" y2="1380.01"/><line class="cls-5" x1="2405.96" y1="1160.2" x2="2633.27" y2="1291.44"/><line class="cls-5" x1="2386.77" y1="1191.31" x2="2733.01" y2="1391.21"/><line class="cls-5" x1="2343.08" y1="1118.84" x2="2341.62" y2="1121.1"/><polyline class="cls-5" points="2343.08 1118.84 2352.13 1124.07 2362.41 1130 2373.23 1136.25 2383.85 1142.38 2393.55 1147.98 2401.67 1152.67 2407.67 1156.13 2411.13 1158.13 2411.92 1158.58"/><polyline class="cls-5" points="2339.74 1121.97 2340.13 1122.08 2340.56 1122 2341.02 1121.76 2341.43 1121.37 2341.62 1121.1"/><polyline class="cls-5" points="2376.45 1193.77 2376.59 1193.84 2376.75 1193.89 2376.91 1193.93 2377.07 1193.95 2377.25 1193.96 2377.43 1193.95 2377.62 1193.92 2377.8 1193.87"/><polyline class="cls-5" points="2376.45 1193.77 2365.7 1187.56 2353.97 1180.79 2341.85 1173.79 2329.95 1166.92 2318.86 1160.52 2309.15 1154.91 2301.29 1150.37 2295.69 1147.14 2292.62 1145.36 2292.06 1145.04"/><line class="cls-5" x1="2386.77" y1="1191.31" x2="2377.8" y2="1193.87"/><polyline class="cls-5" points="2283.75 1131.83 2283.91 1131.92 2286.3 1133.3 2291.47 1136.29 2299.19 1140.74 2309.12 1146.48 2320.83 1153.24 2333.82 1160.73 2347.5 1168.63 2361.28 1176.59 2374.57 1184.26 2386.77 1191.31"/><line class="cls-5" x1="2405.96" y1="1160.2" x2="2386.77" y2="1191.31"/><polyline class="cls-5" points="2300.36 1099.24 2300.52 1099.33 2302.97 1100.74 2308.27 1103.8 2316.18 1108.37 2326.36 1114.25 2338.37 1121.18 2351.68 1128.86 2365.7 1136.96 2379.83 1145.12 2393.45 1152.98 2405.96 1160.2"/><polyline class="cls-5" points="2372.92 1211.97 2372.62 1211.8 2369.91 1210.23 2364.56 1207.14 2357.02 1202.79 2347.89 1197.52 2337.92 1191.76 2327.9 1185.97 2318.66 1180.64 2310.94 1176.18 2305.36 1172.96 2302.39 1171.25 2301.96 1170.99"/><polyline class="cls-5" points="2300.91 1167.11 2301.13 1167.23 2303.62 1168.66 2308.72 1171.61 2316.06 1175.85 2325.09 1181.06 2335.14 1186.86 2345.47 1192.83 2355.31 1198.51 2363.92 1203.48 2370.68 1207.39 2375.08 1209.93 2376.8 1210.92 2376.81 1210.92"/><polyline class="cls-5" points="2396.5 1208.38 2396.4 1208.32 2394.28 1207.1 2389.49 1204.33 2382.3 1200.18 2373.1 1194.87"/><polyline class="cls-5" points="2373.1 1194.87 2362.37 1188.67 2350.7 1181.93 2338.71 1175.01 2327.07 1168.29 2316.37 1162.12 2307.22 1156.83 2300.1 1152.72 2295.39 1150.01 2293.36 1148.83 2293.28 1148.78"/><polyline class="cls-5" points="2320.94 1098.97 2321.17 1099.14 2321.36 1099.36 2321.49 1099.63 2321.58 1099.92 2321.61 1100.24 2321.58 1100.57 2321.49 1100.89 2321.36 1101.2"/><line class="cls-5" x1="2320.08" y1="1103.54" x2="2321.36" y2="1101.2"/><line class="cls-5" x1="2339.65" y1="1114.83" x2="2320.08" y2="1103.54"/><line class="cls-5" x1="2386.47" y1="1079.12" x2="2387.45" y2="1079.69"/><polyline class="cls-5" points="2440.13 1084.8 2440.72 1085.15 2441.35 1085.51 2441.98 1085.87 2442.59 1086.23 2443.16 1086.55"/><polyline class="cls-5" points="2441.46 1087.53 2441.18 1087.36 2440.88 1087.18 2440.56 1087 2440.25 1086.82 2439.95 1086.65"/><line class="cls-5" x1="2435.6" y1="1082.19" x2="2437.6" y2="1083.34"/><polyline class="cls-5" points="2435.59 1082.19 2435 1081.92 2434.36 1081.78 2433.69 1081.76"/><polyline class="cls-5" points="2430.64 1102.67 2430.82 1102.78 2431.01 1102.89 2431.21 1103.01 2431.4 1103.12 2431.6 1103.24 2431.8 1103.34 2431.98 1103.45 2432.15 1103.54"/><line class="cls-5" x1="2437.6" y1="1083.34" x2="2440.13" y2="1084.8"/><polyline class="cls-5" points="2440.13 1084.8 2440.24 1084.9 2440.31 1085.06 2440.35 1085.26 2440.34 1085.5 2440.3 1085.77 2440.22 1086.06 2440.1 1086.36 2439.95 1086.65"/><polyline class="cls-5" points="2437.6 1083.34 2437.7 1083.44 2437.78 1083.6 2437.82 1083.8 2437.81 1084.03 2437.77 1084.3 2437.68 1084.59 2437.56 1084.89 2437.41 1085.19"/><polyline class="cls-5" points="2435.71 1082.93 2436.37 1082.94 2437.01 1083.08 2437.6 1083.34"/><polyline class="cls-5" points="2359.24 1063.4 2359.47 1063.53 2362.18 1065.1 2367.73 1068.3 2375.68 1072.89"/><line class="cls-5" x1="2375.68" y1="1072.89" x2="2386.47" y2="1079.12"/><polyline class="cls-5" points="2375.13 1072.85 2375.5 1072.83 2375.6 1072.86 2375.68 1072.89"/><polyline class="cls-5" points="2385.93 1079.08 2386 1079.06 2386.08 1079.05 2386.15 1079.05 2386.22 1079.05 2386.28 1079.06 2386.35 1079.07 2386.41 1079.09 2386.47 1079.12"/><polyline class="cls-5" points="2433.69 1081.76 2433.55 1081.63 2433.4 1081.57 2433.39 1081.57"/><polyline class="cls-5" points="2395.79 1080.87 2395.65 1080.73 2395.51 1080.68 2395.49 1080.68"/><polyline class="cls-5" points="2398.86 1082.64 2398.96 1082.79 2399.04 1082.98 2399.11 1083.19 2399.17 1083.43 2399.21 1083.7 2399.23 1083.97 2399.24 1084.25 2399.22 1084.53"/><polyline class="cls-5" points="2435.71 1082.93 2435.8 1083.08 2435.89 1083.26 2435.96 1083.48 2436.02 1083.72 2436.06 1083.98 2436.08 1084.26 2436.08 1084.54 2436.07 1084.82"/><line class="cls-5" x1="2430.64" y1="1102.67" x2="2439.95" y2="1086.65"/><line class="cls-5" x1="2439.95" y1="1086.65" x2="2437.42" y2="1085.19"/><polyline class="cls-5" points="2437.41 1085.19 2436.99 1084.99 2436.53 1084.86 2436.07 1084.82"/><line class="cls-5" x1="2436.07" y1="1084.82" x2="2399.22" y2="1084.53"/><polyline class="cls-5" points="2430.46 1104.52 2430.35 1104.42 2430.27 1104.27 2430.24 1104.07 2430.24 1103.83 2430.29 1103.56 2430.37 1103.27 2430.49 1102.97 2430.64 1102.67"/><line class="cls-5" x1="2399.22" y1="1084.53" x2="2430.64" y2="1102.67"/><polyline class="cls-5" points="2395.35 1084.25 2395.04 1084.03 2394.97 1083.88 2395.15 1083.81 2395.57 1083.81 2396.22 1083.89 2397.06 1084.04 2398.08 1084.26 2399.22 1084.53"/><line class="cls-5" x1="2350.39" y1="1079.7" x2="2350.39" y2="1079.7"/><polyline class="cls-5" points="2350.39 1079.7 2349.98 1079.89 2349.57 1080.24 2349.37 1080.49 2349.24 1080.68"/><polyline class="cls-5" points="2303.93 1089.15 2305.21 1089.89 2309.12 1092.15 2315.49 1095.83 2324.09 1100.79 2334.58 1106.85"/><line class="cls-5" x1="2350.33" y1="1081.32" x2="2349.24" y2="1080.68"/><line class="cls-5" x1="2443.16" y1="1086.55" x2="2602.7" y2="1178.66"/><polyline class="cls-5" points="2443.16 1086.55 2442.98 1086.49 2442.77 1086.48 2442.55 1086.53 2442.32 1086.64 2442.09 1086.8 2441.86 1087 2441.65 1087.25 2441.46 1087.53"/><line class="cls-5" x1="2601.01" y1="1179.64" x2="2441.46" y2="1087.52"/><line class="cls-5" x1="2441.46" y1="1087.52" x2="2432.15" y2="1103.54"/><polyline class="cls-5" points="2430.46 1104.52 2430.64 1104.59 2430.84 1104.59 2431.06 1104.54 2431.29 1104.43 2431.53 1104.27 2431.75 1104.07 2431.96 1103.82 2432.15 1103.54"/><line class="cls-5" x1="2395.35" y1="1084.25" x2="2586.77" y2="1194.77"/><polyline class="cls-5" points="2394.81 1084.21 2394.89 1084.19 2394.96 1084.18 2395.03 1084.17 2395.1 1084.18 2395.17 1084.18 2395.23 1084.2 2395.29 1084.22 2395.35 1084.25"/><polyline class="cls-5" points="2350.33 1081.32 2350.45 1081.14 2350.58 1080.97 2350.72 1080.82 2350.87 1080.68 2351.02 1080.56 2351.17 1080.46 2351.32 1080.38 2351.47 1080.33"/><line class="cls-5" x1="2334.58" y1="1106.85" x2="2567.5" y2="1241.33"/><line class="cls-5" x1="2583.26" y1="1215.8" x2="2350.33" y2="1081.32"/><line class="cls-5" x1="2350.33" y1="1081.32" x2="2334.58" y2="1106.85"/><polyline class="cls-5" points="2385.93 1079.08 2386.61 1079.4 2387.54 1079.72 2388.67 1080.01 2389.97 1080.28 2391.38 1080.5 2392.86 1080.68 2394.35 1080.8 2395.79 1080.87"/><line class="cls-5" x1="2385.93" y1="1079.08" x2="2375.13" y2="1072.85"/><line class="cls-5" x1="2375.13" y1="1072.85" x2="2350.39" y2="1079.7"/><line class="cls-5" x1="2350.39" y1="1079.7" x2="2351.47" y2="1080.33"/><line class="cls-5" x1="2351.47" y1="1080.33" x2="2584.39" y2="1214.81"/><line class="cls-5" x1="2586.23" y1="1194.72" x2="2394.81" y2="1084.21"/><polyline class="cls-5" points="2394.81 1084.21 2394.39 1083.89 2394.25 1083.59 2394.39 1083.31 2394.81 1083.08 2395.5 1082.88 2396.43 1082.74 2397.56 1082.66 2398.86 1082.64"/><line class="cls-5" x1="2398.86" y1="1082.64" x2="2435.71" y2="1082.93"/><line class="cls-5" x1="2435.71" y1="1082.93" x2="2433.69" y2="1081.76"/><line class="cls-5" x1="2433.69" y1="1081.76" x2="2395.79" y2="1080.87"/><polyline class="cls-5" points="2390.16 1204.29 2390.55 1205.49 2390.98 1207.15"/><line class="cls-5" x1="2410.65" y1="1160.96" x2="2411.92" y2="1158.58"/><polyline class="cls-5" points="2411.32 1163.3 2411.05 1163.11 2410.82 1162.86 2410.64 1162.58 2410.52 1162.27 2410.45 1161.93 2410.46 1161.6 2410.52 1161.27 2410.65 1160.96"/><polyline class="cls-5" points="2290.45 1143.43 2290.61 1143.68 2290.77 1143.91 2290.95 1144.13 2291.15 1144.34 2291.36 1144.54 2291.58 1144.72 2291.81 1144.89 2292.06 1145.04"/><line class="cls-5" x1="2283.75" y1="1131.83" x2="2290.45" y2="1143.44"/><line class="cls-5" x1="2300.36" y1="1099.24" x2="2283.75" y2="1131.83"/><line class="cls-5" x1="2376.81" y1="1210.92" x2="2382.84" y2="1200.49"/><line class="cls-5" x1="2306.94" y1="1156.67" x2="2300.91" y2="1167.11"/><line class="cls-5" x1="2372.92" y1="1211.97" x2="2376.81" y2="1210.92"/><line class="cls-5" x1="2300.91" y1="1167.11" x2="2301.96" y2="1171"/><line class="cls-5" x1="2294.59" y1="1146.5" x2="2293.28" y2="1148.78"/><line class="cls-5" x1="2396.5" y1="1208.38" x2="2397.81" y2="1206.1"/><polyline class="cls-5" points="2359.24 1063.4 2359.14 1063.35 2359.03 1063.3 2358.92 1063.26 2358.82 1063.22 2358.7 1063.2 2358.59 1063.18 2358.47 1063.17 2358.36 1063.17"/><line class="cls-5" x1="2401.76" y1="1152.72" x2="2405.11" y2="1147.57"/><line class="cls-5" x1="2341.64" y1="1110.92" x2="2336.86" y2="1120.31"/><line class="cls-5" x1="2433.39" y1="1081.57" x2="2395.5" y2="1080.68"/><line class="cls-5" x1="2358.36" y1="1063.17" x2="2321.76" y2="1063.17"/><polyline class="cls-5" points="2321.76 1063.16 2321.54 1063.18 2321.33 1063.22 2321.12 1063.29 2320.92 1063.38 2320.74 1063.49 2320.57 1063.63 2320.42 1063.79 2320.28 1063.96"/><line class="cls-5" x1="2320.29" y1="1063.96" x2="2303.93" y2="1089.15"/><line class="cls-5" x1="2891.81" y1="1541.16" x2="2405.88" y2="1261.88"/><path class="cls-5" d="M1553.34,967a10.28,10.28,0,0,1-14.88-7.11,441.46,441.46,0,0,1-8.19-84.91c0-193,124.43-357,297.46-416.08a10.29,10.29,0,0,1,13.6,9.33l2.79,73.8a29.93,29.93,0,0,0,38.15,27.54,328.27,328.27,0,0,1,175.1,0,29.93,29.93,0,0,0,38.15-27.54l2.79-73.8a10.29,10.29,0,0,1,13.6-9.33C2284.94,518,2409.37,682,2409.37,875a442.26,442.26,0,0,1-8.19,84.91A10.28,10.28,0,0,1,2386.3,967L2321,932.56a29.93,29.93,0,0,0-42.92,19.28,328.31,328.31,0,0,1-87.53,151.65,29.93,29.93,0,0,0,4.78,46.81l62.42,39.25a10.28,10.28,0,0,1,1.29,16.44,439.6,439.6,0,0,1-578.48,0,10.28,10.28,0,0,1,1.29-16.44l62.42-39.25a29.94,29.94,0,0,0,4.78-46.81,328.08,328.08,0,0,1-87.53-151.65,29.94,29.94,0,0,0-42.92-19.28Z"/><path class="cls-5" d="M2744.26,1496.58l-405.58-241.69a56.13,56.13,0,0,0-63.71,4.53,490.88,490.88,0,0,1-610.65-.28,56.12,56.12,0,0,0-63.8-4.53l-405.14,242"/><path class="cls-5" d="M1044.3,1234.89l412.09-230.39a56.12,56.12,0,0,0,27.94-57.44,490.88,490.88,0,0,1,305.56-528.7,56.14,56.14,0,0,0,35.83-53l-7-471.84"/><path class="cls-5" d="M2895.34,1234.89,2483.25,1004.5a56.12,56.12,0,0,1-27.94-57.44,490.9,490.9,0,0,0-305.57-528.7,56.13,56.13,0,0,1-35.82-53l7-471.84"/><path class="cls-5" d="M1466.15,1765.71l-247.23,28.52s-51.23,8.15-99.53-41.12a1210,1210,0,0,1-335.3-580.87c-18.51-66.46,14.17-106.75,14.17-106.75h0L946.61,865.67"/><path class="cls-5" d="M2473.49,1765.71l247.22,28.52s51.24,8.15,99.54-41.12a1210,1210,0,0,0,335.3-580.87c18.51-66.46-14.18-106.75-14.18-106.75h0L2993,865.67"/><circle class="cls-6" cx="1969.82" cy="875" r="954.51"/><circle class="cls-7" cx="1969.82" cy="875" r="994.96"/><circle class="cls-8" cx="1969.82" cy="875" r="93.94"/><circle class="cls-5" cx="1969.82" cy="875" r="74.22"/><circle class="cls-5" cx="1969.82" cy="875" r="87.22"/><polyline class="cls-8" points="2667.26 1311.14 2665.44 1311.75 2658.82 1312.34 2656.5 1311.38 2641.57 1303.64 2638.52 1301.71 2636.01 1298.91 2633.73 1293.2 2409.36 1162.63 2414.44 1152.96 2574.63 1245.49 2578.2 1253.53 2580.45 1255.43 2632.87 1285.71 2641.34 1290.49 2641.59 1296.14 2643.34 1301.61 2644.67 1305.24 2658.82 1312.34 2667.26 1311.14 2674.96 1306.68 2677.1 1303.67"/><path class="cls-9" d="M2695.92,1272.25l.53-9-.64-4.06-2.8-6-22.35-14.06-54-52.28-183.18-105.23-37.75-.85-7-.71-2.75-.94-27.56-15.91-37.44.2-17,25.77,18.78,10.88-5.32,9.14-17-9.94-16.61,32.59,5.72,13.86,17.44,10.48-6,11L2302,1171l71,41,3.89-1,7-11.1,6,3.6s.52,5.8,6.53,15.56a47.39,47.39,0,0,0,14.77,14.81l303,174.94,4.09-1.41,9.9-15.25,27.52,15.84,5.9-.14,26.61-41-24.75-14.44"/><polyline class="cls-8" points="1243.44 1260.95 1243.83 1259.07 1246.63 1253.05 1248.62 1251.51 1262.79 1242.45 1265.99 1240.78 1269.67 1240 1275.75 1240.88 1501.01 1111.86 1506.85 1121.1 1346.62 1213.55 1337.87 1212.63 1335.1 1213.62 1282.67 1243.88 1274.29 1248.83 1269.27 1246.21 1263.66 1244.99 1259.85 1244.33 1246.63 1253.05 1243.44 1260.95 1243.46 1269.84 1245 1273.21"/><path class="cls-9" d="M1262.8,1305.21l7.55,5,3.83,1.47,6.61.59,23.36-12.33,72.29-20.66,182.72-106,19.61-32.27,4.11-5.68,2.18-1.91,27.57-15.91,18.55-32.53-13.83-27.6-18.81,10.82-5.26-9.18,17.13-9.78-19.92-30.68-14.86-2-17.79,9.86-6.48-10.7-3.89-1-71,41-1,3.89,6.14,11.57-6.13,3.41s-5.28-2.44-16.73-2.12a47.25,47.25,0,0,0-20.22,5.39l-303,174.94-.83,4.24,8.26,16.2-27.47,15.91-2.83,5.18,22.2,43.54,24.88-14.22"/><circle class="cls-8" cx="1210.88" cy="1313.22" r="52.2"/><circle class="cls-5" cx="1210.88" cy="1313.22" r="17.91"/><polyline class="cls-8" points="1998.92 52.95 2000.36 54.23 2004.18 59.66 2004.51 62.15 2005.27 78.96 2005.12 82.57 2003.95 86.14 2000.15 90.97 1999.26 350.56 1988.34 350.99 1988.38 166.01 1993.56 158.89 1994.08 156 1994.09 95.46 1994 85.73 1998.77 82.69 2002.63 78.44 2005.11 75.47 2004.18 59.66 1998.92 52.95 1991.22 48.52 1987.53 48.17"/><path class="cls-9" d="M1950.91,47.59l-8.08,4-3.19,2.58-3.82,5.44-1,26.39L1916.57,159l.46,211.25,18.14,33.12,2.87,6.4.57,2.84v31.83l18.9,32.33,30.81,1.83,0-21.7,10.58,0-.1,19.72,36.53-1.9,9.14-11.89.36-20.34,12.5-.26,2.85-2.85V357.45l-2.85-2.85-13.09-.47.11-7s4.76-3.35,10.2-13.43a47.29,47.29,0,0,0,5.44-20.2V-36.39l-3.25-2.83-18.16-1,0-31.74-3.07-5-48.81-2.55-.13,28.66"/><circle class="cls-8" cx="1969.94" cy="-1.38" r="52.2"/><circle class="cls-5" cx="1969.94" cy="-1.38" r="17.91"/><path class="cls-7" d="M3144.36,1041.85c-38.87-52.47-148.08-200.39-148.08-200.39s-27.9-39.86-38.59-93.21-29.92-203.48-126.42-370.61S2614.38,118.78,2573.52,82.85s-61.43-80-61.43-80-73.49-168.54-99.5-228.43-88.6-76.18-88.6-76.18c-220.52-59.57-354.17-52.14-354.17-52.14s-133.66-7.43-354.18,52.14c0,0-62.59,16.28-88.6,76.18S1427.55,2.83,1427.55,2.83s-20.58,44.1-61.44,80-161.25,127.66-257.75,294.79S992.63,694.9,982,748.25s-38.59,93.21-38.59,93.21S834.15,989.38,795.28,1041.85s-21.67,114.82-21.67,114.82c58.67,220.76,131.93,332.79,131.93,332.79s60.4,119.46,222.24,280.65c0,0,45.4,46.07,110.27,38.65s247.58-28,247.58-28,48.48-4.23,100,13.19,191.18,75.82,384.17,75.82,332.62-58.4,384.16-75.82,100-13.19,100-13.19,182.71,20.62,247.58,28,110.27-38.65,110.27-38.65c161.85-161.19,222.25-280.65,222.25-280.65s73.26-112,131.93-332.79C3166,1156.67,3183.23,1094.32,3144.36,1041.85Z"/><path class="cls-9" d="M3014.45,1374.45c-16.13,34.39-43.11,79.88-43.11,79.88s-25,44.56-46.66,75.73c0,0-13.06,18-19.09,15.91L2825,1517.86s-5.28-.52-26-12-492.35-292-492.35-292-12.56-9.83-31.94-7.78c-9.75,1-21.15,6-33.69,14.87-37.44,26.53-123.82,94.12-271.15,94.12s-233.32-66.37-270.34-93.48c-15.5-11.36-26-15.75-36.79-16-16.64-.33-29.66,8.23-29.66,8.23s-471.59,280.56-492.34,292-26,12-26,12l-80.6,28.11c-6,2.1-19.09-15.91-19.09-15.91-21.72-31.17-47.62-77.27-47.62-77.27s-26.12-43.89-42.25-78.28c0,0-9.07-20.31-4.23-24.49l64.64-55.75s3.09-4.32,23.38-16.56S1512,994.85,1512,994.85s26.88-12.12,22.62-57.81S1516.18,782.93,1588.68,655c67.47-119.11,175.1-170.91,217.65-188.09C1848,450,1844.72,414,1844.72,414s-7.18-548.7-6.71-572.39,2.66-28.53,2.66-28.53,14.76-77.58,15.95-83.86,23.32-8.57,23.32-8.57c37.86-3.23,90.74-2.61,90.74-2.61s51.06-.68,88.91,2.55c0,0,22.13,2.3,23.32,8.58s16,83.86,16,83.86,2.2,4.83,2.66,28.52-6.71,572.39-6.71,572.39a53,53,0,0,0,11.46,34.9c6,7.46,15.84,12.77,28.87,18.76,41.7,19.16,145.16,65.21,215.81,187.35,73.76,127.53,58.32,236.4,54.07,282.09-1.42,15.16.44,27.72,4.34,36.63,7.86,18,22.23,23.6,22.23,23.6s478.78,268.13,499.06,280.38,23.38,16.57,23.38,16.57l64.64,55.75C3023.52,1354.14,3014.45,1374.45,3014.45,1374.45Z"/></g></g></svg>